{"glyphs":{"0":{"ha":667,"x_min":97,"x_max":606,"o":"m 226 -3 q 153 31 179 -3 q 118 113 128 64 q 108 213 108 163 q 117 326 108 264 q 150 443 126 388 q 217 529 174 499 q 241 546 224 533 q 278 569 258 558 q 308 579 297 579 q 315 572 315 579 q 306 559 315 563 q 289 553 296 556 q 247 494 268 539 q 206 391 225 450 q 176 269 188 332 q 165 156 165 207 q 222 44 165 44 q 281 66 250 44 q 340 119 311 88 q 388 183 368 151 q 435 275 411 219 q 481 393 460 331 q 516 515 503 456 q 529 619 529 575 q 514 686 529 665 q 471 707 499 707 q 407 690 444 707 q 325 643 369 672 q 260 594 299 626 q 185 527 222 561 q 125 469 149 493 q 103 446 101 446 q 97 453 97 446 q 135 532 97 475 q 246 651 174 589 q 298 688 263 667 q 378 724 333 708 q 465 740 422 740 q 535 723 503 740 q 586 663 567 706 q 601 614 597 640 q 606 560 606 588 q 582 412 606 489 q 518 261 558 335 q 428 128 478 188 q 326 33 378 68 q 226 -3 274 -3 z "},"1":{"ha":268,"x_min":94,"x_max":318,"o":"m 154 -53 q 125 -31 136 -53 q 107 24 114 -8 q 97 86 100 56 q 94 132 94 117 q 109 286 94 207 q 144 441 124 365 q 185 582 165 517 q 162 553 176 575 q 134 511 147 531 q 115 490 121 492 l 115 496 q 126 522 115 497 q 153 584 136 547 q 188 657 169 621 q 221 717 206 693 q 243 742 236 742 q 268 735 250 742 q 302 719 286 729 q 318 700 318 710 q 317 693 318 694 q 276 593 299 654 q 231 458 254 532 q 190 309 208 385 q 159 165 171 233 q 147 44 147 96 q 153 10 147 33 q 160 -42 160 -14 q 154 -53 160 -53 z "},"2":{"ha":550,"x_min":32,"x_max":621,"o":"m 86 -67 q 53 -49 72 -67 q 32 -24 35 -31 q 174 108 101 32 q 313 272 246 183 q 432 451 379 360 q 515 629 485 543 q 518 642 517 635 q 519 654 519 649 q 501 672 519 672 q 490 671 496 672 q 478 668 483 669 q 426 644 461 663 q 347 597 390 625 q 263 538 303 569 q 196 478 222 507 q 169 426 169 449 q 176 414 169 417 q 183 400 183 411 q 174 394 183 394 q 135 417 154 394 q 115 451 115 439 q 144 508 115 475 q 222 578 174 542 q 326 644 269 614 q 438 694 382 675 q 536 714 493 714 q 592 699 569 714 q 619 653 614 685 q 620 647 619 650 q 621 640 621 643 q 595 553 621 606 q 528 442 569 501 q 435 322 486 382 q 333 207 385 261 q 238 112 282 153 q 167 51 194 71 q 269 100 215 76 q 377 139 324 124 q 474 154 431 154 q 521 145 501 154 q 544 108 540 136 q 539 78 544 99 q 526 54 533 57 q 521 63 521 54 q 517 78 521 71 q 493 86 513 86 q 419 73 465 86 q 320 39 374 60 q 218 -3 267 18 q 135 -42 169 -25 q 93 -64 100 -58 q 86 -67 88 -67 z "},"3":{"ha":614,"x_min":79,"x_max":569,"o":"m 261 -40 q 172 -12 214 -40 q 105 65 131 15 q 79 181 79 114 q 83 211 79 199 q 97 224 88 224 q 109 213 108 224 q 110 203 110 201 q 107 178 110 192 q 104 150 104 165 q 124 84 104 108 q 173 49 144 60 q 226 39 201 39 q 301 53 257 39 q 374 89 346 67 q 428 141 397 108 q 481 214 458 174 q 504 293 504 254 q 487 341 504 325 q 443 363 469 357 q 390 368 417 368 q 320 362 351 368 q 258 340 289 356 q 254 339 257 339 q 235 353 244 339 q 217 383 225 367 q 201 407 208 399 q 308 444 257 414 q 406 506 358 474 q 445 533 418 514 q 494 577 472 553 q 517 624 517 601 q 490 651 517 644 q 429 658 463 658 q 392 657 408 658 q 368 654 375 656 q 328 647 354 653 q 274 629 301 640 q 227 602 246 618 q 208 563 208 586 q 211 549 208 556 q 214 535 214 542 q 207 526 214 526 q 194 540 203 526 q 178 570 185 554 q 169 594 171 586 q 168 607 168 599 q 192 661 168 640 q 249 693 215 682 q 317 708 283 704 q 370 713 350 713 q 386 714 390 714 q 460 707 421 714 q 529 681 499 700 q 568 625 560 663 q 569 616 569 621 q 569 607 569 611 q 544 531 569 568 q 482 467 518 494 q 417 424 446 439 q 484 384 451 414 q 538 315 517 354 q 560 239 560 276 q 529 130 560 181 q 451 41 499 79 q 353 -19 404 3 q 261 -40 303 -40 z "},"4":{"ha":560,"x_min":6,"x_max":567,"o":"m 379 -71 q 344 -47 357 -71 q 326 8 332 -24 q 319 67 321 40 q 318 101 318 94 q 326 186 318 146 q 343 272 333 226 q 332 274 338 274 q 322 274 326 274 q 216 259 271 274 q 113 229 161 244 q 93 223 110 229 q 60 211 76 217 q 42 206 43 206 q 28 218 36 206 q 13 245 19 231 q 6 268 7 260 q 29 335 6 294 q 92 424 53 376 q 177 519 132 471 q 267 608 222 567 q 347 676 313 649 q 399 707 382 703 q 412 709 406 708 q 424 710 418 710 q 444 700 440 710 q 438 694 444 699 q 404 670 425 690 q 360 623 383 650 q 317 570 338 596 q 282 529 296 544 q 180 415 231 474 q 75 300 129 356 q 197 329 133 318 q 322 340 260 340 q 341 340 332 340 q 360 339 350 339 l 457 721 q 471 739 461 739 q 496 719 483 739 q 517 678 508 700 q 526 649 526 657 q 513 585 524 628 q 487 492 501 542 q 460 397 472 442 q 440 328 447 353 q 485 314 456 325 q 540 285 514 303 q 567 246 565 268 q 551 204 567 228 q 517 181 535 181 q 510 190 513 181 q 521 224 510 206 q 532 258 532 243 q 511 272 532 268 q 468 278 490 276 q 442 279 446 279 l 431 278 q 414 219 424 258 q 394 133 404 179 q 378 46 385 88 q 372 -21 372 4 q 382 -48 372 -40 q 392 -64 392 -56 q 386 -69 392 -68 q 379 -71 381 -71 z "},"5":{"ha":524,"x_min":14,"x_max":551,"o":"m 151 -86 q 97 -73 129 -86 q 39 -32 64 -60 q 14 36 14 -4 q 17 63 14 46 q 27 93 21 79 q 40 107 33 107 q 41 106 40 107 q 42 104 42 106 q 41 94 42 99 q 40 83 40 89 q 65 -7 40 24 q 129 -37 90 -37 q 256 25 189 -37 q 303 78 275 43 q 357 160 331 114 q 401 257 383 207 q 419 354 419 307 q 399 429 419 407 q 346 451 378 451 q 276 432 314 451 q 208 381 239 413 q 163 311 176 349 q 144 333 157 311 q 132 367 132 354 q 140 397 132 367 q 159 470 147 426 q 183 560 171 514 q 204 640 194 606 q 217 682 214 674 q 222 695 219 689 q 229 701 224 701 q 271 693 253 701 q 328 685 289 685 q 431 687 385 685 q 525 704 478 689 q 544 708 536 708 q 551 704 551 708 q 547 693 551 700 q 540 683 543 686 q 447 612 506 633 q 339 590 388 590 q 310 594 331 590 q 270 602 289 597 q 244 613 251 607 l 204 457 q 263 481 232 472 q 325 489 294 489 q 397 469 360 489 q 461 411 433 450 q 493 314 489 372 q 468 178 493 249 q 397 49 443 108 q 289 -49 351 -11 q 151 -86 226 -86 z "},"6":{"ha":554,"x_min":49,"x_max":535,"o":"m 189 -32 q 85 17 121 -32 q 49 150 49 67 q 68 259 49 197 q 120 387 88 321 q 194 515 153 453 q 281 628 236 578 q 372 709 326 679 q 454 739 417 739 q 485 730 467 739 q 519 706 504 721 q 535 672 533 690 q 534 666 535 671 q 531 661 533 661 q 517 675 521 665 q 497 685 514 685 q 450 669 476 685 q 398 630 424 653 q 351 586 372 607 q 292 518 326 561 q 222 422 258 475 q 156 313 186 369 q 106 201 125 256 q 86 101 86 146 q 101 39 86 61 q 150 17 115 17 q 213 38 176 17 q 288 92 249 58 q 362 166 328 126 q 417 244 396 206 q 438 313 438 283 q 426 346 438 336 q 399 356 414 356 q 348 338 382 356 q 276 292 314 319 q 210 232 239 264 q 175 172 182 200 q 172 163 175 171 q 167 154 169 154 q 161 167 161 154 q 161 179 161 179 q 182 259 161 221 q 235 326 203 297 q 304 373 268 356 q 372 390 340 390 q 433 375 403 390 q 482 331 463 360 q 501 260 501 303 q 469 149 501 201 q 387 55 436 96 q 284 -9 338 14 q 189 -32 231 -32 z "},"7":{"ha":488,"x_min":103,"x_max":572,"o":"m 233 -57 q 187 -25 200 -57 q 174 42 174 7 q 182 120 174 79 q 202 199 190 161 q 224 263 214 238 q 296 420 254 343 q 381 556 338 497 q 457 643 425 615 l 442 643 q 399 640 435 643 q 313 628 363 638 q 217 601 264 619 q 143 550 171 582 q 131 521 133 539 q 129 490 129 503 q 125 475 129 476 q 106 505 110 475 q 103 576 103 535 q 103 601 103 590 q 106 618 104 613 q 199 668 144 646 q 310 703 253 690 q 411 717 367 717 q 476 703 440 717 q 540 665 511 689 q 572 613 568 642 l 572 606 q 501 542 536 575 q 436 471 467 508 q 396 416 422 453 q 338 330 369 379 q 279 226 307 281 q 233 122 251 172 q 215 32 215 72 q 231 -17 215 1 q 247 -46 247 -36 q 233 -57 247 -57 z "},"8":{"ha":564,"x_min":38,"x_max":569,"o":"m 207 -24 q 138 -12 178 -24 q 67 24 97 -1 q 38 90 38 50 q 59 165 38 128 q 112 234 81 201 q 174 295 143 267 q 225 346 206 324 q 169 419 194 378 q 143 504 143 461 q 167 575 143 542 q 231 635 192 608 q 313 683 269 663 q 394 713 356 703 q 457 724 433 724 q 502 715 476 724 q 535 686 528 707 q 543 708 539 697 q 550 731 547 719 q 557 747 551 747 q 567 732 564 747 q 569 706 569 717 q 539 604 569 653 q 463 511 508 556 q 371 427 418 467 q 290 354 324 388 q 349 296 318 328 q 401 226 379 264 q 422 143 422 189 q 391 53 422 90 q 310 -4 360 15 q 207 -24 261 -24 m 261 382 q 358 473 307 431 q 453 562 408 515 q 526 667 499 608 q 518 669 522 667 q 511 671 514 671 q 432 653 479 671 q 338 606 385 636 q 258 539 290 576 q 226 463 226 501 q 261 382 226 421 m 153 28 q 201 33 176 28 q 238 43 226 38 q 316 101 281 65 q 351 181 351 136 q 341 218 351 196 q 315 263 331 240 q 285 301 300 286 q 258 317 269 317 q 210 274 238 304 q 158 203 183 243 q 115 125 132 164 q 97 57 97 86 q 114 34 97 40 q 153 28 131 28 z "},"9":{"ha":496,"x_min":42,"x_max":485,"o":"m 357 -60 q 315 -38 331 -60 q 294 15 300 -17 q 289 75 289 46 q 303 211 289 136 q 339 359 318 286 q 381 482 360 432 q 328 414 358 450 q 265 346 299 378 q 196 294 231 314 q 132 274 161 274 q 72 302 101 274 q 42 399 42 331 q 67 495 42 444 q 132 594 92 546 q 216 678 172 642 q 297 728 260 714 q 315 732 306 732 q 357 718 336 732 q 392 684 378 704 q 406 646 406 664 q 400 624 406 636 q 383 608 394 613 q 372 635 376 619 q 360 663 367 651 q 338 675 353 675 q 288 651 317 675 q 227 590 258 628 q 169 506 196 551 q 124 417 142 461 q 107 339 107 374 q 125 304 107 304 q 170 324 142 304 q 231 373 199 343 q 294 434 264 403 q 344 490 324 465 q 369 521 365 514 q 390 556 378 535 q 415 593 403 576 q 436 610 428 610 q 466 603 449 610 q 485 590 483 597 q 471 541 485 585 q 438 431 457 497 q 398 289 418 364 q 364 144 378 214 q 350 26 350 75 q 356 -17 350 3 q 379 -36 361 -36 q 387 -35 382 -36 q 394 -33 392 -33 q 400 -37 400 -33 q 384 -53 400 -47 q 357 -60 368 -60 z "},"\r":{"ha":381,"x_min":0,"x_max":0,"o":""}," ":{"ha":347,"x_min":0,"x_max":0,"o":""}," ":{"ha":347,"x_min":0,"x_max":0,"o":""},"A":{"ha":715,"x_min":-125,"x_max":789,"o":"m -118 -125 q -125 -121 -125 -125 q -121 -114 -125 -118 q -1 24 -64 -53 q 128 186 63 101 q 33 228 71 204 q -4 286 -4 251 q 8 303 -4 301 q 33 306 19 306 q 109 294 69 306 q 189 268 149 283 q 407 579 306 425 q 383 828 390 714 q 376 1004 376 942 q 376 1033 376 1021 q 378 1053 376 1046 q 385 1107 382 1086 q 413 1128 388 1128 q 444 1125 426 1128 q 475 1115 461 1122 q 481 1117 476 1117 q 483 1116 482 1117 q 485 1115 483 1115 q 557 1053 528 1094 q 586 944 586 1013 q 564 821 586 892 q 492 657 542 750 q 500 433 492 543 q 525 231 508 324 q 532 193 528 211 q 539 158 536 175 q 605 168 567 161 q 681 188 643 175 q 744 221 718 201 q 769 265 769 240 q 774 272 769 272 q 783 262 778 272 q 789 235 789 251 q 611 144 789 171 q 575 135 593 142 q 549 117 557 128 q 588 4 568 44 q 625 -68 607 -36 q 617 -72 625 -72 q 590 -64 607 -72 q 563 -37 574 -56 q 543 2 553 -18 q 524 44 533 22 q 462 117 488 97 q 429 139 436 138 q 392 142 432 139 q 292 153 353 144 q 171 175 232 161 q -2 -42 74 42 q -118 -125 -78 -125 m 492 721 q 547 847 531 794 q 563 939 563 900 q 547 1008 563 981 q 507 1054 531 1036 q 497 893 501 978 q 492 721 492 808 m 486 161 q 444 342 463 247 q 414 529 426 436 q 318 386 365 456 q 226 253 271 317 q 356 199 290 226 q 486 161 422 171 z "},"B":{"ha":867,"x_min":15,"x_max":968,"o":"m 214 -193 q 185 -176 200 -192 q 160 -140 169 -160 q 150 -112 150 -121 q 231 -12 150 -74 q 461 107 313 49 q 628 172 556 143 q 756 224 700 201 q 763 248 760 236 q 765 271 765 260 q 730 356 765 318 q 636 425 694 394 q 505 480 578 456 q 357 522 432 504 q 214 553 282 540 q 206 548 211 551 q 193 542 200 544 q 183 416 186 479 q 179 294 179 353 q 181 211 179 251 q 186 135 183 171 q 199 176 193 154 q 206 197 204 197 q 208 176 208 197 q 207 108 208 153 q 206 31 206 63 q 207 1 206 4 q 203 0 207 0 q 173 6 194 0 q 133 21 151 11 q 113 44 115 31 q 104 169 104 93 q 112 338 104 246 q 129 524 119 431 q 97 519 111 519 q 76 524 96 519 q 39 539 57 529 q 21 563 21 549 q 54 587 21 571 q 139 610 88 603 q 158 744 149 682 q 176 853 168 807 q 156 836 164 836 q 153 842 153 836 q 154 850 153 847 q 169 883 158 861 q 191 928 179 906 q 215 967 203 951 q 236 983 228 983 q 277 966 257 983 q 297 935 297 949 l 297 931 q 240 790 263 872 q 203 615 217 707 q 217 614 210 615 q 233 613 225 613 l 251 613 q 276 612 263 613 q 304 610 290 611 q 408 643 353 624 q 510 689 463 663 q 589 747 558 715 q 619 817 619 779 q 590 864 619 839 q 515 914 561 889 q 416 960 469 939 q 313 998 363 982 q 231 1021 264 1014 q 68 1040 133 1040 q 44 1040 54 1040 q 25 1038 33 1039 q 15 1047 15 1042 q 46 1071 15 1058 q 124 1092 76 1083 q 218 1100 171 1100 q 256 1099 238 1100 q 289 1093 274 1097 q 392 1063 336 1082 q 503 1017 447 1043 q 605 960 558 990 q 679 898 651 931 q 707 833 707 865 q 665 764 707 796 q 542 674 608 721 q 389 597 475 628 q 504 566 442 586 q 628 517 567 546 q 741 451 690 488 q 822 371 792 414 q 853 279 853 328 q 851 264 853 268 q 938 300 913 289 q 965 311 963 311 q 968 310 968 311 q 933 271 968 293 q 843 222 899 249 q 770 104 824 163 q 644 -6 717 46 q 492 -99 571 -58 q 340 -165 413 -140 q 214 -193 267 -190 m 204 -114 q 329 -78 275 -96 q 431 -39 383 -60 q 524 11 478 -18 q 624 79 569 40 q 681 126 657 103 q 724 171 706 149 q 592 119 660 144 q 468 71 525 93 q 387 31 432 57 q 300 -24 342 4 q 231 -77 258 -53 q 204 -114 204 -101 z "},"C":{"ha":1215,"x_min":29,"x_max":1289,"o":"m 371 -169 q 116 -91 203 -169 q 29 128 29 -12 q 66 324 29 222 q 170 524 103 426 q 331 702 238 621 q 540 838 425 783 q 786 907 656 892 q 804 908 794 908 q 824 908 814 908 q 887 904 856 908 q 933 893 918 900 q 951 926 940 901 q 974 980 963 951 q 994 1029 986 1008 q 1001 1050 1001 1050 q 1017 1039 1008 1050 q 1026 1008 1026 1028 q 1016 979 1026 1006 q 991 923 1006 953 q 963 882 976 893 q 974 865 974 876 q 946 814 974 846 q 881 749 918 782 q 809 690 843 715 q 763 656 775 664 q 724 635 732 635 q 721 638 721 635 q 735 656 721 638 q 771 703 749 675 q 817 762 793 732 q 863 815 842 792 q 828 821 851 821 q 652 790 742 821 q 477 706 563 760 q 317 583 392 653 q 185 435 242 514 q 96 276 128 357 q 64 121 64 196 q 138 -28 64 15 q 338 -71 213 -71 q 536 -51 429 -71 q 753 0 643 -32 q 963 70 863 32 q 1144 148 1064 108 q 1269 221 1224 188 q 1283 228 1276 228 q 1289 222 1289 228 q 1283 211 1289 217 q 1135 90 1219 149 q 938 -22 1051 31 q 669 -119 825 -75 q 371 -169 499 -169 z "},"D":{"ha":954,"x_min":-7,"x_max":968,"o":"m 214 -193 q 185 -176 200 -192 q 160 -140 169 -160 q 150 -112 150 -121 q 231 -12 150 -74 q 461 107 313 50 l 751 218 q 792 317 779 267 q 806 418 806 368 q 745 640 806 542 q 585 808 685 739 q 365 907 485 876 q 276 707 315 817 q 208 482 236 597 q 165 258 181 367 q 150 61 150 150 q 153 -12 150 18 q 160 -69 156 -42 q 158 -71 160 -71 q 131 -47 142 -71 q 116 13 121 -22 q 111 82 111 49 q 130 304 111 186 q 178 539 149 422 q 240 756 208 656 q 297 922 272 856 q 241 929 269 926 q 185 932 213 932 q 76 924 125 932 q 3 910 26 917 q -7 918 -7 911 q 35 950 -7 931 q 133 983 78 969 q 281 1003 207 1003 q 306 1002 293 1003 q 331 1000 318 1001 q 335 1009 333 1006 q 339 1015 338 1013 q 364 1038 351 1038 q 376 1025 372 1038 q 382 994 381 1013 q 582 929 486 978 q 753 808 678 881 q 872 646 828 736 q 915 456 915 556 q 905 360 915 408 q 871 263 894 311 q 938 287 921 278 q 964 296 954 296 q 968 293 968 296 q 956 281 968 290 q 926 260 943 271 q 897 244 910 250 l 851 225 q 793 138 826 182 q 715 51 760 93 q 594 -44 661 0 q 456 -119 526 -87 q 323 -171 386 -151 q 214 -193 260 -190 m 204 -114 q 330 -77 275 -94 q 431 -39 385 -60 q 524 10 478 -18 q 624 79 569 39 q 719 171 681 121 q 597 122 660 147 q 468 71 533 96 q 387 31 432 57 q 300 -24 342 6 q 231 -77 258 -53 q 204 -114 204 -101 z "},"E":{"ha":733,"x_min":-14,"x_max":906,"o":"m 488 -150 q 370 -142 436 -150 q 237 -117 304 -133 q 113 -75 169 -100 q 21 -16 56 -50 q -14 60 -14 18 q 26 149 -14 103 q 119 258 74 203 q 217 365 164 314 q 338 456 269 415 q 169 590 233 510 q 106 747 106 669 q 147 857 106 807 q 256 945 188 907 q 406 1009 324 983 q 574 1049 489 1035 q 732 1063 660 1063 q 803 1060 769 1063 q 861 1050 836 1057 q 884 1026 874 1047 q 900 981 894 1004 q 906 946 906 957 l 906 940 q 844 899 889 917 q 739 867 800 881 q 610 844 678 854 q 476 829 542 835 q 358 821 411 824 q 276 818 306 818 q 237 822 246 818 q 228 829 228 825 q 272 842 228 838 q 389 851 317 846 q 544 869 461 857 q 708 905 628 881 q 846 972 788 929 q 781 975 811 975 q 724 975 751 975 q 611 969 663 975 q 506 951 560 964 q 388 917 453 939 q 201 821 253 872 q 149 713 149 769 q 178 625 149 669 q 256 542 207 581 q 365 474 306 503 q 420 499 383 483 q 497 530 457 514 q 569 556 538 546 q 607 567 600 567 q 644 547 631 567 q 657 506 657 528 q 633 468 657 483 q 574 443 610 453 q 499 429 538 433 q 429 425 460 425 q 263 340 342 388 q 135 236 185 292 q 86 118 86 181 q 126 33 86 68 q 231 -22 165 -1 q 376 -53 297 -43 q 535 -62 456 -62 q 674 -53 613 -62 q 757 -29 736 -43 q 769 -37 769 -31 q 748 -62 769 -44 q 688 -101 726 -81 q 599 -135 650 -121 q 488 -150 547 -150 z "},"F":{"ha":833,"x_min":6,"x_max":1075,"o":"m 344 -83 q 336 4 344 -51 q 308 123 328 60 q 256 242 289 186 q 199 293 236 274 q 119 322 163 313 q 33 331 75 331 l 10 331 q 6 336 6 331 q 15 371 6 349 q 38 413 25 393 q 58 433 50 432 q 212 452 133 444 q 368 465 290 460 q 380 660 371 556 q 399 854 389 765 q 242 804 321 832 q 83 743 163 776 l 82 743 q 76 757 76 743 q 83 797 76 772 q 98 841 89 821 q 115 863 107 861 q 256 899 182 882 q 407 931 331 917 l 421 1021 q 402 986 411 1004 q 390 968 393 968 q 389 972 389 968 q 390 988 389 976 q 396 1017 392 999 q 408 1060 399 1032 q 428 1117 417 1088 q 451 1166 439 1146 q 474 1186 464 1186 q 520 1165 497 1186 q 543 1125 543 1143 l 543 1121 q 519 1044 531 1090 q 499 946 508 999 q 665 964 583 957 q 824 971 747 971 q 903 969 860 971 q 985 962 946 967 q 1050 950 1025 957 q 1075 932 1075 943 q 1058 925 1075 925 q 983 931 1019 925 q 907 936 946 936 q 488 879 719 936 q 467 731 476 807 q 451 588 458 656 q 440 469 444 519 q 535 474 489 472 q 625 475 582 475 q 746 472 686 475 q 846 463 806 469 q 886 446 886 457 q 881 438 886 442 q 871 435 876 435 q 810 439 842 435 q 744 443 778 443 q 599 435 676 443 q 436 414 522 428 q 420 215 428 317 q 410 39 413 113 q 395 -36 408 -4 q 344 -83 382 -68 m 364 50 q 362 106 363 76 q 361 169 361 136 q 363 281 361 222 q 367 403 364 340 q 269 385 319 394 q 167 364 219 375 q 249 309 213 344 q 313 213 285 274 q 364 50 342 151 z "},"G":{"ha":765,"x_min":-22,"x_max":906,"o":"m 410 -510 q 354 -486 379 -510 q 329 -444 329 -462 q 330 -439 329 -442 q 332 -433 331 -436 q 333 -431 332 -431 l 332 -431 q 314 -425 321 -431 q 240 -340 263 -389 q 218 -232 218 -292 q 254 -55 218 -150 q 349 138 290 40 q 478 326 408 236 q 618 490 549 417 q 619 508 619 500 q 619 526 619 517 q 614 635 619 588 q 600 718 608 683 q 531 625 558 668 q 477 537 503 582 q 415 432 451 492 q 369 362 397 403 q 306 281 340 321 q 232 215 271 242 q 151 189 193 189 q 63 215 103 189 q 1 283 24 240 q -22 378 -22 326 q 38 603 -22 493 q 194 803 99 713 l 153 803 q 118 807 128 803 q 108 815 108 811 q 119 825 108 821 q 144 829 131 829 q 176 830 156 829 q 226 832 197 831 q 400 956 307 903 q 587 1038 493 1008 q 763 1067 681 1067 q 815 1062 790 1067 q 861 1050 839 1057 q 884 1025 874 1046 q 900 981 894 1004 q 906 946 906 958 l 906 940 q 845 900 890 918 q 735 867 800 882 q 597 842 671 853 q 449 823 524 831 q 311 810 375 815 q 183 672 239 747 q 97 519 128 597 q 65 368 65 442 q 85 297 65 325 q 147 269 104 269 q 222 285 185 269 q 285 332 258 301 q 370 440 326 378 q 454 571 414 503 q 525 703 494 639 q 569 817 556 767 q 576 819 569 819 q 609 813 588 819 q 649 794 631 807 q 669 763 667 782 q 678 690 675 728 q 681 608 681 651 q 680 581 681 594 q 679 553 679 568 q 822 668 767 638 q 849 675 839 675 q 861 667 861 675 q 857 658 861 663 q 767 588 813 626 q 676 504 721 549 q 647 264 668 388 q 599 23 626 140 q 543 -192 571 -94 q 493 -356 515 -290 q 460 -443 471 -422 q 437 -490 444 -469 q 410 -510 429 -510 m 350 842 q 503 860 424 849 q 656 888 583 872 q 779 925 728 904 q 846 972 831 946 q 743 993 803 993 q 539 951 640 993 q 350 842 438 910 m 350 -393 q 435 -194 393 -300 q 515 20 478 -89 q 578 236 553 129 q 614 439 604 343 q 481 277 543 363 q 372 106 419 192 q 297 -62 324 19 q 269 -214 269 -143 q 288 -315 269 -269 q 350 -393 307 -361 z "},"H":{"ha":842,"x_min":-151,"x_max":790,"o":"m 751 -156 q 722 -149 742 -156 q 684 -131 701 -143 q 663 -103 667 -119 q 641 33 651 -47 q 624 210 631 114 q 618 406 618 306 l 618 458 q 403 446 517 457 q 179 414 290 435 q 177 349 178 381 q 176 285 176 317 q 178 195 176 239 q 183 114 181 151 q 196 158 190 135 q 203 182 201 182 q 206 160 206 182 q 205 113 206 142 q 203 53 204 83 q 203 -1 203 22 q 203 -22 203 -12 q 204 -33 203 -31 q 199 -35 204 -35 q 169 -28 190 -35 q 131 -11 149 -22 q 110 14 113 0 q 101 151 101 68 q 104 271 101 207 q 113 401 107 335 q 28 382 69 393 q -51 360 -12 371 q -53 359 -53 360 q -53 358 -53 358 l -17 358 q -4 358 -10 358 q 1 357 1 357 q -19 351 1 356 q -67 342 -39 347 q -117 333 -94 338 q -147 326 -140 329 l -149 326 q -151 336 -151 326 q -147 374 -151 350 q -135 416 -142 397 q -122 436 -128 435 q -12 460 -74 450 q 119 478 50 471 q 146 715 131 601 q 175 903 161 829 q 147 869 160 883 q 129 856 133 856 l 129 860 q 147 903 135 872 q 176 966 160 933 q 207 1022 192 999 q 231 1046 222 1046 q 272 1028 249 1046 q 296 993 296 1011 l 296 989 q 242 848 264 929 q 205 673 219 767 q 183 483 190 579 q 342 493 261 490 q 497 496 422 496 q 560 496 529 496 q 619 494 592 496 q 642 755 626 631 q 667 960 658 879 q 648 925 657 943 q 636 907 639 907 q 635 911 635 907 q 636 926 635 915 q 642 956 638 938 q 653 999 644 971 q 674 1056 663 1026 q 697 1105 685 1085 q 719 1125 710 1125 q 767 1106 743 1125 q 790 1069 790 1086 l 790 1065 q 743 906 763 999 q 715 706 724 813 q 704 489 706 600 q 758 480 738 486 q 779 464 779 474 q 769 454 779 454 q 738 455 754 454 q 704 457 721 456 q 710 228 704 340 q 728 25 717 117 q 736 82 733 53 q 740 111 739 111 q 744 88 743 111 q 748 28 746 64 q 751 -47 750 -8 q 754 -114 753 -85 q 758 -153 756 -143 q 751 -156 758 -156 z "},"I":{"ha":538,"x_min":-236,"x_max":765,"o":"m 38 -162 q -47 -138 -17 -162 q -87 -100 -76 -114 l -187 -106 q -206 -90 -194 -106 q -227 -55 -218 -74 q -236 -29 -236 -36 q -233 -26 -236 -26 q -147 -31 -192 -29 q -56 -32 -103 -32 q 51 -30 -3 -32 q 161 -25 106 -28 q 228 152 199 46 q 281 384 258 258 q 320 640 304 510 q 344 890 336 771 q 183 842 258 871 q 54 779 107 813 l 53 779 q 50 789 50 779 q 53 819 50 801 q 62 852 57 838 q 71 868 67 867 q 192 907 119 889 q 347 938 265 925 l 351 992 q 376 1017 353 1008 q 424 1025 399 1025 q 460 1016 451 1025 q 469 988 469 1007 q 468 971 469 979 q 465 951 467 963 q 572 956 519 956 q 658 951 613 956 q 734 940 703 947 q 765 924 765 933 q 763 922 765 922 q 697 924 732 924 q 624 925 661 925 q 543 922 585 925 q 461 913 501 918 q 437 744 451 836 q 403 559 422 653 q 366 382 385 465 q 329 238 347 299 q 306 166 321 210 q 271 74 292 122 q 222 -19 250 25 q 433 6 332 -10 q 613 46 535 22 l 617 46 q 624 43 624 46 q 588 21 624 33 q 490 -6 551 8 q 351 -36 428 -21 q 192 -64 274 -51 q 121 -135 160 -107 q 38 -162 82 -162 m 40 -131 q 131 -72 88 -131 q 33 -86 81 -79 q -60 -97 -15 -93 q -19 -119 -43 -107 q 40 -131 6 -131 z "},"J":{"ha":597,"x_min":-6,"x_max":765,"o":"m 53 779 q 50 789 50 779 q 53 819 50 801 q 62 852 57 838 q 71 868 67 867 q 209 912 125 892 q 389 944 293 932 q 572 956 485 956 q 658 951 613 956 q 734 940 703 947 q 765 924 765 933 q 763 922 765 922 q 697 924 732 924 q 624 925 661 925 q 413 905 521 925 q 211 852 306 885 q 54 779 117 819 l 53 779 m 181 -508 q 131 -483 153 -501 q 108 -444 108 -464 q 109 -439 108 -442 q 111 -433 110 -436 q 113 -431 111 -431 l 111 -431 q 93 -425 100 -431 q 18 -340 42 -389 q -6 -235 -6 -292 q 25 -84 -6 -164 q 108 77 56 -4 q 228 235 161 158 q 367 379 294 313 q 375 478 372 429 q 378 575 378 528 q 369 730 378 657 q 343 860 361 803 q 368 867 343 867 q 419 857 392 867 q 450 821 446 847 q 458 748 456 786 q 461 669 461 710 q 458 560 461 617 q 447 447 454 504 q 569 531 510 496 q 678 583 628 567 q 688 585 683 585 q 696 586 692 586 q 714 576 714 586 q 707 567 714 572 q 572 495 639 538 q 442 401 504 453 q 399 148 425 275 q 343 -92 372 21 q 289 -293 314 -206 q 260 -392 272 -353 q 231 -459 249 -432 q 181 -508 214 -486 m 129 -393 q 279 -17 208 -218 q 328 152 307 64 q 360 329 349 240 q 200 147 271 243 q 89 -44 129 50 q 49 -221 49 -139 q 68 -317 49 -272 q 129 -393 88 -361 z "},"K":{"ha":758,"x_min":71,"x_max":736,"o":"m 204 -156 q 174 -149 194 -156 q 137 -131 154 -143 q 115 -103 119 -119 q 94 33 104 -47 q 77 210 83 114 q 71 406 71 306 q 81 616 71 513 q 102 809 90 719 q 119 960 114 899 q 101 925 110 943 q 89 907 92 907 q 88 911 88 907 q 89 926 88 915 q 94 956 90 938 q 106 999 97 971 q 126 1056 115 1026 q 150 1105 138 1085 q 172 1125 163 1125 q 219 1106 196 1125 q 243 1069 243 1086 l 243 1065 q 194 902 214 997 q 166 697 175 807 q 157 474 157 588 q 163 236 157 353 q 181 25 169 119 q 189 82 186 53 q 193 111 192 111 q 197 88 196 111 q 201 28 199 64 q 204 -47 203 -8 q 207 -114 206 -85 q 211 -153 208 -143 q 204 -156 211 -156 m 729 165 q 724 167 725 165 q 623 203 689 181 q 483 249 557 226 q 401 269 457 256 q 286 292 346 282 l 275 282 q 235 268 261 268 q 196 275 213 268 q 172 292 179 282 q 167 301 169 297 q 165 315 165 306 q 181 342 165 328 q 219 357 197 357 l 224 357 q 231 356 228 357 q 239 354 235 354 q 317 430 279 389 q 388 508 356 471 q 436 564 419 544 q 492 643 463 600 q 549 725 522 686 q 593 789 575 764 q 615 814 611 814 q 624 804 624 814 q 621 793 624 801 q 492 549 564 665 q 329 336 421 433 q 724 182 535 288 q 736 169 736 176 q 729 165 736 165 z "},"L":{"ha":583,"x_min":-171,"x_max":871,"o":"m 768 -206 q 647 -186 728 -206 q 463 -135 567 -167 q 249 -65 358 -103 q 173 -145 214 -112 q 83 -178 132 -178 q 13 -162 40 -178 q -30 -129 -15 -146 q -47 -108 -44 -112 q -50 -103 -50 -106 q -42 -96 -50 -96 q -19 -108 -35 -96 q 22 -133 -4 -121 q 86 -146 49 -146 q 147 -120 118 -146 q 201 -50 175 -94 l 10 19 q 8 8 8 15 q -1 0 7 0 q -14 4 -6 0 q -76 32 -39 17 q -142 61 -114 47 q -171 82 -171 75 q -160 113 -169 93 q -136 149 -150 133 q -110 165 -122 165 q -106 165 -107 165 q -103 164 -104 164 q 66 91 -19 128 q 235 19 151 54 q 313 276 279 126 q 213 203 257 231 q 149 176 168 176 q 139 181 139 176 q 142 186 139 183 q 231 250 183 213 q 325 332 278 288 q 375 626 356 472 q 404 914 394 779 q 391 901 401 914 q 369 872 381 889 q 348 842 357 854 q 338 829 339 829 q 336 833 336 829 q 344 867 336 849 q 362 906 350 879 q 388 964 374 933 q 418 1015 403 994 q 446 1036 433 1036 q 494 1020 467 1036 q 522 972 522 1004 q 521 940 522 958 q 517 896 519 921 q 497 764 510 839 q 470 608 485 689 q 439 449 456 526 q 542 582 496 514 q 616 714 589 650 q 643 829 643 778 q 623 901 643 869 q 558 950 603 932 q 526 978 526 961 q 539 985 526 985 q 566 979 549 985 q 610 960 583 974 q 685 895 663 933 q 708 813 708 857 q 667 672 708 749 q 560 517 625 596 q 422 371 494 439 q 404 299 413 333 q 388 238 396 265 q 351 131 376 199 q 288 -3 325 64 q 496 -85 399 -49 q 669 -144 593 -122 q 789 -167 744 -167 q 814 -164 804 -167 q 824 -150 824 -161 q 807 -106 824 -133 q 770 -56 790 -79 q 742 -28 750 -33 q 728 -14 728 -19 q 735 -11 728 -11 q 754 -15 742 -11 q 842 -67 814 -36 q 871 -131 871 -99 q 840 -190 871 -174 q 768 -206 810 -206 z "},"M":{"ha":925,"x_min":92,"x_max":942,"o":"m 199 -35 q 169 -28 190 -35 q 131 -11 149 -22 q 110 14 113 0 q 99 110 103 56 q 96 228 96 165 q 103 426 96 324 q 120 621 110 529 q 143 772 131 713 q 115 745 131 760 q 96 731 100 731 q 92 738 92 731 q 106 774 92 744 q 139 840 119 804 q 174 901 158 875 q 193 928 189 928 q 218 919 201 928 q 249 897 235 910 q 264 874 264 885 l 264 872 q 209 733 229 814 q 181 558 189 651 q 174 367 174 464 q 176 260 174 313 q 181 157 178 207 q 197 267 185 199 q 224 413 208 335 q 257 570 240 492 q 289 713 274 649 q 313 813 304 776 q 347 934 332 892 q 372 992 361 976 q 390 1008 383 1008 q 408 995 392 1008 q 439 963 424 982 q 454 922 454 943 q 453 919 454 921 q 453 914 453 917 q 447 861 451 903 q 439 762 443 819 q 432 645 435 704 q 429 540 429 586 q 433 440 429 499 q 443 322 436 382 q 458 215 450 263 q 475 149 467 168 q 483 192 475 157 q 503 281 490 228 q 530 394 515 333 q 559 514 544 456 q 585 618 574 572 q 601 688 596 664 q 625 765 614 740 q 654 790 636 790 q 706 758 682 790 q 731 683 731 726 q 730 655 731 669 q 729 625 729 640 q 735 503 729 569 q 750 376 740 436 q 774 276 760 315 q 807 238 789 238 q 872 314 831 238 q 895 363 882 331 q 921 422 908 396 q 938 449 933 449 q 942 432 942 449 q 933 388 942 414 q 915 337 925 361 q 899 300 904 313 q 822 185 857 218 q 758 151 786 151 q 707 179 731 151 q 677 249 689 200 q 657 357 665 297 q 642 472 649 417 q 631 563 636 526 q 618 599 625 599 q 603 565 613 599 q 582 476 593 531 q 560 358 571 421 q 541 238 550 296 q 526 138 532 179 q 521 86 521 97 q 506 50 521 60 q 465 40 490 40 q 453 40 460 40 q 439 42 446 40 q 403 92 419 43 q 374 217 388 140 q 352 384 361 294 q 338 560 343 474 q 329 713 332 647 q 276 528 300 628 q 237 329 253 429 q 212 139 221 229 q 203 -19 203 49 q 204 -33 203 -31 q 199 -35 204 -35 z "},"N":{"ha":653,"x_min":32,"x_max":738,"o":"m 217 -31 q 188 -24 208 -31 q 149 -7 167 -18 q 128 18 131 4 q 112 151 119 75 q 99 310 104 226 q 94 475 94 394 q 100 625 94 554 q 115 747 106 696 q 86 714 103 735 q 55 676 69 693 q 36 658 40 658 q 32 665 32 658 l 32 669 q 76 752 49 706 q 135 845 104 799 q 190 928 165 892 q 194 929 190 929 q 219 919 203 929 q 250 897 236 910 q 264 874 264 885 l 264 872 q 209 733 229 814 q 181 558 189 651 q 174 367 174 464 q 176 260 174 313 q 181 157 178 207 q 228 380 192 272 q 308 594 264 488 q 388 813 353 700 q 431 935 413 893 q 465 994 450 978 q 492 1010 481 1010 q 510 997 496 1010 q 539 964 525 983 q 553 925 553 944 q 551 915 553 918 q 515 709 531 817 q 500 493 500 601 q 506 381 500 442 q 523 264 511 319 q 551 174 535 208 q 590 139 568 139 q 626 158 606 139 q 668 219 646 178 q 691 269 678 236 q 717 328 704 301 q 733 354 729 354 q 738 338 738 354 q 729 293 738 319 q 710 242 721 267 q 694 206 700 218 q 617 91 654 125 q 551 57 581 57 q 490 95 517 57 q 446 196 464 133 q 417 334 428 258 q 401 487 406 410 q 396 629 396 564 q 396 671 396 650 q 397 713 396 692 q 337 573 371 647 q 271 403 303 499 q 218 175 239 307 q 214 133 215 154 q 213 89 213 111 q 216 14 213 47 q 222 -29 219 -19 q 217 -31 222 -31 z "},"O":{"ha":1438,"x_min":29,"x_max":1454,"o":"m 394 -179 q 126 -100 224 -179 q 29 129 29 -21 q 65 319 29 222 q 167 505 100 415 q 329 668 235 594 q 541 790 424 742 q 796 851 658 839 q 819 853 807 853 q 846 854 832 854 q 906 851 878 854 q 950 840 935 847 q 1009 803 990 822 q 1028 771 1028 783 q 1014 758 1028 758 q 978 773 1010 758 q 894 801 946 788 q 779 815 843 815 l 765 815 q 566 753 667 801 q 376 633 465 704 q 215 475 286 561 q 104 298 144 389 q 64 121 64 207 q 138 -28 64 15 q 339 -71 213 -71 q 506 -56 417 -71 q 688 -18 596 -42 q 881 51 781 6 q 1074 157 981 97 q 1242 284 1167 217 q 1360 419 1317 351 q 1404 550 1404 488 q 1365 666 1404 614 q 1261 759 1326 718 q 1117 829 1196 800 q 958 876 1039 858 q 806 899 876 893 q 769 900 797 899 q 708 905 740 901 q 651 914 675 908 q 626 928 626 919 q 652 950 626 940 q 715 967 678 960 q 788 979 751 975 q 844 983 824 983 q 933 970 876 983 q 1058 931 989 957 q 1196 867 1126 904 q 1324 781 1265 829 q 1419 673 1383 732 q 1454 544 1454 614 q 1405 350 1454 442 q 1271 180 1356 258 q 1078 38 1186 101 q 853 -72 971 -25 q 621 -149 735 -119 q 394 -179 500 -179 z "},"P":{"ha":769,"x_min":-18,"x_max":894,"o":"m 325 -269 q 233 -231 265 -269 q 188 -130 200 -193 q 175 8 175 -67 q 178 114 175 57 q 189 233 182 171 q 132 219 160 225 q 76 210 104 213 q 36 215 58 210 q -2 229 14 219 q -18 251 -18 239 q 1 276 -18 265 q 44 293 15 285 q 96 307 72 301 q 119 313 119 313 q 122 313 121 313 q 124 314 124 314 q 126 313 125 314 q 126 313 126 313 q 111 293 126 307 q 96 272 96 279 q 100 269 96 269 q 117 274 104 269 q 156 288 136 281 q 197 304 176 296 q 226 505 210 404 q 260 697 242 606 q 293 854 278 788 q 274 824 283 844 q 257 785 265 803 q 240 767 249 767 q 238 772 238 767 q 246 801 238 778 q 268 856 254 825 q 298 916 282 886 q 330 965 314 946 q 358 985 346 985 q 390 974 372 985 q 423 949 408 963 q 438 928 438 936 q 436 922 438 924 q 338 692 383 836 q 268 346 292 549 q 267 335 267 342 q 426 416 344 371 q 581 511 507 461 q 715 613 656 561 q 808 717 774 665 q 842 815 842 768 q 797 903 842 867 q 679 962 753 939 q 518 996 606 985 q 344 1007 431 1007 q 206 1002 271 1007 q 97 997 142 997 q 67 1007 67 997 q 82 1022 67 1013 q 207 1075 149 1061 q 317 1089 265 1089 q 442 1078 368 1089 q 594 1047 515 1068 q 740 995 672 1026 q 851 922 808 964 q 894 826 894 879 q 850 687 894 764 q 717 526 806 610 q 608 441 679 490 q 446 342 536 392 q 260 257 356 293 q 258 192 258 225 q 257 126 257 158 q 271 -84 257 -6 q 310 -196 285 -162 q 367 -229 335 -229 q 406 -220 390 -229 q 431 -211 422 -211 q 438 -218 438 -211 q 426 -234 438 -221 q 390 -258 415 -247 q 325 -269 365 -269 z "},"Q":{"ha":1072,"x_min":15,"x_max":1464,"o":"m 1358 -406 q 1217 -381 1296 -406 q 1050 -315 1139 -357 q 867 -223 961 -274 q 679 -121 774 -172 q 544 -194 611 -168 q 418 -221 476 -221 q 291 -179 349 -221 q 196 -60 233 -137 q 150 124 158 17 l 144 124 q 97 106 110 124 q 85 64 85 89 q 99 2 85 33 q 113 -42 113 -29 q 110 -44 113 -44 q 109 -44 110 -44 q 108 -43 108 -44 q 110 -51 110 -49 q 108 -54 110 -54 q 100 -49 107 -54 q 79 -28 93 -43 q 30 43 44 8 q 15 106 15 78 q 43 173 15 147 q 114 199 71 199 q 131 198 122 199 q 149 196 139 197 q 178 392 151 290 q 255 592 206 494 q 375 772 304 690 q 535 911 446 854 q 732 988 625 968 q 744 989 738 989 q 758 989 751 989 q 826 983 790 989 q 875 968 861 976 q 922 922 907 946 q 936 885 936 899 q 926 872 936 872 q 906 884 917 872 q 878 910 896 896 q 832 937 861 925 q 756 949 803 949 q 610 901 683 949 q 469 775 536 854 q 345 597 401 696 q 250 392 289 497 q 196 188 211 286 q 411 109 292 167 q 656 -19 531 51 q 786 88 721 22 q 906 226 851 153 q 992 369 960 300 q 1025 485 1025 438 q 956 624 1025 563 q 714 736 888 686 q 642 759 676 747 q 584 781 607 771 q 561 794 561 792 q 658 819 603 819 q 778 797 717 819 q 892 740 839 774 q 978 672 946 706 q 1038 588 1010 638 q 1067 481 1067 539 q 1022 284 1067 385 q 905 92 978 183 q 746 -71 832 0 q 960 -198 857 -136 q 1149 -305 1064 -260 q 1289 -365 1235 -350 q 1324 -372 1306 -369 q 1357 -375 1342 -375 q 1399 -367 1382 -375 q 1415 -339 1415 -358 q 1398 -297 1415 -322 q 1354 -244 1381 -271 q 1302 -196 1328 -218 q 1260 -164 1276 -174 q 1235 -143 1235 -149 q 1247 -139 1235 -139 q 1263 -140 1254 -139 q 1282 -144 1272 -142 q 1393 -197 1354 -165 q 1448 -259 1432 -228 q 1464 -314 1464 -290 q 1438 -378 1464 -351 q 1358 -406 1413 -406 m 368 -108 q 467 -95 415 -108 q 572 -61 519 -82 q 374 43 468 -4 q 208 113 281 90 l 189 118 l 189 89 q 239 -64 189 -19 q 368 -108 289 -108 z "},"R":{"ha":711,"x_min":13,"x_max":811,"o":"m 242 -101 q 213 -95 233 -101 q 174 -78 192 -89 q 153 -53 156 -67 q 144 85 144 1 q 147 200 144 138 q 156 326 150 263 l 119 329 q 90 347 106 331 q 65 383 75 364 q 56 410 56 401 q 73 431 56 422 q 117 447 90 440 q 167 456 143 453 q 192 667 178 567 q 218 836 207 768 q 190 803 203 817 q 172 789 176 789 l 172 793 q 190 836 178 806 q 219 899 203 867 q 250 956 235 932 q 274 979 265 979 q 315 962 292 979 q 339 926 339 944 l 339 922 q 283 776 306 861 q 246 593 260 690 q 225 397 232 496 l 247 392 q 420 460 336 415 q 581 560 504 504 q 690 665 657 615 q 722 757 722 714 q 688 847 722 806 q 594 922 653 889 q 463 978 535 954 q 315 1015 390 1001 q 171 1033 239 1029 q 138 1034 163 1033 q 83 1035 113 1035 q 33 1040 54 1036 q 13 1050 13 1043 q 28 1061 13 1056 q 126 1091 81 1082 q 211 1100 171 1100 q 296 1090 240 1100 q 419 1058 351 1079 q 555 1008 486 1038 q 682 942 624 979 q 776 860 740 904 q 811 765 811 815 q 776 683 811 724 q 679 583 740 642 q 573 501 635 540 q 444 431 511 463 q 313 376 376 400 q 536 295 432 343 q 740 189 640 247 q 754 175 754 181 q 747 169 754 169 q 740 172 743 169 q 631 213 703 186 q 479 264 560 239 q 417 281 458 271 q 324 301 375 290 q 221 318 272 311 q 219 267 219 293 q 219 218 219 242 q 222 128 219 172 q 226 47 224 85 q 239 92 233 68 q 246 115 244 115 q 249 93 249 115 q 248 46 249 75 q 247 -14 247 17 q 246 -68 246 -44 q 246 -88 246 -79 q 247 -100 246 -97 q 242 -101 247 -101 z "},"S":{"ha":913,"x_min":6,"x_max":1021,"o":"m 617 -53 q 489 -37 557 -53 q 356 8 421 -21 q 241 72 292 36 q 165 150 190 108 q 140 149 154 150 q 111 147 126 147 q 69 153 94 147 q 25 172 44 158 q 6 210 6 186 q 22 229 6 221 q 82 238 38 238 q 201 185 168 238 q 299 176 247 179 q 404 174 350 174 q 516 176 460 174 q 628 186 572 179 q 559 283 597 235 q 499 363 521 332 q 397 506 447 432 q 301 675 347 581 q 283 749 283 711 q 318 853 283 804 q 406 944 353 903 q 517 1017 458 986 q 624 1069 576 1049 q 725 1102 674 1090 q 824 1114 776 1114 q 876 1110 851 1114 q 944 1073 911 1104 q 999 999 976 1042 q 1021 915 1021 957 q 1002 826 1021 876 q 954 723 983 775 q 892 626 925 671 q 830 553 858 581 q 785 525 801 525 q 742 550 761 525 q 724 589 724 575 q 728 599 724 597 q 807 674 765 626 q 884 776 849 721 q 942 884 919 831 q 965 976 965 938 q 933 1037 965 1021 q 851 1053 900 1053 q 754 1038 806 1053 q 664 1004 703 1024 q 469 884 538 942 q 376 776 401 826 q 350 685 350 726 q 392 570 350 642 q 533 378 433 499 q 615 285 571 332 q 694 196 658 239 q 816 224 760 207 q 915 263 872 240 q 919 264 917 264 q 924 260 924 264 q 914 243 924 249 q 832 203 883 221 q 715 171 781 185 q 760 108 743 138 q 776 54 776 78 q 731 -28 776 -3 q 617 -53 686 -53 m 549 -4 q 638 15 603 -4 q 674 75 674 35 q 665 113 674 92 q 643 158 657 135 q 376 139 514 139 q 222 147 296 139 q 310 68 256 103 q 428 15 365 33 q 549 -4 492 -4 z "},"T":{"ha":746,"x_min":-14,"x_max":1333,"o":"m 361 -176 q 294 -162 321 -176 q 251 -132 267 -147 q 233 -112 236 -117 q 231 -106 231 -107 q 239 -99 231 -99 q 269 -113 247 -99 q 339 -128 290 -128 q 388 -120 363 -128 q 433 -94 413 -112 q 497 6 469 -61 q 547 165 525 74 q 583 364 568 257 q 609 583 599 471 q 625 804 619 696 q 618 806 622 806 q 599 751 608 781 q 585 722 589 722 q 583 731 583 722 q 588 759 583 739 q 597 811 592 779 q 387 862 492 835 q 196 914 282 889 q 221 890 208 901 q 233 875 233 879 q 231 874 233 874 q 187 883 215 874 q 124 905 158 892 q 58 931 89 918 q 6 955 26 944 q -14 967 -14 965 q -5 1003 -14 981 q 19 1043 4 1025 q 50 1061 35 1061 q 53 1060 51 1061 q 56 1060 54 1060 q 331 971 188 1017 q 613 885 474 925 l 632 990 q 658 1018 635 1010 q 707 1026 681 1026 q 742 1017 735 1026 q 750 985 750 1007 q 750 969 750 978 q 749 953 750 961 l 739 850 q 990 792 875 815 q 1181 769 1106 769 q 1269 788 1246 769 q 1292 840 1292 807 q 1275 904 1292 885 q 1258 929 1258 924 q 1260 931 1258 931 q 1269 926 1264 931 q 1292 910 1276 924 q 1320 876 1307 897 q 1333 821 1333 854 q 1308 756 1333 779 q 1241 724 1283 733 q 1149 715 1199 715 q 1026 724 1089 715 q 918 742 963 732 q 828 760 875 750 q 732 781 782 769 q 706 585 721 686 q 674 392 690 483 q 642 236 657 301 q 618 153 633 204 q 579 44 603 101 q 524 -62 556 -12 q 452 -144 493 -112 q 361 -176 411 -176 z "},"U":{"ha":963,"x_min":18,"x_max":1036,"o":"m 933 -35 q 904 -28 925 -35 q 865 -11 883 -22 q 844 14 847 0 q 837 85 839 46 q 835 171 835 125 q 842 356 835 257 q 859 551 849 454 q 882 726 869 649 q 799 542 846 638 q 703 356 751 446 q 614 190 656 265 q 545 67 572 115 q 515 8 518 18 q 483 -10 510 -10 q 430 3 460 -10 q 377 31 400 15 q 353 58 354 47 q 351 66 351 61 q 351 76 351 71 q 359 165 351 108 q 380 291 367 221 q 410 438 393 361 q 446 585 428 514 q 467 655 453 610 q 500 754 482 700 q 533 862 518 808 q 556 957 549 915 q 560 982 560 982 q 558 985 560 985 q 553 990 556 985 q 488 958 526 988 q 405 884 449 929 q 315 789 361 839 q 226 694 269 739 q 149 622 183 650 q 92 594 114 594 q 40 624 61 594 q 18 699 18 653 q 45 776 18 728 q 124 858 72 825 q 133 863 131 863 q 136 861 136 863 q 119 838 136 857 q 74 772 89 803 q 58 721 58 740 q 81 696 58 696 q 131 715 99 696 q 199 762 163 733 q 270 822 235 790 q 332 878 306 853 q 369 913 358 903 q 453 989 411 953 q 531 1049 496 1025 q 585 1074 567 1072 q 650 1029 626 1047 q 674 985 674 1011 q 671 967 674 978 q 657 926 669 960 q 627 843 644 893 q 590 737 610 793 q 552 625 571 681 q 521 525 533 569 q 467 291 483 399 q 450 101 450 183 q 451 71 450 86 q 453 42 451 56 q 509 118 475 67 q 585 238 543 169 q 670 383 626 306 q 753 535 714 460 q 824 678 793 611 q 869 793 854 746 q 851 797 851 793 q 863 827 851 801 q 892 885 875 853 q 927 941 910 917 q 954 965 944 965 q 985 956 965 965 q 1020 935 1004 947 q 1036 911 1036 922 l 1036 908 q 980 769 1003 851 q 942 592 957 686 q 921 403 928 499 q 914 226 914 308 q 918 114 914 164 q 931 158 925 135 q 938 182 936 182 q 940 160 940 182 q 940 113 940 142 q 938 53 939 83 q 938 -1 938 22 q 938 -22 938 -12 q 939 -33 938 -31 q 933 -35 939 -35 z "},"V":{"ha":888,"x_min":7,"x_max":1064,"o":"m 672 11 q 624 29 651 11 q 594 69 597 47 q 593 92 593 79 q 593 119 593 104 q 595 233 593 165 q 599 383 597 301 q 600 549 600 464 q 597 722 600 638 q 586 878 594 807 q 563 996 578 950 q 489 963 531 993 q 401 886 447 932 q 308 790 354 840 q 217 696 261 740 q 138 623 174 651 q 81 594 103 594 q 28 624 50 594 q 7 699 7 653 q 34 776 7 728 q 113 858 61 825 q 122 863 119 863 q 125 861 125 863 q 108 838 125 857 q 63 772 78 803 q 47 721 47 740 q 69 696 47 696 q 120 715 89 696 q 188 762 151 733 q 259 822 224 790 q 321 878 294 853 q 358 913 347 903 q 442 989 400 953 q 520 1049 485 1025 q 574 1074 556 1072 q 631 1033 610 1050 q 661 994 651 1015 q 674 940 671 974 q 676 851 676 907 l 676 747 q 675 592 676 675 q 671 425 674 508 q 664 269 668 342 q 654 142 660 196 q 690 259 663 188 q 756 414 718 331 q 834 581 793 497 q 912 734 875 664 q 974 850 949 804 q 1003 904 999 896 q 1029 928 1017 928 q 1048 911 1040 928 q 1060 873 1056 894 q 1064 838 1064 851 q 1041 790 1064 822 q 988 729 1018 757 q 922 647 960 703 q 842 519 883 592 q 767 365 801 446 q 710 208 732 285 q 689 71 689 132 q 690 49 689 60 q 692 28 692 39 q 672 11 692 11 z "},"W":{"ha":1171,"x_min":18,"x_max":1401,"o":"m 108 -104 q 76 -82 85 -104 q 67 -29 67 -60 q 71 23 67 -4 q 81 74 75 50 q 114 163 89 110 q 169 274 139 217 q 230 382 200 332 q 278 463 260 432 q 312 517 288 479 q 367 607 336 556 q 431 715 399 658 q 492 824 464 771 q 537 917 519 876 q 554 979 554 958 q 553 990 554 988 q 488 958 526 988 q 405 884 449 929 q 315 789 361 839 q 226 694 269 739 q 149 622 183 650 q 92 594 114 594 q 40 624 61 594 q 18 699 18 653 q 45 776 18 728 q 124 858 72 825 q 133 863 131 863 q 136 861 136 863 q 119 838 136 857 q 74 772 89 803 q 58 721 58 740 q 81 696 58 696 q 131 715 99 696 q 199 762 163 733 q 270 822 235 790 q 332 878 306 853 q 369 913 358 903 q 453 989 411 953 q 531 1049 496 1025 q 585 1074 567 1072 q 650 1029 626 1047 q 674 985 674 1011 q 671 967 674 978 q 655 935 669 963 q 617 866 640 907 q 569 778 594 825 q 519 688 543 732 q 478 614 494 644 q 377 444 426 521 q 283 290 328 368 q 199 107 239 211 q 190 83 193 93 q 188 65 188 74 q 211 42 188 42 q 248 52 226 42 q 288 78 269 63 q 335 126 300 88 q 419 219 371 165 q 519 333 468 274 q 616 447 571 393 q 690 536 661 500 q 676 571 676 554 q 684 593 676 578 q 711 621 692 608 q 763 633 731 633 q 781 617 781 633 q 735 533 781 588 q 761 421 746 482 q 808 297 776 360 q 896 174 839 233 q 945 142 911 157 q 1011 128 979 128 q 1058 142 1039 128 q 1076 193 1076 157 q 1051 398 1076 300 q 990 578 1025 496 q 925 718 954 660 l 850 729 q 823 747 836 732 q 810 776 810 763 q 867 803 810 803 q 926 794 892 803 q 999 761 960 785 q 1029 760 1014 760 q 1058 760 1044 760 q 1197 767 1129 760 q 1316 782 1265 774 q 1381 796 1367 790 q 1393 799 1389 799 q 1401 792 1401 799 q 1382 774 1401 781 q 1319 758 1365 767 q 1216 740 1274 749 q 1103 726 1158 732 q 1011 721 1049 721 q 1078 593 1049 665 q 1126 444 1108 521 q 1143 294 1143 367 q 1131 215 1143 258 q 1099 131 1119 171 q 1049 64 1078 90 q 988 38 1021 38 q 910 74 949 38 q 836 169 871 111 q 773 290 801 226 q 725 409 744 354 q 699 494 706 464 q 608 387 663 451 q 490 251 553 322 q 364 112 426 179 q 250 -6 301 44 q 168 -79 199 -57 q 135 -99 150 -93 q 108 -104 119 -104 z "},"X":{"ha":753,"x_min":-154,"x_max":985,"o":"m 618 -176 q 528 -144 568 -176 q 456 -62 488 -112 q 401 44 425 -12 q 363 153 378 101 q 339 236 347 204 l 335 254 q 119 92 217 161 q -43 -15 21 24 q -125 -54 -107 -54 q -145 -51 -136 -54 q -154 -43 -154 -49 q -146 -36 -154 -40 q -65 12 -115 -22 q 49 94 -14 46 q 183 197 113 142 q 322 311 253 253 q 294 467 308 382 q 267 643 279 553 q 244 815 254 733 q 226 769 235 799 q 213 715 218 739 q 206 692 208 692 q 201 721 201 692 q 202 744 201 732 q 204 768 203 756 q 207 812 206 782 q 212 878 208 842 q 222 949 215 915 q 237 1004 228 982 q 260 1026 246 1026 q 301 1009 279 1026 q 338 970 322 992 q 356 935 354 949 q 370 644 363 781 q 396 374 378 507 l 506 469 q 683 648 635 581 q 732 757 732 715 q 724 791 732 776 q 704 818 717 806 q 613 838 650 824 q 575 886 575 853 q 583 900 575 900 q 586 899 585 900 q 589 899 588 899 q 650 884 610 892 q 738 870 690 876 q 833 860 786 864 q 914 857 879 857 q 960 862 947 857 q 976 867 972 867 q 985 854 985 867 q 975 836 985 844 q 917 819 961 825 q 821 814 874 814 l 751 814 q 769 743 769 782 q 728 616 769 689 q 582 454 688 543 q 493 380 538 415 q 406 310 449 344 q 407 301 406 304 q 501 -22 443 96 q 636 -140 560 -140 q 689 -130 668 -140 q 722 -109 710 -119 q 742 -99 735 -99 q 749 -106 749 -99 q 747 -112 749 -110 q 729 -132 744 -117 q 687 -162 714 -147 q 618 -176 660 -176 z "},"Y":{"ha":1208,"x_min":8,"x_max":1258,"o":"m 700 -349 q 663 -346 682 -349 q 622 -337 643 -343 q 524 -303 583 -326 q 394 -244 464 -279 q 257 -168 325 -210 q 133 -79 189 -126 q 42 18 76 -32 q 8 118 8 68 q 159 222 8 196 q 624 247 310 247 q 733 246 667 247 q 874 241 799 244 q 1019 232 949 238 q 1085 510 1060 365 q 1115 789 1110 654 q 1036 633 1078 708 q 958 494 994 557 q 896 392 921 432 q 868 344 871 353 q 857 331 865 335 q 838 328 849 328 q 769 351 788 328 q 751 390 751 375 q 761 491 751 426 q 788 631 771 556 q 826 776 806 707 q 859 884 842 829 q 876 996 876 939 q 808 967 847 996 q 723 892 768 938 q 631 795 678 846 q 540 699 583 744 q 460 624 496 653 q 401 594 425 594 q 349 624 371 594 q 328 699 328 653 q 355 776 328 728 q 433 858 382 825 q 443 863 440 863 q 446 861 446 863 q 429 838 446 857 q 383 772 399 803 q 368 721 368 740 q 390 696 368 696 q 441 715 410 696 q 508 762 472 733 q 580 822 544 790 q 642 878 615 853 q 679 913 668 903 q 763 989 721 953 q 841 1049 806 1025 q 894 1074 876 1072 q 960 1029 936 1047 q 985 983 985 1011 q 959 912 985 978 q 893 731 933 846 q 845 551 860 633 q 831 407 831 468 q 831 383 831 394 q 833 361 832 372 q 884 428 854 382 q 947 534 914 474 q 1013 662 981 594 q 1073 792 1046 729 q 1118 907 1100 856 l 1114 983 q 1115 985 1114 985 q 1142 968 1125 985 q 1174 932 1158 951 q 1192 904 1189 913 q 1204 804 1204 871 q 1191 629 1204 731 q 1156 421 1178 528 q 1107 222 1133 314 q 1215 205 1172 215 q 1258 179 1258 194 q 1250 174 1258 174 q 1248 174 1249 174 q 1244 175 1247 175 q 1099 196 1174 188 q 1055 60 1081 133 q 996 -86 1029 -14 q 919 -217 963 -158 q 822 -312 876 -276 q 700 -349 767 -349 m 633 -294 q 778 -235 714 -294 q 901 -67 843 -175 q 1011 206 965 51 q 874 214 943 211 q 733 217 804 217 q 490 209 606 217 q 291 188 375 201 q 172 157 207 175 q 122 82 122 131 q 156 -10 122 40 q 247 -111 190 -61 q 372 -203 304 -161 q 508 -269 439 -244 q 633 -294 576 -294 z "},"Z":{"ha":901,"x_min":10,"x_max":1043,"o":"m 813 -194 q 746 -179 788 -194 q 643 -142 708 -165 q 499 -92 578 -119 q 340 -35 419 -64 q 190 19 260 -6 q 188 8 189 15 q 179 0 188 0 q 167 4 175 0 q 124 23 149 13 q 76 43 100 33 q 60 0 61 15 q 40 -31 57 -31 q 28 -22 35 -31 q 22 8 22 -12 q 32 64 22 36 q 10 82 10 75 q 24 116 11 93 q 53 158 36 139 q 85 176 71 176 q 92 175 89 176 q 96 172 94 172 q 222 306 146 236 q 381 446 297 376 q 541 577 464 515 q 672 686 618 639 q 742 758 726 733 l 721 758 q 616 767 657 758 q 544 788 575 776 q 482 809 514 800 q 403 818 450 818 q 291 795 332 818 q 230 740 250 772 q 203 680 210 708 q 197 639 197 651 q 188 613 197 613 q 176 629 182 613 q 169 674 169 646 q 174 702 169 683 q 195 754 178 721 q 254 840 213 788 q 360 931 303 903 q 460 958 417 958 q 496 953 481 958 q 546 921 515 944 q 613 869 576 897 q 687 820 649 840 q 763 800 725 800 q 831 818 799 800 q 891 860 864 836 q 937 906 918 885 q 961 932 956 926 q 974 945 968 939 q 990 951 981 951 q 1011 942 999 951 q 1033 920 1024 932 q 1043 899 1043 908 q 1025 876 1043 888 q 965 847 1007 864 q 822 767 906 824 q 643 632 738 710 q 455 467 549 554 q 281 295 361 379 q 144 142 200 211 q 247 88 188 118 q 373 28 306 58 q 508 -28 440 -3 q 633 -68 575 -53 q 733 -83 692 -83 q 792 -32 792 -83 q 769 52 792 4 q 710 148 746 100 q 635 228 675 196 q 617 250 617 242 q 626 256 617 256 q 649 251 635 256 q 675 235 663 246 q 731 172 699 215 q 795 72 764 128 q 847 -37 826 17 q 868 -132 868 -92 q 856 -177 868 -160 q 813 -194 843 -194 z "},"a":{"ha":424,"x_min":43,"x_max":500,"o":"m 371 56 q 338 67 356 56 q 313 93 319 79 q 321 181 313 125 q 340 295 329 236 q 358 396 350 354 q 301 311 333 357 q 236 226 269 265 q 169 160 203 186 q 106 135 135 135 q 60 155 76 135 q 43 201 43 175 q 46 219 43 208 q 95 340 58 283 q 180 439 132 396 q 275 507 228 482 q 356 532 322 532 q 403 522 381 532 q 447 488 426 511 q 451 478 451 483 q 443 464 451 471 q 423 384 433 431 q 403 288 413 338 q 389 197 394 239 q 383 133 383 156 q 388 118 383 118 q 416 142 399 118 q 450 196 433 165 q 480 250 467 226 q 496 274 493 274 q 500 263 500 274 q 485 204 500 239 q 448 135 469 169 q 405 78 426 101 q 371 56 383 56 m 117 186 q 166 208 136 186 q 228 265 196 231 q 292 339 261 300 q 347 413 324 378 q 379 471 369 449 q 315 451 351 471 q 242 399 279 431 q 172 331 204 368 q 121 260 140 294 q 101 200 101 225 q 117 186 101 186 z "},"b":{"ha":467,"x_min":47,"x_max":472,"o":"m 119 74 q 72 94 97 76 q 47 133 47 111 q 49 143 47 139 q 79 306 68 213 q 97 501 90 399 q 108 701 103 604 q 123 878 114 799 q 149 1001 132 957 q 168 1026 151 1026 q 214 997 188 1026 q 243 928 240 968 q 221 797 235 874 q 191 634 207 719 q 160 465 175 549 q 132 313 144 382 q 113 204 119 244 q 151 267 126 229 q 208 347 176 306 q 275 426 240 389 q 343 485 310 463 q 403 508 376 508 q 453 484 435 508 q 472 428 472 460 q 453 358 472 400 q 399 269 433 315 q 320 180 365 222 q 224 108 275 138 q 119 74 172 79 m 101 122 q 197 161 146 131 q 294 236 249 192 q 367 333 339 281 q 396 438 396 386 q 379 458 396 458 q 329 431 360 458 q 263 362 299 404 q 194 273 228 319 q 136 185 161 226 q 101 122 111 144 z "},"c":{"ha":581,"x_min":28,"x_max":599,"o":"m 199 -28 q 73 15 118 -28 q 28 121 28 58 q 56 255 28 188 q 131 383 83 322 q 238 492 178 444 q 364 567 297 539 q 494 594 431 594 q 558 581 533 594 q 583 553 583 567 q 581 546 583 549 q 565 517 575 540 q 544 465 554 494 q 526 406 533 436 q 518 356 518 376 q 504 340 515 340 q 481 363 494 340 q 468 425 468 386 q 478 478 468 450 q 499 528 489 506 q 510 561 510 551 q 505 567 510 567 q 496 567 500 567 q 414 541 467 567 q 290 447 361 515 q 203 340 243 401 q 138 217 163 279 q 114 101 114 154 q 145 22 114 40 q 217 4 176 4 q 356 31 286 4 q 488 103 426 57 q 592 207 550 149 q 594 210 593 210 q 596 211 596 211 q 599 206 599 211 q 595 186 599 199 q 586 167 592 174 q 507 78 558 124 q 379 3 456 33 q 199 -28 303 -28 z "},"d":{"ha":569,"x_min":4,"x_max":679,"o":"m 604 -135 q 518 -75 556 -135 q 447 89 474 -6 q 407 293 421 183 q 351 214 383 256 q 281 135 319 172 q 200 76 242 99 q 115 53 158 53 q 52 67 75 53 q 19 99 29 81 q 6 135 8 118 q 4 158 4 151 q 33 243 4 197 q 113 330 61 289 q 237 397 165 371 q 393 424 308 424 l 394 424 q 390 528 392 475 q 389 635 389 581 q 393 781 389 708 q 408 912 397 853 q 436 1004 418 971 q 461 1018 444 1018 q 526 991 497 1018 q 574 926 556 964 q 592 854 592 889 q 556 644 592 753 q 471 417 519 536 l 471 413 l 490 406 q 537 372 518 392 q 556 336 556 351 q 551 331 556 331 q 543 338 547 331 q 474 376 508 368 q 510 162 485 260 q 575 -8 535 64 q 614 -67 599 -51 q 640 -83 629 -83 q 660 -70 651 -83 q 675 -57 669 -57 q 679 -65 679 -57 l 679 -71 q 668 -93 676 -78 q 644 -122 660 -108 q 604 -135 629 -135 m 467 467 q 514 601 496 542 q 546 731 532 661 q 553 777 550 753 q 556 824 556 801 q 548 894 556 864 q 524 931 540 925 q 485 862 499 910 q 467 752 472 814 q 463 628 463 690 q 467 467 463 544 m 100 86 q 177 109 135 86 q 262 168 219 132 q 341 247 304 204 q 403 328 378 289 l 397 386 q 316 365 361 385 q 224 317 271 346 q 139 253 178 288 q 76 187 100 219 q 51 128 51 154 q 78 89 51 103 q 89 87 83 88 q 100 86 94 86 z "},"e":{"ha":331,"x_min":78,"x_max":415,"o":"m 194 22 q 122 53 147 22 q 87 131 96 83 q 78 228 78 179 q 81 291 78 261 q 86 343 83 321 q 104 453 93 400 q 126 543 115 506 q 139 592 136 581 q 160 611 144 611 q 194 591 175 611 q 222 558 214 571 q 285 535 254 549 q 335 507 315 522 q 356 474 356 492 q 326 404 356 439 q 253 340 297 369 q 163 290 208 311 q 158 224 158 257 q 172 126 158 168 q 219 85 186 85 q 276 106 249 85 q 326 158 303 126 q 369 223 350 190 q 397 278 388 256 q 410 286 400 286 q 415 274 415 286 q 399 226 415 263 q 365 163 382 193 q 331 111 347 133 q 273 51 307 81 q 194 22 239 22 m 167 329 q 253 392 215 356 q 292 472 292 429 q 269 503 292 488 q 215 531 246 519 q 187 436 199 486 q 167 329 175 386 z "},"f":{"ha":428,"x_min":-15,"x_max":582,"o":"m 217 -590 q 125 -556 161 -590 q 69 -465 89 -522 q 41 -336 49 -408 q 33 -189 33 -264 q 43 3 33 -87 q 60 139 53 93 q 69 192 63 158 q 85 264 75 225 q 69 265 78 264 q 54 265 61 265 l 51 265 l 0 238 q -10 235 -8 235 q -15 242 -15 235 q 5 281 -15 254 q 51 319 25 308 l 101 340 q 137 485 118 408 q 174 634 156 561 q 208 767 192 707 q 235 866 224 828 q 249 910 246 904 q 258 915 253 915 q 283 903 269 915 q 306 878 296 892 q 318 856 317 864 q 322 826 322 843 q 317 782 322 811 q 296 699 313 753 q 240 533 269 610 q 186 369 210 456 q 323 411 251 392 q 458 444 394 431 q 560 457 522 457 q 575 456 568 457 q 582 451 582 456 q 576 444 582 449 q 564 439 571 440 q 385 397 492 429 q 174 321 279 365 q 169 301 171 311 q 164 282 167 292 q 435 128 335 239 q 536 -149 536 17 q 519 -253 536 -194 q 473 -370 503 -311 q 403 -479 443 -429 q 315 -560 363 -529 q 217 -590 268 -590 m 260 -549 q 327 -519 296 -549 q 384 -443 358 -489 q 428 -351 410 -397 q 453 -271 446 -304 q 469 -126 469 -193 q 392 122 469 19 q 158 254 315 224 q 153 221 156 238 q 147 186 150 204 q 127 12 135 106 q 119 -172 119 -82 q 134 -362 119 -276 q 180 -498 149 -447 q 260 -549 211 -549 z "},"g":{"ha":481,"x_min":32,"x_max":561,"o":"m 176 -579 q 139 -550 151 -579 q 212 -383 175 -472 q 283 -201 249 -294 q 340 -19 317 -108 q 261 -86 301 -50 q 185 -169 221 -122 q 115 -305 139 -226 q 90 -450 90 -383 q 124 -571 90 -531 q 128 -576 128 -575 q 127 -577 128 -576 q 125 -578 126 -578 q 112 -574 119 -578 q 97 -561 104 -569 q 56 -491 69 -532 q 43 -403 43 -450 q 64 -293 43 -349 q 125 -189 85 -237 q 240 -72 183 -118 q 350 19 297 -25 q 379 179 371 101 q 388 286 386 240 q 390 367 390 332 q 389 407 390 389 q 386 440 388 425 l 375 438 q 318 349 351 400 q 246 248 285 297 q 168 165 207 199 q 94 132 129 132 q 49 152 65 132 q 32 199 32 172 q 35 217 32 206 q 84 337 47 281 q 169 436 121 393 q 264 504 217 479 q 344 529 311 529 q 392 519 369 529 q 436 485 415 508 q 440 475 440 481 q 414 451 440 463 q 428 398 425 431 q 432 329 432 365 q 425 204 432 269 q 407 72 418 139 q 476 154 443 108 q 540 264 510 200 q 556 281 549 281 q 561 271 561 281 q 548 226 561 256 q 517 167 535 197 q 481 114 499 136 q 442 70 463 92 q 400 29 422 49 q 358 -158 382 -67 q 311 -326 335 -250 q 269 -455 288 -403 q 242 -524 250 -507 q 208 -567 225 -554 q 176 -579 192 -579 m 113 189 q 161 211 132 189 q 222 267 190 233 q 284 340 254 301 q 337 413 314 379 q 368 468 360 447 q 305 448 339 468 q 238 396 271 428 q 175 329 204 364 q 127 264 146 294 q 103 217 108 233 q 99 201 99 207 q 113 189 99 189 z "},"h":{"ha":404,"x_min":72,"x_max":501,"o":"m 144 -58 q 106 -29 121 -58 q 85 45 92 0 q 75 142 78 90 q 72 240 72 194 q 80 432 72 333 q 100 623 88 531 q 126 792 113 715 q 152 920 140 868 q 171 989 164 972 q 187 1029 181 1013 q 207 1046 193 1046 q 251 1028 229 1046 q 272 994 272 1010 l 272 992 q 296 1003 281 1003 q 331 981 318 1003 q 351 930 344 958 q 357 883 357 901 q 335 763 357 829 q 278 630 313 697 q 204 501 243 563 q 132 392 165 439 q 122 279 126 336 q 118 165 118 222 q 120 107 118 135 q 125 54 122 79 q 144 151 132 97 q 171 259 157 206 q 198 356 185 313 q 219 418 211 399 q 256 465 233 451 q 300 479 279 479 q 314 456 308 479 q 323 396 319 432 q 329 322 326 360 q 333 256 332 283 q 346 185 336 206 q 367 160 356 164 q 385 154 378 156 q 413 177 397 154 q 445 231 429 200 q 475 284 461 261 q 497 307 489 307 q 501 300 501 307 q 497 282 501 294 q 419 124 453 176 q 349 71 386 71 q 304 97 318 71 q 275 177 283 133 q 262 267 267 221 q 246 353 257 313 q 239 361 244 361 q 231 353 235 361 q 222 332 228 344 q 206 281 218 322 q 181 183 194 240 q 157 62 167 125 q 147 -56 147 -1 q 144 -58 147 -58 m 139 442 q 222 587 181 510 q 290 739 263 664 q 318 875 318 814 q 310 933 318 907 q 279 976 301 958 q 275 981 278 979 q 269 983 272 982 q 196 733 232 872 q 139 442 160 593 z "},"i":{"ha":204,"x_min":49,"x_max":296,"o":"m 169 454 q 152 458 161 454 q 135 465 143 461 q 129 476 129 469 q 144 508 129 489 q 183 540 160 526 q 229 554 207 554 q 242 547 242 554 q 229 533 242 542 q 207 503 214 522 q 193 469 200 483 q 169 454 186 454 m 94 35 q 58 51 68 35 q 49 103 49 68 q 50 142 49 121 q 56 189 51 163 q 83 340 68 283 q 122 396 99 396 q 157 374 142 396 q 178 342 172 351 q 152 283 168 324 q 124 199 136 243 q 111 121 111 154 q 126 88 111 88 q 155 101 139 88 q 185 132 171 115 q 204 156 200 149 q 265 264 251 226 q 290 301 278 301 q 296 293 296 301 q 294 281 296 288 q 289 265 292 275 q 263 205 281 243 q 219 128 244 167 q 162 62 193 89 q 94 35 131 35 z "},"j":{"ha":229,"x_min":-208,"x_max":310,"o":"m 128 547 q 99 553 111 547 q 90 567 90 557 q 105 601 90 581 q 141 639 119 622 q 181 656 163 656 q 190 649 190 656 q 181 635 190 643 q 163 599 165 619 q 155 563 160 578 q 128 547 150 547 m -75 -579 q -112 -550 -100 -579 q -40 -383 -76 -472 q 31 -201 -3 -294 q 89 -19 65 -108 q 10 -86 50 -50 q -67 -169 -31 -122 q -137 -305 -112 -226 q -161 -450 -161 -383 q -128 -571 -161 -531 q -124 -576 -124 -575 q -124 -577 -124 -576 q -126 -578 -125 -578 q -140 -574 -132 -578 q -154 -561 -147 -569 q -195 -491 -182 -532 q -208 -403 -208 -450 q -187 -293 -208 -349 q -126 -189 -167 -237 q -11 -72 -68 -118 q 99 19 46 -25 q 128 179 119 101 q 137 286 135 240 q 139 367 139 332 q 136 426 139 401 q 131 472 133 451 q 132 474 131 474 q 161 457 139 474 q 186 414 183 440 q 190 325 190 372 q 184 208 190 269 q 167 83 178 147 q 230 162 199 118 q 289 264 261 206 q 304 281 297 281 q 310 271 310 281 q 297 226 310 256 q 265 167 283 197 q 229 114 247 136 q 196 75 214 93 q 158 39 178 57 q 115 -151 140 -58 q 65 -322 90 -244 q 19 -453 39 -400 q -10 -524 -1 -507 q -43 -567 -26 -554 q -75 -579 -60 -579 z "},"k":{"ha":396,"x_min":36,"x_max":476,"o":"m 172 -58 q 135 -31 150 -58 q 113 38 121 -4 q 103 130 106 81 q 100 225 100 179 l 100 226 q 71 240 85 233 q 44 250 57 246 q 36 261 36 254 q 52 289 36 274 q 86 304 68 304 q 99 301 90 304 q 101 300 99 300 q 117 526 104 413 q 145 737 129 639 q 176 902 161 835 q 199 989 190 969 q 215 1029 208 1013 q 235 1046 221 1046 q 278 1028 257 1046 q 300 994 300 1010 l 300 992 q 324 1003 308 1003 q 359 981 346 1003 q 378 930 372 958 q 385 883 385 901 q 363 764 385 829 q 306 631 340 699 q 232 502 271 564 q 160 393 193 440 q 154 335 157 364 q 149 276 151 306 l 164 268 q 269 349 215 303 q 373 442 324 394 q 457 533 422 490 q 463 536 460 536 q 467 531 467 536 q 465 525 467 528 q 399 428 440 481 q 309 326 357 376 q 214 236 261 275 q 348 133 283 189 q 468 22 413 78 q 476 6 476 14 q 471 -4 476 -4 q 468 -3 468 -4 q 393 51 442 17 q 289 119 344 85 q 236 153 272 131 q 158 197 200 175 l 154 197 q 151 197 153 197 q 146 197 149 196 l 146 165 q 155 41 146 96 q 175 -56 164 -14 q 172 -58 175 -58 m 167 442 q 250 587 208 510 q 319 739 292 664 q 347 875 347 814 q 336 936 347 908 q 300 982 325 964 q 297 983 299 982 q 224 732 260 872 q 167 442 188 592 z "},"l":{"ha":276,"x_min":71,"x_max":356,"o":"m 249 -51 q 213 -46 229 -51 q 128 14 160 -31 q 84 122 97 58 q 71 257 71 186 q 74 335 71 296 q 82 411 76 374 q 115 586 93 490 q 164 781 136 682 q 221 967 192 879 q 240 1010 232 993 q 267 1021 249 1026 q 295 1008 281 1017 q 318 988 310 999 q 356 867 356 944 q 328 708 356 796 q 255 532 300 619 q 154 371 210 444 q 142 218 142 290 q 151 113 142 161 q 179 28 160 64 q 216 -14 196 -3 q 254 -25 236 -25 q 290 -18 274 -25 q 315 -7 306 -11 q 335 0 326 0 q 338 -11 346 0 q 308 -35 332 -18 q 249 -51 285 -51 m 164 431 q 245 577 208 500 q 305 728 282 654 q 328 861 328 803 q 324 903 328 883 q 313 938 321 922 q 226 687 265 819 q 164 431 186 554 z "},"m":{"ha":515,"x_min":6,"x_max":613,"o":"m 142 -104 q 106 -84 131 -104 q 74 -37 81 -64 q 61 54 64 -3 q 58 178 58 111 q 60 323 58 249 q 61 460 61 397 q 61 516 61 490 q 58 561 61 542 q 42 566 56 564 q 17 570 29 568 q 6 572 6 572 q 27 585 6 575 q 89 596 49 596 q 142 581 129 596 q 154 554 154 565 q 154 546 154 550 q 153 538 154 542 q 136 440 142 483 q 128 351 131 396 q 124 246 125 306 q 137 290 125 250 q 176 414 149 329 q 213 506 199 485 q 236 529 226 528 q 251 524 239 528 q 276 510 264 519 q 289 488 289 501 l 289 485 q 272 368 279 433 q 264 242 264 303 q 267 169 264 203 q 281 115 271 136 q 290 151 281 121 q 311 222 299 182 q 335 297 324 261 q 351 351 346 333 q 372 396 363 385 q 397 407 381 407 q 431 378 421 407 q 444 308 442 350 q 449 225 447 267 q 455 155 450 183 q 475 126 460 126 q 513 153 493 126 q 551 217 532 181 q 585 280 569 253 q 608 307 600 307 q 613 300 613 307 q 608 282 613 294 q 567 188 589 235 q 521 108 544 140 q 471 76 497 76 q 418 96 438 76 q 396 142 404 108 q 382 214 388 176 q 372 278 376 251 q 361 306 367 306 q 349 281 357 306 q 333 221 342 257 q 317 148 325 185 q 305 83 310 111 q 300 49 300 56 q 285 29 300 32 q 249 26 271 26 q 229 58 239 26 q 212 138 219 89 q 200 243 204 188 q 196 346 196 299 q 196 374 196 361 q 197 399 196 388 q 151 244 175 335 q 128 47 128 153 q 132 -33 128 4 q 146 -92 136 -71 q 147 -99 147 -94 q 142 -104 147 -104 z "},"n":{"ha":438,"x_min":6,"x_max":539,"o":"m 138 -86 q 99 -65 124 -86 q 65 -8 75 -43 q 57 56 60 15 q 54 146 54 96 q 58 325 54 229 q 61 497 61 421 q 60 544 61 522 q 58 583 60 567 q 42 588 56 586 q 17 592 29 590 q 6 594 6 594 q 27 608 6 597 q 89 618 49 618 q 144 601 131 618 q 157 571 157 583 q 157 564 157 568 q 156 557 157 560 q 126 384 140 483 q 113 175 113 285 q 113 128 113 149 q 114 93 114 108 l 114 81 q 143 228 122 158 q 185 382 164 299 q 213 494 201 454 q 238 549 225 533 q 269 565 251 565 q 304 544 294 565 q 317 488 314 524 q 322 405 319 451 q 336 306 325 358 q 375 190 353 226 q 413 154 397 154 q 449 177 431 154 q 483 231 467 200 q 513 284 500 261 q 535 307 526 307 q 539 300 539 307 q 535 282 539 294 q 476 162 500 204 q 411 119 453 119 q 347 147 379 119 q 315 192 331 161 q 285 261 299 224 q 259 333 271 299 q 239 389 247 367 q 228 411 231 411 q 219 406 225 411 q 210 386 213 400 q 172 216 186 300 q 150 65 157 132 q 143 -39 143 -3 q 145 -65 143 -57 q 147 -76 147 -72 q 138 -86 147 -86 z "},"o":{"ha":542,"x_min":51,"x_max":694,"o":"m 194 40 q 121 73 144 40 q 97 153 97 106 q 121 275 97 203 q 171 411 144 347 q 122 383 147 396 q 78 371 97 371 q 58 378 64 371 q 51 393 51 385 q 56 414 51 400 q 70 440 60 428 q 96 453 81 453 q 101 449 101 453 q 101 447 101 447 q 100 444 100 446 q 99 439 99 442 q 106 433 99 433 q 116 435 110 433 q 129 440 122 436 q 161 458 143 447 q 201 479 179 468 l 222 521 q 242 542 231 536 q 263 549 253 549 q 290 544 278 549 q 311 532 301 539 q 344 545 326 539 q 378 554 361 551 q 488 585 431 574 q 600 597 544 597 q 663 589 631 597 q 694 563 694 581 q 683 557 694 557 q 633 563 661 557 q 576 568 604 568 q 510 565 542 568 q 450 554 478 561 q 487 521 472 544 q 501 461 501 497 q 483 368 501 422 q 433 257 464 314 q 361 151 401 200 q 278 71 321 101 q 194 40 235 40 m 210 69 q 270 96 239 69 q 332 163 301 122 q 386 246 363 203 q 412 299 397 265 q 437 369 426 332 q 447 438 447 407 q 435 484 447 465 q 392 503 424 503 q 353 494 376 503 q 303 475 329 486 q 292 463 297 469 q 285 450 288 457 q 232 342 258 401 q 188 228 206 283 q 171 131 171 172 q 210 69 171 69 z "},"p":{"ha":546,"x_min":-29,"x_max":664,"o":"m 178 -661 q 156 -658 168 -661 q 132 -649 144 -656 q 71 -577 93 -626 q 40 -460 49 -528 q 31 -318 31 -392 q 33 -224 31 -271 q 40 -132 36 -176 l 19 -136 q 2 -125 14 -136 q -19 -101 -10 -114 q -29 -82 -29 -87 q -3 -37 -26 -62 q 58 15 21 -12 q 60 26 58 22 q 86 172 68 90 q 131 342 104 253 q 192 514 157 431 q 132 544 165 535 q 70 557 99 554 q 28 560 42 560 q 23 570 19 561 q 37 588 26 579 q 56 597 47 597 q 138 592 96 597 q 218 575 179 586 l 233 607 q 222 635 225 621 q 218 661 218 649 q 222 683 218 675 q 241 726 232 710 q 267 736 250 742 q 309 711 290 729 q 322 675 328 693 q 299 619 311 649 q 275 557 286 589 q 417 486 353 531 q 525 389 482 442 q 557 296 558 344 l 601 318 q 638 335 625 331 q 656 340 650 340 q 654 330 664 340 q 628 308 644 319 q 600 289 613 296 l 553 265 q 522 185 546 226 q 463 100 497 143 q 358 5 419 47 q 233 -67 297 -37 q 110 -115 168 -97 q 93 -346 93 -237 q 98 -449 93 -401 q 114 -533 103 -496 q 151 -604 129 -586 q 192 -622 172 -622 q 217 -617 206 -622 q 236 -608 229 -612 q 256 -603 247 -603 q 264 -610 264 -603 q 260 -619 264 -612 q 232 -644 254 -626 q 178 -661 210 -661 m 142 72 q 312 171 221 122 q 475 256 403 219 q 485 310 485 281 q 449 402 485 358 q 332 481 414 446 q 296 495 314 488 q 258 508 278 503 q 195 299 225 411 q 142 72 165 188 m 121 -44 q 252 23 196 -12 q 376 121 308 58 q 454 213 426 167 q 331 146 393 179 q 218 83 269 113 q 133 29 167 53 l 121 -44 m 19 -82 q 33 -76 26 -79 q 46 -72 40 -74 l 51 -32 q 28 -54 38 -42 q 19 -82 18 -67 z "},"q":{"ha":538,"x_min":51,"x_max":603,"o":"m 390 -436 q 374 -407 381 -436 q 365 -335 368 -378 q 361 -251 363 -292 q 360 -185 360 -210 q 372 56 360 -64 q 407 282 385 176 q 335 200 375 240 q 251 134 294 160 q 163 108 207 108 q 99 122 122 108 q 66 155 76 136 q 53 190 56 174 q 51 214 51 207 q 88 316 51 263 q 200 414 124 369 q 310 463 247 442 q 428 485 372 485 q 476 480 447 485 q 535 464 506 475 q 583 435 564 453 q 603 392 603 417 q 599 386 603 386 q 590 393 594 386 q 530 428 567 413 q 456 443 493 443 q 374 425 421 443 q 280 378 328 407 q 191 314 232 349 q 124 245 150 279 q 99 183 99 211 q 110 155 99 168 q 147 142 121 142 q 237 171 188 142 q 335 246 286 200 q 419 339 383 292 l 428 369 q 438 399 432 388 q 457 411 443 411 q 501 396 478 411 q 525 367 525 381 q 476 199 500 292 q 435 8 453 106 q 406 -179 417 -89 q 396 -340 396 -269 q 397 -385 396 -364 q 401 -424 399 -407 q 390 -436 400 -436 z "},"r":{"ha":390,"x_min":32,"x_max":485,"o":"m 308 74 q 239 131 257 74 q 221 274 221 189 q 224 363 221 319 q 228 436 226 407 q 185 445 206 439 q 154 458 165 451 q 143 419 153 449 q 120 350 133 389 q 92 274 107 311 q 63 212 76 236 q 38 188 49 188 q 32 196 32 188 q 42 226 32 207 q 92 343 69 283 q 132 467 114 403 q 112 487 118 472 q 106 519 106 501 q 120 601 106 569 q 153 649 135 633 q 181 665 171 665 q 197 638 197 665 q 190 595 197 624 q 174 537 183 567 q 157 489 164 507 q 165 483 157 489 q 183 478 174 478 q 210 495 197 478 q 242 530 224 513 q 290 547 261 547 q 317 544 306 547 q 328 532 328 540 l 328 528 q 307 437 314 493 q 300 324 300 381 q 306 230 300 274 q 323 160 311 186 q 351 133 335 133 q 383 151 368 133 q 410 190 399 169 q 426 221 422 211 q 463 291 456 275 q 481 307 469 307 q 485 301 485 307 q 482 288 485 299 q 441 192 465 242 q 383 108 417 143 q 308 74 350 74 z "},"s":{"ha":369,"x_min":29,"x_max":443,"o":"m 139 67 q 92 73 118 67 q 48 90 67 79 q 29 110 29 100 q 71 132 29 132 q 126 142 94 132 q 185 163 158 151 q 221 181 213 175 q 194 206 215 189 q 149 249 174 224 q 105 305 124 274 q 86 374 86 336 q 107 447 86 413 q 159 509 128 481 q 223 559 190 538 q 279 594 256 581 q 300 600 289 600 q 342 585 322 600 q 363 556 363 569 q 360 549 363 554 q 335 510 349 536 q 313 455 322 483 q 303 403 303 426 q 292 376 303 376 q 283 388 286 376 q 281 408 281 399 q 290 468 281 436 q 301 514 299 500 q 256 492 285 514 q 199 440 228 471 q 149 377 169 408 q 129 326 129 346 q 147 278 129 300 q 192 239 165 257 q 243 200 219 221 q 286 220 257 206 q 348 251 315 235 q 406 278 381 267 q 440 289 432 289 q 443 288 443 289 q 422 263 443 278 q 371 231 401 247 q 310 199 340 214 q 264 175 281 183 q 268 150 268 163 q 248 103 268 121 q 198 76 228 85 q 139 67 168 67 z "},"t":{"ha":269,"x_min":-176,"x_max":758,"o":"m 219 -21 q 140 10 171 -21 q 94 92 110 42 q 72 199 78 142 q 67 308 67 257 q 68 365 67 339 q 71 408 69 390 q 81 524 74 461 q 97 654 88 588 q -35 636 25 643 q -136 629 -96 629 q -153 643 -142 629 q -170 672 -164 657 q -171 686 -176 688 q -144 684 -157 685 q -118 683 -132 683 q -26 689 -76 683 q 104 703 25 694 q 128 840 115 772 q 156 969 142 908 q 169 1014 163 997 q 193 1028 175 1031 q 228 1015 210 1025 q 253 993 246 1006 q 293 927 281 967 q 306 839 306 888 q 293 726 306 788 q 451 753 369 738 q 609 787 532 769 q 749 818 686 804 q 751 816 758 821 q 732 806 744 811 q 711 797 719 800 q 511 738 624 767 q 285 686 399 708 q 222 494 263 593 q 138 303 182 394 q 137 276 138 289 q 136 249 136 263 q 144 127 136 181 q 169 40 151 74 q 198 8 182 17 q 229 -1 214 -1 q 258 4 244 -1 q 279 13 272 10 q 300 18 294 19 q 299 10 306 17 q 274 -8 294 4 q 219 -21 253 -21 m 193 713 l 213 715 l 261 721 q 272 782 268 753 q 275 838 275 811 q 249 953 275 910 q 219 836 233 897 q 193 713 206 775 m 142 375 q 204 529 175 451 q 251 679 233 607 q 217 674 233 676 q 183 668 200 671 q 159 519 169 593 q 142 375 149 444 z "},"u":{"ha":410,"x_min":6,"x_max":497,"o":"m 332 -1 q 287 22 308 -1 q 265 81 265 44 q 270 216 265 149 q 281 337 275 283 q 290 415 288 390 q 256 299 276 357 q 214 190 235 240 q 178 105 193 139 q 160 61 163 71 q 136 46 154 46 q 104 54 122 46 q 73 74 86 63 q 58 94 60 86 q 57 110 57 101 q 57 129 57 119 q 65 252 57 193 q 81 369 74 311 q 89 431 83 396 q 94 497 94 465 q 93 524 94 511 q 88 547 92 538 q 60 565 82 558 q 22 571 38 571 q 6 579 6 571 q 35 597 6 594 q 83 603 61 600 q 126 607 106 607 q 158 603 146 607 q 169 588 169 599 q 160 460 169 535 q 140 308 150 386 q 129 168 129 231 q 131 131 129 149 q 139 114 132 114 q 165 144 149 114 q 202 229 182 176 q 242 342 222 282 q 276 458 261 403 q 300 551 292 514 q 311 558 301 558 q 345 542 326 558 q 372 507 364 526 q 361 446 368 490 q 347 346 354 401 q 336 237 340 290 q 332 147 332 183 q 341 97 332 104 q 360 89 350 89 q 385 108 371 89 q 415 157 400 128 q 446 215 431 186 q 473 263 461 243 q 492 282 485 282 q 497 275 497 282 q 493 260 497 271 q 474 215 488 246 q 443 147 461 183 q 406 76 425 110 q 367 21 386 43 q 332 -1 347 -1 z "},"v":{"ha":408,"x_min":36,"x_max":499,"o":"m 188 18 q 126 39 143 18 q 110 94 110 60 q 114 208 110 139 q 118 342 118 278 q 110 446 118 414 q 78 478 101 478 q 65 475 72 478 q 51 472 58 472 q 36 483 36 472 q 54 495 36 489 q 95 506 72 501 q 135 510 118 510 q 174 504 161 510 q 192 477 188 499 q 197 406 197 456 q 191 258 197 343 q 176 104 185 174 q 210 191 185 140 q 267 297 235 242 q 332 399 300 351 q 387 481 364 447 q 414 519 410 514 q 454 543 432 543 q 486 531 474 543 q 499 513 499 519 q 477 487 497 503 q 438 460 457 471 q 384 413 414 447 q 323 333 354 379 q 265 236 292 288 q 222 136 238 185 q 206 51 206 88 q 206 41 206 46 q 207 31 207 36 q 188 18 207 18 z "},"w":{"ha":792,"x_min":79,"x_max":871,"o":"m 147 50 q 91 75 103 50 q 79 132 79 100 q 91 240 79 172 q 136 408 103 307 q 176 485 156 465 q 214 506 196 506 q 250 488 238 506 q 263 465 263 471 q 256 433 263 456 q 238 392 249 411 q 214 368 226 372 q 190 315 204 353 q 163 235 175 278 q 151 160 151 192 q 164 133 151 133 q 190 151 174 133 q 243 215 213 178 q 306 293 274 253 q 364 365 339 333 l 364 378 q 376 431 364 414 q 401 447 389 447 q 424 418 424 447 q 440 332 426 381 q 478 238 454 283 q 531 162 501 192 q 592 132 560 132 q 640 154 624 132 q 664 206 657 176 q 671 258 671 236 q 651 376 671 328 q 606 453 631 425 q 576 464 588 456 q 564 486 564 472 q 574 500 564 500 l 576 500 q 654 489 600 493 q 760 485 708 485 q 824 487 796 485 q 858 494 851 489 q 865 497 864 497 q 871 490 871 497 q 863 475 871 482 q 790 457 844 464 q 681 450 736 450 l 678 450 q 720 351 700 411 q 740 231 740 292 q 708 136 740 178 q 631 94 676 94 q 528 119 572 94 q 453 183 485 144 q 401 260 421 221 q 372 329 382 300 q 259 188 300 243 q 198 103 218 133 q 168 62 178 74 q 147 50 158 50 z "},"x":{"ha":401,"x_min":-115,"x_max":485,"o":"m -108 -122 q -115 -117 -115 -122 q -112 -111 -115 -117 q -29 -10 -79 -68 q 74 114 21 49 q 174 242 128 179 q 161 285 168 263 q 149 329 154 307 q 135 344 143 344 q 117 324 128 344 q 94 276 106 303 q 71 229 82 250 q 51 208 60 208 q 46 218 46 208 q 65 278 46 229 q 114 390 83 326 q 120 404 114 390 q 135 436 126 418 q 156 467 144 454 q 178 481 167 481 q 199 469 190 481 q 210 442 208 458 q 219 374 213 407 q 231 313 225 342 q 270 373 246 333 q 320 459 294 413 q 365 551 346 506 q 388 631 383 597 q 394 635 388 635 q 413 613 410 635 q 417 575 417 590 q 401 513 417 546 q 348 428 386 481 q 238 288 310 376 q 288 159 260 207 q 339 111 317 111 q 383 137 361 111 q 423 195 404 163 q 456 253 442 228 q 478 279 471 279 q 485 271 485 279 q 474 235 485 261 q 443 178 463 210 q 400 115 424 146 q 350 65 376 85 q 300 44 324 44 q 239 92 268 44 q 185 210 210 139 q 67 47 125 122 q -37 -76 8 -29 q -108 -122 -83 -122 z "},"y":{"ha":411,"x_min":-26,"x_max":488,"o":"m 60 -650 q 44 -637 44 -650 q 50 -622 44 -629 q 97 -513 69 -579 q 154 -367 124 -447 q 214 -199 185 -286 q 267 -25 243 -111 q 190 -89 229 -56 q 115 -169 151 -122 q 45 -305 69 -226 q 21 -450 21 -383 q 54 -571 21 -531 q 58 -576 58 -575 q 58 -577 58 -576 q 56 -578 57 -578 q 42 -574 50 -578 q 28 -561 35 -569 q -13 -491 0 -532 q -26 -403 -26 -450 q -6 -293 -26 -349 q 56 -189 15 -237 q 171 -68 113 -119 q 281 29 229 -17 q 304 135 294 83 q 318 232 314 186 q 324 323 322 282 q 325 397 325 364 q 321 461 325 435 q 276 382 299 431 q 235 281 254 333 q 206 181 217 228 q 194 108 194 135 q 195 99 194 103 q 196 90 196 94 q 176 82 196 82 q 115 97 133 82 q 97 143 97 113 q 100 217 97 172 q 105 313 103 263 q 107 410 107 364 q 97 522 107 489 q 64 556 88 556 q 38 547 53 556 q 3 538 22 538 q -7 542 -4 538 q 6 550 -6 539 q 47 574 18 561 q 125 586 75 586 q 163 580 150 586 q 181 546 176 574 q 185 453 185 518 q 182 345 185 404 q 175 233 179 286 q 165 146 171 181 q 189 215 174 172 q 223 309 204 258 q 259 408 242 360 q 290 490 276 456 q 308 538 304 525 l 308 539 q 309 540 308 540 q 310 542 310 540 l 310 540 q 326 544 314 544 q 367 518 356 544 q 382 453 379 492 q 385 376 385 414 q 377 242 385 313 q 358 100 369 172 q 410 158 386 128 q 450 224 433 189 q 468 251 457 240 q 485 263 479 263 q 488 257 488 263 q 478 226 488 247 q 417 119 451 163 q 347 40 383 75 q 297 -168 325 -67 q 242 -352 269 -269 q 193 -488 214 -435 q 165 -554 172 -542 q 108 -628 138 -606 q 60 -650 78 -650 z "},"z":{"ha":460,"x_min":49,"x_max":544,"o":"m 428 -29 q 367 -15 406 -29 q 289 16 328 -1 q 228 43 250 33 q 174 65 207 53 q 114 86 142 76 l 110 74 q 93 51 101 51 q 82 72 82 51 q 86 96 82 82 l 60 106 q 49 119 49 110 q 76 153 49 139 q 133 168 104 168 q 200 249 161 203 q 281 345 239 296 q 360 439 322 394 q 306 455 339 446 q 246 472 274 464 q 210 479 218 479 q 162 462 181 479 q 132 426 143 444 q 113 408 121 408 q 106 418 106 408 q 106 424 106 421 q 108 431 107 426 q 138 489 115 454 q 189 551 161 524 q 240 578 217 578 q 264 563 254 578 q 317 489 290 517 q 379 461 343 461 q 434 526 404 489 q 492 613 464 564 q 501 617 494 617 q 528 603 513 617 q 544 571 544 590 q 544 563 544 567 q 542 556 543 560 q 498 489 524 510 q 449 461 472 468 q 408 449 425 454 q 334 363 378 413 q 244 260 290 313 q 164 161 199 207 q 176 156 172 158 q 214 129 183 150 q 285 83 244 108 q 366 40 326 58 q 429 22 406 22 q 453 43 453 22 q 442 98 453 50 q 386 206 431 146 q 382 213 385 208 q 379 219 379 218 q 383 224 379 224 q 419 199 399 224 q 458 140 439 175 q 489 74 476 106 q 501 29 501 43 q 483 -8 501 14 q 428 -29 464 -29 z "},"ʼ":{"ha":129,"x_min":0,"x_max":129,"o":"m 7 757 q 0 763 0 757 q 8 776 0 768 q 30 824 19 790 q 49 894 40 857 q 67 958 58 932 q 83 985 75 985 q 103 979 92 985 q 125 971 114 974 q 129 963 129 969 q 119 923 129 950 q 96 865 110 896 q 67 808 82 833 q 40 774 51 782 q 7 757 18 757 z "},"ʺ":{"ha":289,"x_min":0,"x_max":289,"o":"m 167 793 q 160 799 160 793 q 168 813 160 804 q 190 854 179 826 q 209 912 200 882 q 226 963 218 942 q 243 985 235 985 q 263 979 251 985 q 285 971 274 974 q 289 963 289 969 q 273 914 289 946 q 236 852 257 882 q 200 810 215 822 q 167 793 178 793 m 7 793 q 0 799 0 793 q 8 813 0 804 q 30 854 19 826 q 49 912 40 882 q 67 963 58 942 q 83 985 75 985 q 103 979 92 985 q 125 971 114 974 q 129 963 129 969 q 113 914 129 946 q 76 852 97 882 q 40 810 56 822 q 7 793 18 793 z "},"ʹ":{"ha":129,"x_min":0,"x_max":129,"o":"m 7 793 q 0 799 0 793 q 8 813 0 804 q 30 854 19 826 q 49 912 40 882 q 67 963 58 942 q 83 985 75 985 q 103 979 92 985 q 125 971 114 974 q 129 963 129 969 q 113 914 129 946 q 76 852 97 882 q 40 810 56 822 q 7 793 18 793 z "},"̈":{"ha":0,"x_min":0,"x_max":254,"o":"m 197 611 q 167 622 185 611 q 157 640 157 628 q 178 673 157 653 q 235 693 200 693 q 254 685 254 693 q 247 675 254 679 q 228 649 235 664 q 217 622 222 633 q 197 611 211 611 m 40 611 q 10 622 28 611 q 0 640 0 628 q 22 673 0 653 q 78 693 43 693 q 97 685 97 693 q 90 675 97 679 q 72 649 78 664 q 60 622 65 633 q 40 611 54 611 z "},"̇":{"ha":0,"x_min":11,"x_max":108,"o":"m 51 611 q 21 622 39 611 q 11 640 11 628 q 33 673 11 653 q 89 693 54 693 q 108 685 108 693 q 101 675 108 679 q 83 649 89 664 q 71 622 76 633 q 51 611 65 611 z "},"̀":{"ha":0,"x_min":-1,"x_max":186,"o":"m 179 611 q 149 619 169 611 q 110 638 135 625 q 60 667 85 651 q 17 697 35 683 q 0 717 0 711 q 10 738 -1 724 q 28 751 21 751 q 35 750 32 751 q 47 742 39 749 q 68 725 51 739 q 106 694 85 711 q 146 661 128 676 q 171 642 164 646 q 186 622 186 631 q 179 611 186 611 z "},"́":{"ha":0,"x_min":-1,"x_max":203,"o":"m 6 611 q 0 622 -1 611 q 18 642 3 632 q 46 661 25 646 q 90 694 67 676 q 133 725 114 711 q 156 742 151 739 q 169 750 165 749 q 176 751 172 751 q 193 738 183 751 q 200 717 203 724 q 179 697 199 711 q 133 667 160 683 q 79 638 106 651 q 38 619 53 625 q 6 611 15 611 z "},"̋":{"ha":0,"x_min":0,"x_max":199,"o":"m 13 611 q 3 615 8 608 q 0 622 0 618 q 4 636 0 628 q 13 663 7 643 q 25 704 18 682 q 38 744 32 726 q 44 765 43 761 q 54 781 49 778 q 63 782 56 782 q 83 779 71 782 q 97 771 96 776 q 94 749 101 767 q 76 708 88 731 q 53 664 65 685 q 32 632 40 643 q 13 611 22 615 m 114 611 q 104 615 110 608 q 101 622 101 618 q 106 636 101 628 q 114 663 108 643 q 126 704 119 682 q 139 744 133 726 q 146 765 144 761 q 156 781 150 778 q 164 782 157 782 q 183 779 172 782 q 194 771 193 776 q 192 749 199 767 q 176 708 186 731 q 153 664 165 685 q 133 632 142 643 q 114 611 124 615 z "},"̂":{"ha":0,"x_min":-21,"x_max":303,"o":"m -14 604 q -17 615 -21 604 q 7 635 -12 624 q 39 653 15 639 q 90 685 63 668 q 140 717 118 703 q 168 735 163 731 q 181 741 175 738 q 192 744 186 744 q 201 741 197 744 q 206 735 204 738 q 229 707 211 729 q 267 663 247 685 q 292 635 286 642 q 299 615 303 624 q 288 604 294 604 q 261 613 278 604 q 215 641 244 619 q 165 681 185 663 q 88 641 132 663 q 21 613 44 619 q -14 604 -4 604 z "},"̌":{"ha":0,"x_min":13,"x_max":336,"o":"m 329 744 q 332 733 336 744 q 308 714 328 725 q 276 695 300 710 q 225 663 253 681 q 176 632 197 646 q 147 614 154 618 q 135 608 142 611 q 124 604 129 604 q 115 608 118 604 q 110 614 111 613 q 87 642 106 619 q 49 686 68 664 q 24 714 31 708 q 17 733 13 725 q 28 744 21 744 q 54 736 38 744 q 101 708 71 729 q 150 668 131 688 q 228 708 183 688 q 294 736 272 729 q 329 744 319 744 z "},"̆":{"ha":0,"x_min":-3,"x_max":251,"o":"m 101 603 q 27 632 57 603 q 0 704 -3 661 q 10 732 3 732 q 28 713 19 732 q 54 676 36 694 q 113 657 72 657 q 175 673 149 657 q 219 707 201 689 q 244 732 236 725 q 249 733 246 733 q 251 724 251 733 q 227 665 250 693 q 171 620 204 638 q 101 603 138 603 z "},"̊":{"ha":0,"x_min":-4,"x_max":208,"o":"m 81 621 q 19 639 43 621 q -4 682 -4 657 q 32 755 -4 726 q 119 783 68 783 q 183 763 158 783 q 208 718 208 743 q 172 647 208 674 q 81 621 136 621 m 96 649 q 138 669 124 649 q 151 710 151 689 q 142 743 151 729 q 113 757 132 757 q 70 736 86 757 q 54 692 54 715 q 65 661 54 674 q 96 649 75 649 z "},"̃":{"ha":0,"x_min":0,"x_max":274,"o":"m 186 626 q 143 638 164 626 q 103 659 122 649 q 61 669 83 669 q 24 654 35 669 q 7 633 13 639 q 0 638 0 633 q 26 692 3 667 q 92 718 50 718 q 153 700 125 718 q 214 682 182 682 q 242 690 229 682 q 264 711 254 699 q 274 707 274 711 q 262 674 272 693 q 233 641 251 656 q 186 626 214 626 z "},"̄":{"ha":0,"x_min":-14,"x_max":265,"o":"m 11 631 q -2 632 10 631 q -14 639 -14 633 q 1 663 -14 656 q 35 673 15 671 q 68 675 54 675 q 117 674 85 675 q 181 673 150 674 q 225 671 213 672 q 265 656 265 667 q 240 639 265 643 q 172 634 215 636 q 85 631 129 632 q 11 631 42 631 z "},"̉":{"ha":0,"x_min":6,"x_max":175,"o":"m 54 611 q 47 616 49 611 q 50 626 44 621 q 88 667 68 642 q 110 717 107 693 q 102 747 113 736 q 72 758 92 758 q 32 753 47 758 q 14 749 17 749 q 8 753 11 749 q 13 764 6 758 q 60 787 32 781 q 106 793 89 793 q 153 779 132 793 q 172 738 175 765 q 148 681 168 706 q 104 640 128 657 q 64 614 81 624 q 54 611 58 611 z "},"̏":{"ha":0,"x_min":-1,"x_max":286,"o":"m 271 622 q 242 636 258 625 q 209 663 229 644 q 168 701 189 681 q 134 737 147 721 q 122 758 121 753 q 137 776 121 767 q 160 783 153 786 q 175 772 167 783 q 191 751 178 768 q 221 713 204 735 q 251 674 238 692 q 271 651 265 657 q 281 631 286 636 q 271 622 281 619 m 169 618 q 139 629 161 618 q 101 651 125 636 q 55 684 78 665 q 16 718 32 703 q 0 739 0 733 q 11 759 -1 746 q 31 771 24 772 q 49 760 38 771 q 68 742 53 757 q 103 706 83 726 q 140 670 122 686 q 164 649 157 654 q 176 628 179 636 q 169 618 176 618 z "},"̑":{"ha":0,"x_min":0,"x_max":254,"o":"m 150 732 q 224 703 194 732 q 251 631 254 675 q 242 603 249 603 q 224 622 232 603 q 197 659 215 640 q 139 678 179 678 q 76 662 103 678 q 33 628 50 646 q 7 603 15 610 q 3 601 6 601 q 0 611 0 601 q 25 669 3 642 q 81 715 47 697 q 150 732 114 732 z "},"̒":{"ha":0,"x_min":0,"x_max":142,"o":"m 39 611 q 29 612 35 611 q 17 614 24 613 q 0 629 0 619 q 19 669 1 644 q 59 717 36 693 q 103 758 82 742 q 135 774 125 774 q 142 768 142 774 q 135 758 142 765 q 92 684 103 718 q 72 631 81 650 q 39 611 64 611 z "},"̛":{"ha":0,"x_min":0,"x_max":149,"o":"m 46 508 q 16 515 32 508 q 0 528 0 521 q 1 537 0 531 q 3 547 1 543 q 35 539 11 539 q 81 561 71 539 q 90 597 90 583 q 87 621 90 607 q 83 640 83 635 q 86 654 83 647 q 99 661 89 661 q 138 636 126 661 q 149 592 149 611 q 124 538 149 567 q 46 508 100 508 z "},"̣":{"ha":0,"x_min":0,"x_max":101,"o":"m 43 -169 q 11 -158 29 -169 q 0 -139 0 -151 q 22 -104 0 -125 q 81 -83 44 -83 q 101 -93 101 -83 q 94 -103 101 -99 q 75 -130 81 -114 q 63 -158 69 -146 q 43 -169 57 -169 z "},"̤":{"ha":0,"x_min":0,"x_max":254,"o":"m 197 -167 q 167 -156 185 -167 q 157 -137 157 -150 q 178 -105 157 -125 q 235 -85 200 -85 q 254 -93 254 -85 q 247 -103 254 -99 q 228 -129 235 -114 q 217 -156 222 -144 q 197 -167 211 -167 m 40 -167 q 10 -156 28 -167 q 0 -137 0 -150 q 22 -105 0 -125 q 78 -85 43 -85 q 97 -93 97 -85 q 90 -103 97 -99 q 72 -129 78 -114 q 60 -156 65 -144 q 40 -167 54 -167 z "},"̦":{"ha":0,"x_min":0,"x_max":140,"o":"m 7 -293 q 0 -287 0 -293 q 7 -274 0 -285 q 41 -199 31 -233 q 57 -138 51 -164 q 72 -98 63 -112 q 101 -83 81 -83 q 112 -84 107 -83 q 122 -86 117 -85 q 140 -104 140 -90 q 124 -154 140 -122 q 85 -217 108 -186 q 40 -271 63 -249 q 7 -293 18 -293 z "},"̧":{"ha":0,"x_min":0,"x_max":217,"o":"m 44 -285 q 7 -281 24 -285 q 0 -262 0 -278 q 7 -251 0 -249 q 29 -255 18 -253 q 51 -257 40 -257 q 119 -242 88 -257 q 150 -196 150 -228 q 140 -162 150 -178 q 119 -133 131 -147 q 98 -101 107 -118 q 93 -67 89 -85 q 126 -10 100 -32 q 197 11 151 11 q 209 10 203 11 q 217 3 215 10 q 167 -17 186 0 q 146 -46 149 -33 q 153 -81 142 -67 q 179 -111 165 -96 q 206 -142 194 -125 q 213 -182 217 -158 q 178 -238 206 -215 q 114 -273 150 -261 q 44 -285 78 -285 z "},"̨":{"ha":0,"x_min":0,"x_max":249,"o":"m 82 -243 q 22 -226 44 -243 q 0 -179 0 -210 q 0 -171 0 -175 q 1 -161 0 -167 q 30 -97 7 -132 q 81 -35 53 -61 q 126 -8 108 -8 l 138 -10 q 97 -67 118 -32 q 71 -132 76 -103 q 69 -143 69 -137 q 68 -154 68 -149 q 83 -194 68 -179 q 124 -210 97 -210 q 151 -206 139 -210 q 178 -199 164 -203 q 203 -187 192 -193 q 226 -176 215 -182 q 238 -172 235 -172 q 231 -192 249 -172 q 181 -224 213 -212 q 82 -243 122 -243 z "},"̮":{"ha":0,"x_min":-10,"x_max":244,"o":"m 94 -206 q 20 -176 50 -206 q -7 -104 -10 -147 q 3 -76 -4 -76 q 21 -95 13 -76 q 47 -133 29 -114 q 106 -151 65 -151 q 168 -135 142 -151 q 212 -101 194 -119 q 238 -76 229 -83 q 242 -75 239 -75 q 244 -85 244 -75 q 220 -143 243 -115 q 164 -188 197 -171 q 94 -206 131 -206 z "},"̱":{"ha":0,"x_min":0,"x_max":251,"o":"m 25 -150 q 12 -149 24 -150 q 0 -142 0 -147 q 15 -117 0 -125 q 49 -108 29 -110 q 82 -106 68 -106 q 124 -106 99 -106 q 174 -108 150 -107 q 211 -110 199 -108 q 251 -125 251 -114 q 226 -142 251 -137 q 129 -149 188 -147 q 25 -150 71 -150 z "},"̵":{"ha":0,"x_min":0,"x_max":300,"o":"m 31 265 q 14 267 28 265 q 0 274 0 268 q 17 298 0 290 q 58 308 35 306 q 99 310 82 310 q 149 309 118 310 q 208 308 179 308 q 253 306 238 307 q 290 299 279 304 q 300 290 300 294 q 271 274 300 278 q 198 269 240 271 q 111 266 156 267 q 31 265 67 265 z "},"¨":{"ha":260,"x_min":0,"x_max":254,"o":"m 197 611 q 167 622 185 611 q 157 640 157 628 q 178 673 157 653 q 235 693 200 693 q 254 685 254 693 q 247 675 254 679 q 228 649 235 664 q 217 622 222 633 q 197 611 211 611 m 40 611 q 10 622 28 611 q 0 640 0 628 q 22 673 0 653 q 78 693 43 693 q 97 685 97 693 q 90 675 97 679 q 72 649 78 664 q 60 622 65 633 q 40 611 54 611 z "},"˙":{"ha":97,"x_min":11,"x_max":108,"o":"m 51 611 q 21 622 39 611 q 11 640 11 628 q 33 673 11 653 q 89 693 54 693 q 108 685 108 693 q 101 675 108 679 q 83 649 89 664 q 71 622 76 633 q 51 611 65 611 z "},"`":{"ha":186,"x_min":-1,"x_max":186,"o":"m 179 611 q 149 619 169 611 q 110 638 135 625 q 60 667 85 651 q 17 697 35 683 q 0 717 0 711 q 10 738 -1 724 q 28 751 21 751 q 35 750 32 751 q 47 742 39 749 q 68 725 51 739 q 106 694 85 711 q 146 661 128 676 q 171 642 164 646 q 186 622 186 631 q 179 611 186 611 z "},"´":{"ha":186,"x_min":-1,"x_max":203,"o":"m 6 611 q 0 622 -1 611 q 18 642 3 632 q 46 661 25 646 q 90 694 67 676 q 133 725 114 711 q 156 742 151 739 q 169 750 165 749 q 176 751 172 751 q 193 738 183 751 q 200 717 203 724 q 179 697 199 711 q 133 667 160 683 q 79 638 106 651 q 38 619 53 625 q 6 611 15 611 z "},"˝":{"ha":232,"x_min":0,"x_max":199,"o":"m 13 611 q 3 615 8 608 q 0 622 0 618 q 4 636 0 628 q 13 663 7 643 q 25 704 18 682 q 38 744 32 726 q 44 765 43 761 q 54 781 49 778 q 63 782 56 782 q 83 779 71 782 q 97 771 96 776 q 94 749 101 767 q 76 708 88 731 q 53 664 65 685 q 32 632 40 643 q 13 611 22 615 m 114 611 q 104 615 110 608 q 101 622 101 618 q 106 636 101 628 q 114 663 108 643 q 126 704 119 682 q 139 744 133 726 q 146 765 144 761 q 156 781 150 778 q 164 782 157 782 q 183 779 172 782 q 194 771 193 776 q 192 749 199 767 q 176 708 186 731 q 153 664 165 685 q 133 632 142 643 q 114 611 124 615 z "},"ˆ":{"ha":315,"x_min":-21,"x_max":303,"o":"m -14 604 q -17 615 -21 604 q 7 635 -12 624 q 39 653 15 639 q 90 685 63 668 q 140 717 118 703 q 168 735 163 731 q 181 741 175 738 q 192 744 186 744 q 201 741 197 744 q 206 735 204 738 q 229 707 211 729 q 267 663 247 685 q 292 635 286 642 q 299 615 303 624 q 288 604 294 604 q 261 613 278 604 q 215 641 244 619 q 165 681 185 663 q 88 641 132 663 q 21 613 44 619 q -14 604 -4 604 z "},"ˇ":{"ha":315,"x_min":13,"x_max":336,"o":"m 329 744 q 332 733 336 744 q 308 714 328 725 q 276 695 300 710 q 225 663 253 681 q 176 632 197 646 q 147 614 154 618 q 135 608 142 611 q 124 604 129 604 q 115 608 118 604 q 110 614 111 613 q 87 642 106 619 q 49 686 68 664 q 24 714 31 708 q 17 733 13 725 q 28 744 21 744 q 54 736 38 744 q 101 708 71 729 q 150 668 131 688 q 228 708 183 688 q 294 736 272 729 q 329 744 319 744 z "},"˘":{"ha":279,"x_min":-3,"x_max":251,"o":"m 101 603 q 27 632 57 603 q 0 704 -3 661 q 10 732 3 732 q 28 713 19 732 q 54 676 36 694 q 113 657 72 657 q 175 673 149 657 q 219 707 201 689 q 244 732 236 725 q 249 733 246 733 q 251 724 251 733 q 227 665 250 693 q 171 620 204 638 q 101 603 138 603 z "},"˚":{"ha":204,"x_min":-4,"x_max":208,"o":"m 81 621 q 19 639 43 621 q -4 682 -4 657 q 32 755 -4 726 q 119 783 68 783 q 183 763 158 783 q 208 718 208 743 q 172 647 208 674 q 81 621 136 621 m 96 649 q 138 669 124 649 q 151 710 151 689 q 142 743 151 729 q 113 757 132 757 q 70 736 86 757 q 54 692 54 715 q 65 661 54 674 q 96 649 75 649 z "},"˜":{"ha":272,"x_min":0,"x_max":274,"o":"m 186 626 q 143 638 164 626 q 103 659 122 649 q 61 669 83 669 q 24 654 35 669 q 7 633 13 639 q 0 638 0 633 q 26 692 3 667 q 92 718 50 718 q 153 700 125 718 q 214 682 182 682 q 242 690 229 682 q 264 711 254 699 q 274 707 274 711 q 262 674 272 693 q 233 641 251 656 q 186 626 214 626 z "},"¯":{"ha":251,"x_min":-14,"x_max":265,"o":"m 11 631 q -2 632 10 631 q -14 639 -14 633 q 1 663 -14 656 q 35 673 15 671 q 68 675 54 675 q 117 674 85 675 q 181 673 150 674 q 225 671 213 672 q 265 656 265 667 q 240 639 265 643 q 172 634 215 636 q 85 631 129 632 q 11 631 42 631 z "},"¸":{"ha":217,"x_min":0,"x_max":217,"o":"m 44 -285 q 7 -281 24 -285 q 0 -262 0 -278 q 7 -251 0 -249 q 29 -255 18 -253 q 51 -257 40 -257 q 119 -242 88 -257 q 150 -196 150 -228 q 140 -162 150 -178 q 119 -133 131 -147 q 98 -101 107 -118 q 93 -67 89 -85 q 126 -10 100 -32 q 197 11 151 11 q 209 10 203 11 q 217 3 215 10 q 167 -17 186 0 q 146 -46 149 -33 q 153 -81 142 -67 q 179 -111 165 -96 q 206 -142 194 -125 q 213 -182 217 -158 q 178 -238 206 -215 q 114 -273 150 -261 q 44 -285 78 -285 z "},"˛":{"ha":242,"x_min":0,"x_max":249,"o":"m 82 -243 q 22 -226 44 -243 q 0 -179 0 -210 q 0 -171 0 -175 q 1 -161 0 -167 q 30 -97 7 -132 q 81 -35 53 -61 q 126 -8 108 -8 l 138 -10 q 97 -67 118 -32 q 71 -132 76 -103 q 69 -143 69 -137 q 68 -154 68 -149 q 83 -194 68 -179 q 124 -210 97 -210 q 151 -206 139 -210 q 178 -199 164 -203 q 203 -187 192 -193 q 226 -176 215 -182 q 238 -172 235 -172 q 231 -192 249 -172 q 181 -224 213 -212 q 82 -243 122 -243 z "},"Á":{"ha":715,"x_min":-125,"x_max":789,"o":"m -118 -125 q -125 -121 -125 -125 q -121 -114 -125 -118 q -1 24 -64 -53 q 128 186 63 101 q 33 228 71 204 q -4 286 -4 251 q 8 303 -4 301 q 33 306 19 306 q 109 294 69 306 q 189 268 149 283 q 407 579 306 425 q 383 828 390 714 q 376 1004 376 942 q 376 1033 376 1021 q 378 1053 376 1046 q 385 1107 382 1086 q 413 1128 388 1128 q 444 1125 426 1128 q 475 1115 461 1122 q 481 1117 476 1117 q 483 1116 482 1117 q 485 1115 483 1115 q 557 1053 528 1094 q 586 944 586 1013 q 564 821 586 892 q 492 657 542 750 q 500 433 492 543 q 525 231 508 324 q 532 193 528 211 q 539 158 536 175 q 605 168 567 161 q 681 188 643 175 q 744 221 718 201 q 769 265 769 240 q 774 272 769 272 q 783 262 778 272 q 789 235 789 251 q 611 144 789 171 q 575 135 593 142 q 549 117 557 128 q 588 4 568 44 q 625 -68 607 -36 q 617 -72 625 -72 q 590 -64 607 -72 q 563 -37 574 -56 q 543 2 553 -18 q 524 44 533 22 q 462 117 488 97 q 429 139 436 138 q 392 142 432 139 q 292 153 353 144 q 171 175 232 161 q -2 -42 74 42 q -118 -125 -78 -125 m 492 721 q 547 847 531 794 q 563 939 563 900 q 547 1008 563 981 q 507 1054 531 1036 q 497 893 501 978 q 492 721 492 808 m 486 161 q 444 342 463 247 q 414 529 426 436 q 318 386 365 456 q 226 253 271 317 q 356 199 290 226 q 486 161 422 171 m 400 1179 q 393 1190 393 1179 q 408 1210 393 1199 q 440 1233 415 1214 q 494 1276 464 1253 q 547 1317 524 1299 q 574 1338 569 1335 q 585 1346 582 1344 q 593 1347 589 1347 q 607 1337 599 1347 q 622 1315 615 1326 q 626 1299 628 1304 q 602 1277 626 1293 q 543 1242 578 1261 q 477 1208 508 1224 q 431 1188 446 1193 q 400 1179 410 1179 z "},"Ă":{"ha":715,"x_min":-125,"x_max":789,"o":"m -118 -125 q -125 -121 -125 -125 q -121 -114 -125 -118 q -1 24 -64 -53 q 128 186 63 101 q 33 228 71 204 q -4 286 -4 251 q 8 303 -4 301 q 33 306 19 306 q 109 294 69 306 q 189 268 149 283 q 407 579 306 425 q 383 828 390 714 q 376 1004 376 942 q 376 1033 376 1021 q 378 1053 376 1046 q 385 1107 382 1086 q 413 1128 388 1128 q 444 1125 426 1128 q 475 1115 461 1122 q 481 1117 476 1117 q 483 1116 482 1117 q 485 1115 483 1115 q 557 1053 528 1094 q 586 944 586 1013 q 564 821 586 892 q 492 657 542 750 q 500 433 492 543 q 525 231 508 324 q 532 193 528 211 q 539 158 536 175 q 605 168 567 161 q 681 188 643 175 q 744 221 718 201 q 769 265 769 240 q 774 272 769 272 q 783 262 778 272 q 789 235 789 251 q 611 144 789 171 q 575 135 593 142 q 549 117 557 128 q 588 4 568 44 q 625 -68 607 -36 q 617 -72 625 -72 q 590 -64 607 -72 q 563 -37 574 -56 q 543 2 553 -18 q 524 44 533 22 q 462 117 488 97 q 429 139 436 138 q 392 142 432 139 q 292 153 353 144 q 171 175 232 161 q -2 -42 74 42 q -118 -125 -78 -125 m 492 721 q 547 847 531 794 q 563 939 563 900 q 547 1008 563 981 q 507 1054 531 1036 q 497 893 501 978 q 492 721 492 808 m 486 161 q 444 342 463 247 q 414 529 426 436 q 318 386 365 456 q 226 253 271 317 q 356 199 290 226 q 486 161 422 171 m 501 1175 q 430 1197 463 1175 q 378 1251 397 1219 q 358 1314 358 1283 q 365 1340 358 1340 q 380 1325 369 1340 q 408 1290 390 1310 q 450 1256 425 1271 q 508 1240 475 1240 q 585 1263 550 1240 q 643 1309 619 1285 q 675 1340 667 1333 q 679 1342 676 1342 q 682 1338 682 1342 q 679 1322 682 1333 q 656 1265 678 1300 q 595 1202 635 1229 q 501 1175 556 1175 z "},"Ắ":{"ha":715,"x_min":-125,"x_max":789,"o":"m -118 -125 q -125 -121 -125 -125 q -121 -114 -125 -118 q -1 24 -64 -53 q 128 186 63 101 q 33 228 71 204 q -4 286 -4 251 q 8 303 -4 301 q 33 306 19 306 q 109 294 69 306 q 189 268 149 283 q 407 579 306 425 q 383 828 390 714 q 376 1004 376 942 q 376 1033 376 1021 q 378 1053 376 1046 q 385 1107 382 1086 q 413 1128 388 1128 q 444 1125 426 1128 q 475 1115 461 1122 q 481 1117 476 1117 q 483 1116 482 1117 q 485 1115 483 1115 q 557 1053 528 1094 q 586 944 586 1013 q 564 821 586 892 q 492 657 542 750 q 500 433 492 543 q 525 231 508 324 q 532 193 528 211 q 539 158 536 175 q 605 168 567 161 q 681 188 643 175 q 744 221 718 201 q 769 265 769 240 q 774 272 769 272 q 783 262 778 272 q 789 235 789 251 q 611 144 789 171 q 575 135 593 142 q 549 117 557 128 q 588 4 568 44 q 625 -68 607 -36 q 617 -72 625 -72 q 590 -64 607 -72 q 563 -37 574 -56 q 543 2 553 -18 q 524 44 533 22 q 462 117 488 97 q 429 139 436 138 q 392 142 432 139 q 292 153 353 144 q 171 175 232 161 q -2 -42 74 42 q -118 -125 -78 -125 m 492 721 q 547 847 531 794 q 563 939 563 900 q 547 1008 563 981 q 507 1054 531 1036 q 497 893 501 978 q 492 721 492 808 m 486 161 q 444 342 463 247 q 414 529 426 436 q 318 386 365 456 q 226 253 271 317 q 356 199 290 226 q 486 161 422 171 m 501 1175 q 430 1197 463 1175 q 378 1251 397 1219 q 358 1314 358 1283 q 365 1340 358 1340 q 380 1325 369 1340 q 408 1290 390 1310 q 450 1256 425 1271 q 508 1240 475 1240 q 585 1263 550 1240 q 643 1309 619 1285 q 675 1340 667 1333 q 679 1342 676 1342 q 682 1338 682 1342 q 679 1322 682 1333 q 656 1265 678 1300 q 595 1202 635 1229 q 501 1175 556 1175 m 421 1350 q 414 1361 414 1350 q 429 1381 414 1369 q 460 1404 436 1385 q 515 1447 485 1424 q 567 1488 544 1469 q 594 1508 590 1506 q 606 1517 603 1515 q 614 1518 610 1518 q 628 1508 619 1518 q 642 1486 636 1497 q 647 1469 649 1475 q 623 1448 647 1464 q 564 1413 599 1432 q 498 1379 529 1394 q 451 1358 467 1364 q 421 1350 431 1350 z "},"Ặ":{"ha":715,"x_min":-125,"x_max":789,"o":"m -118 -125 q -125 -121 -125 -125 q -121 -114 -125 -118 q -1 24 -64 -53 q 128 186 63 101 q 33 228 71 204 q -4 286 -4 251 q 8 303 -4 301 q 33 306 19 306 q 109 294 69 306 q 189 268 149 283 q 407 579 306 425 q 383 828 390 714 q 376 1004 376 942 q 376 1033 376 1021 q 378 1053 376 1046 q 385 1107 382 1086 q 413 1128 388 1128 q 444 1125 426 1128 q 475 1115 461 1122 q 481 1117 476 1117 q 483 1116 482 1117 q 485 1115 483 1115 q 557 1053 528 1094 q 586 944 586 1013 q 564 821 586 892 q 492 657 542 750 q 500 433 492 543 q 525 231 508 324 q 532 193 528 211 q 539 158 536 175 q 605 168 567 161 q 681 188 643 175 q 744 221 718 201 q 769 265 769 240 q 774 272 769 272 q 783 262 778 272 q 789 235 789 251 q 611 144 789 171 q 575 135 593 142 q 549 117 557 128 q 588 4 568 44 q 625 -68 607 -36 q 617 -72 625 -72 q 590 -64 607 -72 q 563 -37 574 -56 q 543 2 553 -18 q 524 44 533 22 q 462 117 488 97 q 429 139 436 138 q 392 142 432 139 q 292 153 353 144 q 171 175 232 161 q -2 -42 74 42 q -118 -125 -78 -125 m 492 721 q 547 847 531 794 q 563 939 563 900 q 547 1008 563 981 q 507 1054 531 1036 q 497 893 501 978 q 492 721 492 808 m 486 161 q 444 342 463 247 q 414 529 426 436 q 318 386 365 456 q 226 253 271 317 q 356 199 290 226 q 486 161 422 171 m 265 -169 q 233 -158 251 -169 q 222 -139 222 -151 q 244 -104 222 -125 q 303 -83 267 -83 q 324 -93 324 -83 q 317 -103 324 -99 q 297 -130 303 -114 q 285 -158 292 -146 q 265 -169 279 -169 m 501 1175 q 430 1197 463 1175 q 378 1251 397 1219 q 358 1314 358 1283 q 365 1340 358 1340 q 380 1325 369 1340 q 408 1290 390 1310 q 450 1256 425 1271 q 508 1240 475 1240 q 585 1263 550 1240 q 643 1309 619 1285 q 675 1340 667 1333 q 679 1342 676 1342 q 682 1338 682 1342 q 679 1322 682 1333 q 656 1265 678 1300 q 595 1202 635 1229 q 501 1175 556 1175 z "},"Ằ":{"ha":715,"x_min":-125,"x_max":789,"o":"m -118 -125 q -125 -121 -125 -125 q -121 -114 -125 -118 q -1 24 -64 -53 q 128 186 63 101 q 33 228 71 204 q -4 286 -4 251 q 8 303 -4 301 q 33 306 19 306 q 109 294 69 306 q 189 268 149 283 q 407 579 306 425 q 383 828 390 714 q 376 1004 376 942 q 376 1033 376 1021 q 378 1053 376 1046 q 385 1107 382 1086 q 413 1128 388 1128 q 444 1125 426 1128 q 475 1115 461 1122 q 481 1117 476 1117 q 483 1116 482 1117 q 485 1115 483 1115 q 557 1053 528 1094 q 586 944 586 1013 q 564 821 586 892 q 492 657 542 750 q 500 433 492 543 q 525 231 508 324 q 532 193 528 211 q 539 158 536 175 q 605 168 567 161 q 681 188 643 175 q 744 221 718 201 q 769 265 769 240 q 774 272 769 272 q 783 262 778 272 q 789 235 789 251 q 611 144 789 171 q 575 135 593 142 q 549 117 557 128 q 588 4 568 44 q 625 -68 607 -36 q 617 -72 625 -72 q 590 -64 607 -72 q 563 -37 574 -56 q 543 2 553 -18 q 524 44 533 22 q 462 117 488 97 q 429 139 436 138 q 392 142 432 139 q 292 153 353 144 q 171 175 232 161 q -2 -42 74 42 q -118 -125 -78 -125 m 492 721 q 547 847 531 794 q 563 939 563 900 q 547 1008 563 981 q 507 1054 531 1036 q 497 893 501 978 q 492 721 492 808 m 486 161 q 444 342 463 247 q 414 529 426 436 q 318 386 365 456 q 226 253 271 317 q 356 199 290 226 q 486 161 422 171 m 501 1175 q 430 1197 463 1175 q 378 1251 397 1219 q 358 1314 358 1283 q 365 1340 358 1340 q 380 1325 369 1340 q 408 1290 390 1310 q 450 1256 425 1271 q 508 1240 475 1240 q 585 1263 550 1240 q 643 1309 619 1285 q 675 1340 667 1333 q 679 1342 676 1342 q 682 1338 682 1342 q 679 1322 682 1333 q 656 1265 678 1300 q 595 1202 635 1229 q 501 1175 556 1175 m 578 1350 q 547 1358 568 1350 q 501 1379 533 1364 q 435 1413 469 1394 q 376 1448 400 1432 q 351 1469 351 1464 q 356 1486 350 1475 q 372 1508 363 1497 q 385 1518 381 1518 q 392 1517 389 1518 q 404 1508 396 1515 q 431 1488 408 1506 q 484 1447 454 1469 q 538 1404 514 1424 q 569 1381 563 1385 q 585 1361 585 1369 q 578 1350 585 1350 z "},"Ẳ":{"ha":715,"x_min":-125,"x_max":789,"o":"m -118 -125 q -125 -121 -125 -125 q -121 -114 -125 -118 q -1 24 -64 -53 q 128 186 63 101 q 33 228 71 204 q -4 286 -4 251 q 8 303 -4 301 q 33 306 19 306 q 109 294 69 306 q 189 268 149 283 q 407 579 306 425 q 383 828 390 714 q 376 1004 376 942 q 376 1033 376 1021 q 378 1053 376 1046 q 385 1107 382 1086 q 413 1128 388 1128 q 444 1125 426 1128 q 475 1115 461 1122 q 481 1117 476 1117 q 483 1116 482 1117 q 485 1115 483 1115 q 557 1053 528 1094 q 586 944 586 1013 q 564 821 586 892 q 492 657 542 750 q 500 433 492 543 q 525 231 508 324 q 532 193 528 211 q 539 158 536 175 q 605 168 567 161 q 681 188 643 175 q 744 221 718 201 q 769 265 769 240 q 774 272 769 272 q 783 262 778 272 q 789 235 789 251 q 611 144 789 171 q 575 135 593 142 q 549 117 557 128 q 588 4 568 44 q 625 -68 607 -36 q 617 -72 625 -72 q 590 -64 607 -72 q 563 -37 574 -56 q 543 2 553 -18 q 524 44 533 22 q 462 117 488 97 q 429 139 436 138 q 392 142 432 139 q 292 153 353 144 q 171 175 232 161 q -2 -42 74 42 q -118 -125 -78 -125 m 492 721 q 547 847 531 794 q 563 939 563 900 q 547 1008 563 981 q 507 1054 531 1036 q 497 893 501 978 q 492 721 492 808 m 486 161 q 444 342 463 247 q 414 529 426 436 q 318 386 365 456 q 226 253 271 317 q 356 199 290 226 q 486 161 422 171 m 501 1175 q 430 1197 463 1175 q 378 1251 397 1219 q 358 1314 358 1283 q 365 1340 358 1340 q 380 1325 369 1340 q 408 1290 390 1310 q 450 1256 425 1271 q 508 1240 475 1240 q 585 1263 550 1240 q 643 1309 619 1285 q 675 1340 667 1333 q 679 1342 676 1342 q 682 1338 682 1342 q 679 1322 682 1333 q 656 1265 678 1300 q 595 1202 635 1229 q 501 1175 556 1175 m 532 1356 q 524 1360 526 1356 q 526 1371 521 1365 q 558 1412 542 1386 q 574 1461 574 1438 q 561 1492 574 1481 q 529 1503 549 1503 q 490 1498 504 1503 q 472 1493 475 1493 q 467 1498 469 1493 q 469 1508 464 1503 q 514 1538 486 1525 q 558 1551 542 1551 q 626 1531 606 1551 q 646 1482 646 1510 q 626 1426 646 1450 q 581 1385 606 1401 q 542 1358 557 1368 q 532 1356 536 1356 z "},"Ẵ":{"ha":715,"x_min":-125,"x_max":789,"o":"m -118 -125 q -125 -121 -125 -125 q -121 -114 -125 -118 q -1 24 -64 -53 q 128 186 63 101 q 33 228 71 204 q -4 286 -4 251 q 8 303 -4 301 q 33 306 19 306 q 109 294 69 306 q 189 268 149 283 q 407 579 306 425 q 383 828 390 714 q 376 1004 376 942 q 376 1033 376 1021 q 378 1053 376 1046 q 385 1107 382 1086 q 413 1128 388 1128 q 444 1125 426 1128 q 475 1115 461 1122 q 481 1117 476 1117 q 483 1116 482 1117 q 485 1115 483 1115 q 557 1053 528 1094 q 586 944 586 1013 q 564 821 586 892 q 492 657 542 750 q 500 433 492 543 q 525 231 508 324 q 532 193 528 211 q 539 158 536 175 q 605 168 567 161 q 681 188 643 175 q 744 221 718 201 q 769 265 769 240 q 774 272 769 272 q 783 262 778 272 q 789 235 789 251 q 611 144 789 171 q 575 135 593 142 q 549 117 557 128 q 588 4 568 44 q 625 -68 607 -36 q 617 -72 625 -72 q 590 -64 607 -72 q 563 -37 574 -56 q 543 2 553 -18 q 524 44 533 22 q 462 117 488 97 q 429 139 436 138 q 392 142 432 139 q 292 153 353 144 q 171 175 232 161 q -2 -42 74 42 q -118 -125 -78 -125 m 492 721 q 547 847 531 794 q 563 939 563 900 q 547 1008 563 981 q 507 1054 531 1036 q 497 893 501 978 q 492 721 492 808 m 486 161 q 444 342 463 247 q 414 529 426 436 q 318 386 365 456 q 226 253 271 317 q 356 199 290 226 q 486 161 422 171 m 501 1175 q 430 1197 463 1175 q 378 1251 397 1219 q 358 1314 358 1283 q 365 1340 358 1340 q 380 1325 369 1340 q 408 1290 390 1310 q 450 1256 425 1271 q 508 1240 475 1240 q 585 1263 550 1240 q 643 1309 619 1285 q 675 1340 667 1333 q 679 1342 676 1342 q 682 1338 682 1342 q 679 1322 682 1333 q 656 1265 678 1300 q 595 1202 635 1229 q 501 1175 556 1175 m 582 1363 q 531 1374 557 1363 q 480 1397 506 1386 q 429 1408 454 1408 q 389 1392 400 1408 q 374 1369 378 1376 q 367 1374 367 1369 q 390 1434 367 1406 q 460 1463 414 1463 q 510 1452 485 1463 q 560 1431 535 1442 q 608 1421 585 1421 q 640 1430 625 1421 q 664 1453 654 1439 q 674 1449 674 1453 q 663 1413 674 1433 q 633 1378 653 1393 q 582 1363 613 1363 z "},"Ǎ":{"ha":715,"x_min":-125,"x_max":789,"o":"m 696 1326 q 701 1315 701 1326 q 683 1296 699 1306 q 653 1275 676 1292 q 601 1238 629 1258 q 550 1202 572 1218 q 522 1182 528 1186 q 512 1176 517 1179 q 501 1172 507 1172 q 492 1176 496 1172 q 485 1182 488 1181 q 460 1202 481 1186 q 415 1238 440 1218 q 370 1275 390 1258 q 343 1296 350 1292 q 331 1315 329 1308 q 339 1326 331 1326 q 368 1318 347 1326 q 408 1302 381 1314 q 465 1276 436 1290 q 510 1250 493 1263 q 560 1276 529 1263 q 620 1302 590 1290 q 664 1318 650 1314 q 696 1326 685 1326 m -118 -125 q -125 -121 -125 -125 q -121 -114 -125 -118 q -1 24 -64 -53 q 128 186 63 101 q 33 228 71 204 q -4 286 -4 251 q 8 303 -4 301 q 33 306 19 306 q 109 294 69 306 q 189 268 149 283 q 407 579 306 425 q 383 828 390 714 q 376 1004 376 942 q 376 1033 376 1021 q 378 1053 376 1046 q 385 1107 382 1086 q 413 1128 388 1128 q 444 1125 426 1128 q 475 1115 461 1122 q 481 1117 476 1117 q 483 1116 482 1117 q 485 1115 483 1115 q 557 1053 528 1094 q 586 944 586 1013 q 564 821 586 892 q 492 657 542 750 q 500 433 492 543 q 525 231 508 324 q 532 193 528 211 q 539 158 536 175 q 605 168 567 161 q 681 188 643 175 q 744 221 718 201 q 769 265 769 240 q 774 272 769 272 q 783 262 778 272 q 789 235 789 251 q 611 144 789 171 q 575 135 593 142 q 549 117 557 128 q 588 4 568 44 q 625 -68 607 -36 q 617 -72 625 -72 q 590 -64 607 -72 q 563 -37 574 -56 q 543 2 553 -18 q 524 44 533 22 q 462 117 488 97 q 429 139 436 138 q 392 142 432 139 q 292 153 353 144 q 171 175 232 161 q -2 -42 74 42 q -118 -125 -78 -125 m 492 721 q 547 847 531 794 q 563 939 563 900 q 547 1008 563 981 q 507 1054 531 1036 q 497 893 501 978 q 492 721 492 808 m 486 161 q 444 342 463 247 q 414 529 426 436 q 318 386 365 456 q 226 253 271 317 q 356 199 290 226 q 486 161 422 171 z "},"Â":{"ha":715,"x_min":-125,"x_max":789,"o":"m -118 -125 q -125 -121 -125 -125 q -121 -114 -125 -118 q -1 24 -64 -53 q 128 186 63 101 q 33 228 71 204 q -4 286 -4 251 q 8 303 -4 301 q 33 306 19 306 q 109 294 69 306 q 189 268 149 283 q 407 579 306 425 q 383 828 390 714 q 376 1004 376 942 q 376 1033 376 1021 q 378 1053 376 1046 q 385 1107 382 1086 q 413 1128 388 1128 q 444 1125 426 1128 q 475 1115 461 1122 q 481 1117 476 1117 q 483 1116 482 1117 q 485 1115 483 1115 q 557 1053 528 1094 q 586 944 586 1013 q 564 821 586 892 q 492 657 542 750 q 500 433 492 543 q 525 231 508 324 q 532 193 528 211 q 539 158 536 175 q 605 168 567 161 q 681 188 643 175 q 744 221 718 201 q 769 265 769 240 q 774 272 769 272 q 783 262 778 272 q 789 235 789 251 q 611 144 789 171 q 575 135 593 142 q 549 117 557 128 q 588 4 568 44 q 625 -68 607 -36 q 617 -72 625 -72 q 590 -64 607 -72 q 563 -37 574 -56 q 543 2 553 -18 q 524 44 533 22 q 462 117 488 97 q 429 139 436 138 q 392 142 432 139 q 292 153 353 144 q 171 175 232 161 q -2 -42 74 42 q -118 -125 -78 -125 m 492 721 q 547 847 531 794 q 563 939 563 900 q 547 1008 563 981 q 507 1054 531 1036 q 497 893 501 978 q 492 721 492 808 m 486 161 q 444 342 463 247 q 414 529 426 436 q 318 386 365 456 q 226 253 271 317 q 356 199 290 226 q 486 161 422 171 m 318 1172 q 313 1183 313 1172 q 331 1203 315 1193 q 361 1224 338 1207 q 413 1260 385 1240 q 464 1297 442 1281 q 492 1317 486 1313 q 502 1323 497 1319 q 513 1326 507 1326 q 523 1323 518 1326 q 529 1317 528 1319 q 553 1297 533 1313 q 599 1260 574 1281 q 644 1224 624 1240 q 671 1203 665 1207 q 683 1183 685 1190 q 675 1172 683 1172 q 646 1181 667 1172 q 606 1197 633 1186 q 550 1222 579 1208 q 504 1249 521 1236 q 455 1222 486 1236 q 394 1197 424 1208 q 350 1181 364 1186 q 318 1172 329 1172 z "},"Ấ":{"ha":715,"x_min":-125,"x_max":789,"o":"m -118 -125 q -125 -121 -125 -125 q -121 -114 -125 -118 q -1 24 -64 -53 q 128 186 63 101 q 33 228 71 204 q -4 286 -4 251 q 8 303 -4 301 q 33 306 19 306 q 109 294 69 306 q 189 268 149 283 q 407 579 306 425 q 383 828 390 714 q 376 1004 376 942 q 376 1033 376 1021 q 378 1053 376 1046 q 385 1107 382 1086 q 413 1128 388 1128 q 444 1125 426 1128 q 475 1115 461 1122 q 481 1117 476 1117 q 483 1116 482 1117 q 485 1115 483 1115 q 557 1053 528 1094 q 586 944 586 1013 q 564 821 586 892 q 492 657 542 750 q 500 433 492 543 q 525 231 508 324 q 532 193 528 211 q 539 158 536 175 q 605 168 567 161 q 681 188 643 175 q 744 221 718 201 q 769 265 769 240 q 774 272 769 272 q 783 262 778 272 q 789 235 789 251 q 611 144 789 171 q 575 135 593 142 q 549 117 557 128 q 588 4 568 44 q 625 -68 607 -36 q 617 -72 625 -72 q 590 -64 607 -72 q 563 -37 574 -56 q 543 2 553 -18 q 524 44 533 22 q 462 117 488 97 q 429 139 436 138 q 392 142 432 139 q 292 153 353 144 q 171 175 232 161 q -2 -42 74 42 q -118 -125 -78 -125 m 492 721 q 547 847 531 794 q 563 939 563 900 q 547 1008 563 981 q 507 1054 531 1036 q 497 893 501 978 q 492 721 492 808 m 486 161 q 444 342 463 247 q 414 529 426 436 q 318 386 365 456 q 226 253 271 317 q 356 199 290 226 q 486 161 422 171 m 318 1172 q 313 1183 313 1172 q 331 1203 315 1193 q 361 1224 338 1207 q 413 1260 385 1240 q 464 1297 442 1281 q 492 1317 486 1313 q 502 1323 497 1319 q 513 1326 507 1326 q 523 1323 518 1326 q 529 1317 528 1319 q 553 1297 533 1313 q 599 1260 574 1281 q 644 1224 624 1240 q 671 1203 665 1207 q 683 1183 685 1190 q 675 1172 683 1172 q 646 1181 667 1172 q 606 1197 633 1186 q 550 1222 579 1208 q 504 1249 521 1236 q 455 1222 486 1236 q 394 1197 424 1208 q 350 1181 364 1186 q 318 1172 329 1172 m 400 1350 q 393 1361 393 1350 q 408 1381 393 1369 q 440 1404 415 1385 q 494 1447 464 1424 q 547 1488 524 1469 q 574 1508 569 1506 q 585 1517 582 1515 q 593 1518 589 1518 q 607 1508 599 1518 q 622 1486 615 1497 q 626 1469 628 1475 q 602 1448 626 1464 q 543 1413 578 1432 q 477 1379 508 1394 q 431 1358 446 1364 q 400 1350 410 1350 z "},"Ậ":{"ha":715,"x_min":-125,"x_max":789,"o":"m -118 -125 q -125 -121 -125 -125 q -121 -114 -125 -118 q -1 24 -64 -53 q 128 186 63 101 q 33 228 71 204 q -4 286 -4 251 q 8 303 -4 301 q 33 306 19 306 q 109 294 69 306 q 189 268 149 283 q 407 579 306 425 q 383 828 390 714 q 376 1004 376 942 q 376 1033 376 1021 q 378 1053 376 1046 q 385 1107 382 1086 q 413 1128 388 1128 q 444 1125 426 1128 q 475 1115 461 1122 q 481 1117 476 1117 q 483 1116 482 1117 q 485 1115 483 1115 q 557 1053 528 1094 q 586 944 586 1013 q 564 821 586 892 q 492 657 542 750 q 500 433 492 543 q 525 231 508 324 q 532 193 528 211 q 539 158 536 175 q 605 168 567 161 q 681 188 643 175 q 744 221 718 201 q 769 265 769 240 q 774 272 769 272 q 783 262 778 272 q 789 235 789 251 q 611 144 789 171 q 575 135 593 142 q 549 117 557 128 q 588 4 568 44 q 625 -68 607 -36 q 617 -72 625 -72 q 590 -64 607 -72 q 563 -37 574 -56 q 543 2 553 -18 q 524 44 533 22 q 462 117 488 97 q 429 139 436 138 q 392 142 432 139 q 292 153 353 144 q 171 175 232 161 q -2 -42 74 42 q -118 -125 -78 -125 m 492 721 q 547 847 531 794 q 563 939 563 900 q 547 1008 563 981 q 507 1054 531 1036 q 497 893 501 978 q 492 721 492 808 m 486 161 q 444 342 463 247 q 414 529 426 436 q 318 386 365 456 q 226 253 271 317 q 356 199 290 226 q 486 161 422 171 m 265 -169 q 233 -158 251 -169 q 222 -139 222 -151 q 244 -104 222 -125 q 303 -83 267 -83 q 324 -93 324 -83 q 317 -103 324 -99 q 297 -130 303 -114 q 285 -158 292 -146 q 265 -169 279 -169 m 318 1172 q 313 1183 313 1172 q 331 1203 315 1193 q 361 1224 338 1207 q 413 1260 385 1240 q 464 1297 442 1281 q 492 1317 486 1313 q 502 1323 497 1319 q 513 1326 507 1326 q 523 1323 518 1326 q 529 1317 528 1319 q 553 1297 533 1313 q 599 1260 574 1281 q 644 1224 624 1240 q 671 1203 665 1207 q 683 1183 685 1190 q 675 1172 683 1172 q 646 1181 667 1172 q 606 1197 633 1186 q 550 1222 579 1208 q 504 1249 521 1236 q 455 1222 486 1236 q 394 1197 424 1208 q 350 1181 364 1186 q 318 1172 329 1172 z "},"Ầ":{"ha":715,"x_min":-125,"x_max":789,"o":"m -118 -125 q -125 -121 -125 -125 q -121 -114 -125 -118 q -1 24 -64 -53 q 128 186 63 101 q 33 228 71 204 q -4 286 -4 251 q 8 303 -4 301 q 33 306 19 306 q 109 294 69 306 q 189 268 149 283 q 407 579 306 425 q 383 828 390 714 q 376 1004 376 942 q 376 1033 376 1021 q 378 1053 376 1046 q 385 1107 382 1086 q 413 1128 388 1128 q 444 1125 426 1128 q 475 1115 461 1122 q 481 1117 476 1117 q 483 1116 482 1117 q 485 1115 483 1115 q 557 1053 528 1094 q 586 944 586 1013 q 564 821 586 892 q 492 657 542 750 q 500 433 492 543 q 525 231 508 324 q 532 193 528 211 q 539 158 536 175 q 605 168 567 161 q 681 188 643 175 q 744 221 718 201 q 769 265 769 240 q 774 272 769 272 q 783 262 778 272 q 789 235 789 251 q 611 144 789 171 q 575 135 593 142 q 549 117 557 128 q 588 4 568 44 q 625 -68 607 -36 q 617 -72 625 -72 q 590 -64 607 -72 q 563 -37 574 -56 q 543 2 553 -18 q 524 44 533 22 q 462 117 488 97 q 429 139 436 138 q 392 142 432 139 q 292 153 353 144 q 171 175 232 161 q -2 -42 74 42 q -118 -125 -78 -125 m 492 721 q 547 847 531 794 q 563 939 563 900 q 547 1008 563 981 q 507 1054 531 1036 q 497 893 501 978 q 492 721 492 808 m 486 161 q 444 342 463 247 q 414 529 426 436 q 318 386 365 456 q 226 253 271 317 q 356 199 290 226 q 486 161 422 171 m 318 1172 q 313 1183 313 1172 q 331 1203 315 1193 q 361 1224 338 1207 q 413 1260 385 1240 q 464 1297 442 1281 q 492 1317 486 1313 q 502 1323 497 1319 q 513 1326 507 1326 q 523 1323 518 1326 q 529 1317 528 1319 q 553 1297 533 1313 q 599 1260 574 1281 q 644 1224 624 1240 q 671 1203 665 1207 q 683 1183 685 1190 q 675 1172 683 1172 q 646 1181 667 1172 q 606 1197 633 1186 q 550 1222 579 1208 q 504 1249 521 1236 q 455 1222 486 1236 q 394 1197 424 1208 q 350 1181 364 1186 q 318 1172 329 1172 m 653 1325 q 622 1333 643 1325 q 576 1354 608 1339 q 510 1388 544 1369 q 451 1423 475 1407 q 426 1444 426 1439 q 431 1461 425 1450 q 447 1483 438 1472 q 460 1493 456 1493 q 467 1492 464 1493 q 479 1483 471 1490 q 506 1463 483 1481 q 559 1422 529 1444 q 613 1379 589 1399 q 644 1356 638 1360 q 660 1336 660 1344 q 653 1325 660 1325 z "},"Ẩ":{"ha":715,"x_min":-125,"x_max":789,"o":"m -118 -125 q -125 -121 -125 -125 q -121 -114 -125 -118 q -1 24 -64 -53 q 128 186 63 101 q 33 228 71 204 q -4 286 -4 251 q 8 303 -4 301 q 33 306 19 306 q 109 294 69 306 q 189 268 149 283 q 407 579 306 425 q 383 828 390 714 q 376 1004 376 942 q 376 1033 376 1021 q 378 1053 376 1046 q 385 1107 382 1086 q 413 1128 388 1128 q 444 1125 426 1128 q 475 1115 461 1122 q 481 1117 476 1117 q 483 1116 482 1117 q 485 1115 483 1115 q 557 1053 528 1094 q 586 944 586 1013 q 564 821 586 892 q 492 657 542 750 q 500 433 492 543 q 525 231 508 324 q 532 193 528 211 q 539 158 536 175 q 605 168 567 161 q 681 188 643 175 q 744 221 718 201 q 769 265 769 240 q 774 272 769 272 q 783 262 778 272 q 789 235 789 251 q 611 144 789 171 q 575 135 593 142 q 549 117 557 128 q 588 4 568 44 q 625 -68 607 -36 q 617 -72 625 -72 q 590 -64 607 -72 q 563 -37 574 -56 q 543 2 553 -18 q 524 44 533 22 q 462 117 488 97 q 429 139 436 138 q 392 142 432 139 q 292 153 353 144 q 171 175 232 161 q -2 -42 74 42 q -118 -125 -78 -125 m 492 721 q 547 847 531 794 q 563 939 563 900 q 547 1008 563 981 q 507 1054 531 1036 q 497 893 501 978 q 492 721 492 808 m 486 161 q 444 342 463 247 q 414 529 426 436 q 318 386 365 456 q 226 253 271 317 q 356 199 290 226 q 486 161 422 171 m 318 1172 q 313 1183 313 1172 q 331 1203 315 1193 q 361 1224 338 1207 q 413 1260 385 1240 q 464 1297 442 1281 q 492 1317 486 1313 q 502 1323 497 1319 q 513 1326 507 1326 q 523 1323 518 1326 q 529 1317 528 1319 q 553 1297 533 1313 q 599 1260 574 1281 q 644 1224 624 1240 q 671 1203 665 1207 q 683 1183 685 1190 q 675 1172 683 1172 q 646 1181 667 1172 q 606 1197 633 1186 q 550 1222 579 1208 q 504 1249 521 1236 q 455 1222 486 1236 q 394 1197 424 1208 q 350 1181 364 1186 q 318 1172 329 1172 m 674 1286 q 665 1291 668 1286 q 668 1301 663 1296 q 699 1342 683 1317 q 715 1392 715 1368 q 703 1422 715 1411 q 671 1433 690 1433 q 631 1428 646 1433 q 614 1424 617 1424 q 608 1428 611 1424 q 611 1439 606 1433 q 656 1469 628 1456 q 700 1482 683 1482 q 767 1461 747 1482 q 788 1413 788 1440 q 767 1356 788 1381 q 723 1315 747 1332 q 683 1289 699 1299 q 674 1286 678 1286 z "},"Ẫ":{"ha":715,"x_min":-125,"x_max":789,"o":"m -118 -125 q -125 -121 -125 -125 q -121 -114 -125 -118 q -1 24 -64 -53 q 128 186 63 101 q 33 228 71 204 q -4 286 -4 251 q 8 303 -4 301 q 33 306 19 306 q 109 294 69 306 q 189 268 149 283 q 407 579 306 425 q 383 828 390 714 q 376 1004 376 942 q 376 1033 376 1021 q 378 1053 376 1046 q 385 1107 382 1086 q 413 1128 388 1128 q 444 1125 426 1128 q 475 1115 461 1122 q 481 1117 476 1117 q 483 1116 482 1117 q 485 1115 483 1115 q 557 1053 528 1094 q 586 944 586 1013 q 564 821 586 892 q 492 657 542 750 q 500 433 492 543 q 525 231 508 324 q 532 193 528 211 q 539 158 536 175 q 605 168 567 161 q 681 188 643 175 q 744 221 718 201 q 769 265 769 240 q 774 272 769 272 q 783 262 778 272 q 789 235 789 251 q 611 144 789 171 q 575 135 593 142 q 549 117 557 128 q 588 4 568 44 q 625 -68 607 -36 q 617 -72 625 -72 q 590 -64 607 -72 q 563 -37 574 -56 q 543 2 553 -18 q 524 44 533 22 q 462 117 488 97 q 429 139 436 138 q 392 142 432 139 q 292 153 353 144 q 171 175 232 161 q -2 -42 74 42 q -118 -125 -78 -125 m 492 721 q 547 847 531 794 q 563 939 563 900 q 547 1008 563 981 q 507 1054 531 1036 q 497 893 501 978 q 492 721 492 808 m 486 161 q 444 342 463 247 q 414 529 426 436 q 318 386 365 456 q 226 253 271 317 q 356 199 290 226 q 486 161 422 171 m 318 1172 q 313 1183 313 1172 q 331 1203 315 1193 q 361 1224 338 1207 q 413 1260 385 1240 q 464 1297 442 1281 q 492 1317 486 1313 q 502 1323 497 1319 q 513 1326 507 1326 q 523 1323 518 1326 q 529 1317 528 1319 q 553 1297 533 1313 q 599 1260 574 1281 q 644 1224 624 1240 q 671 1203 665 1207 q 683 1183 685 1190 q 675 1172 683 1172 q 646 1181 667 1172 q 606 1197 633 1186 q 550 1222 579 1208 q 504 1249 521 1236 q 455 1222 486 1236 q 394 1197 424 1208 q 350 1181 364 1186 q 318 1172 329 1172 m 590 1358 q 540 1370 565 1358 q 488 1393 514 1382 q 438 1404 463 1404 q 397 1388 408 1404 q 382 1365 386 1372 q 375 1369 375 1365 q 399 1430 375 1401 q 468 1458 422 1458 q 518 1448 493 1458 q 568 1427 543 1438 q 617 1417 593 1417 q 648 1426 633 1417 q 672 1449 663 1435 q 682 1444 682 1449 q 672 1409 682 1429 q 641 1374 661 1389 q 590 1358 621 1358 z "},"Ȁ":{"ha":715,"x_min":-125,"x_max":789,"o":"m -118 -125 q -125 -121 -125 -125 q -121 -114 -125 -118 q -1 24 -64 -53 q 128 186 63 101 q 33 228 71 204 q -4 286 -4 251 q 8 303 -4 301 q 33 306 19 306 q 109 294 69 306 q 189 268 149 283 q 407 579 306 425 q 383 828 390 714 q 376 1004 376 942 q 376 1033 376 1021 q 378 1053 376 1046 q 385 1107 382 1086 q 413 1128 388 1128 q 444 1125 426 1128 q 475 1115 461 1122 q 481 1117 476 1117 q 483 1116 482 1117 q 485 1115 483 1115 q 557 1053 528 1094 q 586 944 586 1013 q 564 821 586 892 q 492 657 542 750 q 500 433 492 543 q 525 231 508 324 q 532 193 528 211 q 539 158 536 175 q 605 168 567 161 q 681 188 643 175 q 744 221 718 201 q 769 265 769 240 q 774 272 769 272 q 783 262 778 272 q 789 235 789 251 q 611 144 789 171 q 575 135 593 142 q 549 117 557 128 q 588 4 568 44 q 625 -68 607 -36 q 617 -72 625 -72 q 590 -64 607 -72 q 563 -37 574 -56 q 543 2 553 -18 q 524 44 533 22 q 462 117 488 97 q 429 139 436 138 q 392 142 432 139 q 292 153 353 144 q 171 175 232 161 q -2 -42 74 42 q -118 -125 -78 -125 m 492 721 q 547 847 531 794 q 563 939 563 900 q 547 1008 563 981 q 507 1054 531 1036 q 497 893 501 978 q 492 721 492 808 m 486 161 q 444 342 463 247 q 414 529 426 436 q 318 386 365 456 q 226 253 271 317 q 356 199 290 226 q 486 161 422 171 m 542 1190 q 513 1204 529 1193 q 480 1231 500 1213 q 439 1269 460 1249 q 405 1305 418 1289 q 393 1326 392 1321 q 408 1344 392 1335 q 431 1351 424 1354 q 446 1340 438 1351 q 462 1319 449 1336 q 492 1281 475 1303 q 522 1242 508 1260 q 542 1219 536 1225 q 551 1199 557 1204 q 542 1190 551 1188 m 440 1186 q 410 1197 432 1186 q 372 1219 396 1204 q 326 1252 349 1233 q 287 1286 303 1271 q 271 1307 271 1301 q 282 1327 269 1314 q 301 1339 294 1340 q 319 1328 308 1339 q 339 1310 324 1325 q 374 1274 354 1294 q 410 1238 393 1254 q 435 1217 428 1222 q 447 1196 450 1204 q 440 1186 447 1186 z "},"Ä":{"ha":715,"x_min":-125,"x_max":789,"o":"m -118 -125 q -125 -121 -125 -125 q -121 -114 -125 -118 q -1 24 -64 -53 q 128 186 63 101 q 33 228 71 204 q -4 286 -4 251 q 8 303 -4 301 q 33 306 19 306 q 109 294 69 306 q 189 268 149 283 q 407 579 306 425 q 383 828 390 714 q 376 1004 376 942 q 376 1033 376 1021 q 378 1053 376 1046 q 385 1107 382 1086 q 413 1128 388 1128 q 444 1125 426 1128 q 475 1115 461 1122 q 481 1117 476 1117 q 483 1116 482 1117 q 485 1115 483 1115 q 557 1053 528 1094 q 586 944 586 1013 q 564 821 586 892 q 492 657 542 750 q 500 433 492 543 q 525 231 508 324 q 532 193 528 211 q 539 158 536 175 q 605 168 567 161 q 681 188 643 175 q 744 221 718 201 q 769 265 769 240 q 774 272 769 272 q 783 262 778 272 q 789 235 789 251 q 611 144 789 171 q 575 135 593 142 q 549 117 557 128 q 588 4 568 44 q 625 -68 607 -36 q 617 -72 625 -72 q 590 -64 607 -72 q 563 -37 574 -56 q 543 2 553 -18 q 524 44 533 22 q 462 117 488 97 q 429 139 436 138 q 392 142 432 139 q 292 153 353 144 q 171 175 232 161 q -2 -42 74 42 q -118 -125 -78 -125 m 492 721 q 547 847 531 794 q 563 939 563 900 q 547 1008 563 981 q 507 1054 531 1036 q 497 893 501 978 q 492 721 492 808 m 486 161 q 444 342 463 247 q 414 529 426 436 q 318 386 365 456 q 226 253 271 317 q 356 199 290 226 q 486 161 422 171 m 601 1171 q 565 1185 586 1171 q 553 1206 553 1192 q 578 1245 553 1221 q 646 1269 603 1269 q 669 1260 669 1269 q 661 1247 669 1253 q 639 1215 646 1233 q 625 1184 632 1197 q 601 1171 618 1171 m 414 1171 q 378 1185 399 1171 q 365 1206 365 1192 q 391 1245 365 1221 q 458 1269 417 1269 q 482 1260 482 1269 q 474 1247 482 1253 q 451 1215 458 1233 q 438 1184 444 1197 q 414 1171 431 1171 z "},"Ạ":{"ha":715,"x_min":-125,"x_max":789,"o":"m -118 -125 q -125 -121 -125 -125 q -121 -114 -125 -118 q -1 24 -64 -53 q 128 186 63 101 q 33 228 71 204 q -4 286 -4 251 q 8 303 -4 301 q 33 306 19 306 q 109 294 69 306 q 189 268 149 283 q 407 579 306 425 q 383 828 390 714 q 376 1004 376 942 q 376 1033 376 1021 q 378 1053 376 1046 q 385 1107 382 1086 q 413 1128 388 1128 q 444 1125 426 1128 q 475 1115 461 1122 q 481 1117 476 1117 q 483 1116 482 1117 q 485 1115 483 1115 q 557 1053 528 1094 q 586 944 586 1013 q 564 821 586 892 q 492 657 542 750 q 500 433 492 543 q 525 231 508 324 q 532 193 528 211 q 539 158 536 175 q 605 168 567 161 q 681 188 643 175 q 744 221 718 201 q 769 265 769 240 q 774 272 769 272 q 783 262 778 272 q 789 235 789 251 q 611 144 789 171 q 575 135 593 142 q 549 117 557 128 q 588 4 568 44 q 625 -68 607 -36 q 617 -72 625 -72 q 590 -64 607 -72 q 563 -37 574 -56 q 543 2 553 -18 q 524 44 533 22 q 462 117 488 97 q 429 139 436 138 q 392 142 432 139 q 292 153 353 144 q 171 175 232 161 q -2 -42 74 42 q -118 -125 -78 -125 m 492 721 q 547 847 531 794 q 563 939 563 900 q 547 1008 563 981 q 507 1054 531 1036 q 497 893 501 978 q 492 721 492 808 m 486 161 q 444 342 463 247 q 414 529 426 436 q 318 386 365 456 q 226 253 271 317 q 356 199 290 226 q 486 161 422 171 m 265 -169 q 233 -158 251 -169 q 222 -139 222 -151 q 244 -104 222 -125 q 303 -83 267 -83 q 324 -93 324 -83 q 317 -103 324 -99 q 297 -130 303 -114 q 285 -158 292 -146 q 265 -169 279 -169 z "},"À":{"ha":715,"x_min":-125,"x_max":789,"o":"m -118 -125 q -125 -121 -125 -125 q -121 -114 -125 -118 q -1 24 -64 -53 q 128 186 63 101 q 33 228 71 204 q -4 286 -4 251 q 8 303 -4 301 q 33 306 19 306 q 109 294 69 306 q 189 268 149 283 q 407 579 306 425 q 383 828 390 714 q 376 1004 376 942 q 376 1033 376 1021 q 378 1053 376 1046 q 385 1107 382 1086 q 413 1128 388 1128 q 444 1125 426 1128 q 475 1115 461 1122 q 481 1117 476 1117 q 483 1116 482 1117 q 485 1115 483 1115 q 557 1053 528 1094 q 586 944 586 1013 q 564 821 586 892 q 492 657 542 750 q 500 433 492 543 q 525 231 508 324 q 532 193 528 211 q 539 158 536 175 q 605 168 567 161 q 681 188 643 175 q 744 221 718 201 q 769 265 769 240 q 774 272 769 272 q 783 262 778 272 q 789 235 789 251 q 611 144 789 171 q 575 135 593 142 q 549 117 557 128 q 588 4 568 44 q 625 -68 607 -36 q 617 -72 625 -72 q 590 -64 607 -72 q 563 -37 574 -56 q 543 2 553 -18 q 524 44 533 22 q 462 117 488 97 q 429 139 436 138 q 392 142 432 139 q 292 153 353 144 q 171 175 232 161 q -2 -42 74 42 q -118 -125 -78 -125 m 492 721 q 547 847 531 794 q 563 939 563 900 q 547 1008 563 981 q 507 1054 531 1036 q 497 893 501 978 q 492 721 492 808 m 486 161 q 444 342 463 247 q 414 529 426 436 q 318 386 365 456 q 226 253 271 317 q 356 199 290 226 q 486 161 422 171 m 557 1179 q 526 1188 547 1179 q 481 1208 513 1193 q 414 1242 449 1224 q 355 1277 379 1261 q 331 1299 331 1293 q 335 1315 329 1304 q 351 1337 342 1326 q 364 1347 360 1347 q 372 1346 368 1347 q 383 1338 375 1344 q 410 1317 388 1335 q 463 1276 433 1299 q 517 1233 493 1253 q 549 1210 542 1214 q 564 1190 564 1199 q 557 1179 564 1179 z "},"Ả":{"ha":715,"x_min":-125,"x_max":789,"o":"m -118 -125 q -125 -121 -125 -125 q -121 -114 -125 -118 q -1 24 -64 -53 q 128 186 63 101 q 33 228 71 204 q -4 286 -4 251 q 8 303 -4 301 q 33 306 19 306 q 109 294 69 306 q 189 268 149 283 q 407 579 306 425 q 383 828 390 714 q 376 1004 376 942 q 376 1033 376 1021 q 378 1053 376 1046 q 385 1107 382 1086 q 413 1128 388 1128 q 444 1125 426 1128 q 475 1115 461 1122 q 481 1117 476 1117 q 483 1116 482 1117 q 485 1115 483 1115 q 557 1053 528 1094 q 586 944 586 1013 q 564 821 586 892 q 492 657 542 750 q 500 433 492 543 q 525 231 508 324 q 532 193 528 211 q 539 158 536 175 q 605 168 567 161 q 681 188 643 175 q 744 221 718 201 q 769 265 769 240 q 774 272 769 272 q 783 262 778 272 q 789 235 789 251 q 611 144 789 171 q 575 135 593 142 q 549 117 557 128 q 588 4 568 44 q 625 -68 607 -36 q 617 -72 625 -72 q 590 -64 607 -72 q 563 -37 574 -56 q 543 2 553 -18 q 524 44 533 22 q 462 117 488 97 q 429 139 436 138 q 392 142 432 139 q 292 153 353 144 q 171 175 232 161 q -2 -42 74 42 q -118 -125 -78 -125 m 492 721 q 547 847 531 794 q 563 939 563 900 q 547 1008 563 981 q 507 1054 531 1036 q 497 893 501 978 q 492 721 492 808 m 486 161 q 444 342 463 247 q 414 529 426 436 q 318 386 365 456 q 226 253 271 317 q 356 199 290 226 q 486 161 422 171 m 511 1185 q 503 1190 506 1185 q 506 1200 500 1194 q 537 1241 521 1215 q 553 1290 553 1267 q 540 1321 553 1310 q 508 1332 528 1332 q 469 1327 483 1332 q 451 1322 454 1322 q 446 1327 449 1322 q 449 1338 443 1332 q 493 1367 465 1354 q 538 1381 521 1381 q 605 1360 585 1381 q 625 1311 625 1339 q 605 1255 625 1279 q 560 1214 585 1231 q 521 1188 536 1197 q 511 1185 515 1185 z "},"Ȃ":{"ha":715,"x_min":-125,"x_max":789,"o":"m 533 1333 q 606 1311 574 1333 q 657 1257 638 1289 q 676 1194 676 1225 q 669 1168 676 1168 q 655 1183 665 1168 q 627 1218 644 1199 q 585 1253 610 1238 q 526 1268 560 1268 q 450 1246 485 1268 q 392 1199 415 1224 q 360 1168 368 1175 q 356 1167 358 1167 q 353 1171 353 1167 q 356 1186 353 1175 q 378 1244 357 1210 q 440 1306 400 1279 q 533 1333 479 1333 m -118 -125 q -125 -121 -125 -125 q -121 -114 -125 -118 q -1 24 -64 -53 q 128 186 63 101 q 33 228 71 204 q -4 286 -4 251 q 8 303 -4 301 q 33 306 19 306 q 109 294 69 306 q 189 268 149 283 q 407 579 306 425 q 383 828 390 714 q 376 1004 376 942 q 376 1033 376 1021 q 378 1053 376 1046 q 385 1107 382 1086 q 413 1128 388 1128 q 444 1125 426 1128 q 475 1115 461 1122 q 481 1117 476 1117 q 483 1116 482 1117 q 485 1115 483 1115 q 557 1053 528 1094 q 586 944 586 1013 q 564 821 586 892 q 492 657 542 750 q 500 433 492 543 q 525 231 508 324 q 532 193 528 211 q 539 158 536 175 q 605 168 567 161 q 681 188 643 175 q 744 221 718 201 q 769 265 769 240 q 774 272 769 272 q 783 262 778 272 q 789 235 789 251 q 611 144 789 171 q 575 135 593 142 q 549 117 557 128 q 588 4 568 44 q 625 -68 607 -36 q 617 -72 625 -72 q 590 -64 607 -72 q 563 -37 574 -56 q 543 2 553 -18 q 524 44 533 22 q 462 117 488 97 q 429 139 436 138 q 392 142 432 139 q 292 153 353 144 q 171 175 232 161 q -2 -42 74 42 q -118 -125 -78 -125 m 492 721 q 547 847 531 794 q 563 939 563 900 q 547 1008 563 981 q 507 1054 531 1036 q 497 893 501 978 q 492 721 492 808 m 486 161 q 444 342 463 247 q 414 529 426 436 q 318 386 365 456 q 226 253 271 317 q 356 199 290 226 q 486 161 422 171 z "},"Ā":{"ha":715,"x_min":-125,"x_max":789,"o":"m -118 -125 q -125 -121 -125 -125 q -121 -114 -125 -118 q -1 24 -64 -53 q 128 186 63 101 q 33 228 71 204 q -4 286 -4 251 q 8 303 -4 301 q 33 306 19 306 q 109 294 69 306 q 189 268 149 283 q 407 579 306 425 q 383 828 390 714 q 376 1004 376 942 q 376 1033 376 1021 q 378 1053 376 1046 q 385 1107 382 1086 q 413 1128 388 1128 q 444 1125 426 1128 q 475 1115 461 1122 q 481 1117 476 1117 q 483 1116 482 1117 q 485 1115 483 1115 q 557 1053 528 1094 q 586 944 586 1013 q 564 821 586 892 q 492 657 542 750 q 500 433 492 543 q 525 231 508 324 q 532 193 528 211 q 539 158 536 175 q 605 168 567 161 q 681 188 643 175 q 744 221 718 201 q 769 265 769 240 q 774 272 769 272 q 783 262 778 272 q 789 235 789 251 q 611 144 789 171 q 575 135 593 142 q 549 117 557 128 q 588 4 568 44 q 625 -68 607 -36 q 617 -72 625 -72 q 590 -64 607 -72 q 563 -37 574 -56 q 543 2 553 -18 q 524 44 533 22 q 462 117 488 97 q 429 139 436 138 q 392 142 432 139 q 292 153 353 144 q 171 175 232 161 q -2 -42 74 42 q -118 -125 -78 -125 m 492 721 q 547 847 531 794 q 563 939 563 900 q 547 1008 563 981 q 507 1054 531 1036 q 497 893 501 978 q 492 721 492 808 m 486 161 q 444 342 463 247 q 414 529 426 436 q 318 386 365 456 q 226 253 271 317 q 356 199 290 226 q 486 161 422 171 m 371 1196 q 356 1197 369 1196 q 343 1206 343 1199 q 359 1238 343 1228 q 397 1250 375 1247 q 433 1253 418 1253 q 488 1252 451 1253 q 559 1250 524 1251 q 608 1247 594 1249 q 642 1238 632 1246 q 653 1224 653 1229 q 625 1206 653 1210 q 550 1200 597 1203 q 453 1197 503 1197 q 371 1196 404 1196 z "},"Ą":{"ha":715,"x_min":-125,"x_max":789,"o":"m -118 -125 q -125 -121 -125 -125 q -121 -114 -125 -118 q -1 24 -64 -53 q 128 186 63 101 q 33 228 71 204 q -4 286 -4 251 q 8 303 -4 301 q 33 306 19 306 q 109 294 69 306 q 189 268 149 283 q 407 579 306 425 q 383 828 390 714 q 376 1004 376 942 q 376 1033 376 1021 q 378 1053 376 1046 q 385 1107 382 1086 q 413 1128 388 1128 q 444 1125 426 1128 q 475 1115 461 1122 q 481 1117 476 1117 q 483 1116 482 1117 q 485 1115 483 1115 q 557 1053 528 1094 q 586 944 586 1013 q 564 821 586 892 q 492 657 542 750 q 500 433 492 543 q 525 231 508 324 q 532 193 528 211 q 539 158 536 175 q 605 168 567 161 q 681 188 643 175 q 744 221 718 201 q 769 265 769 240 q 774 272 769 272 q 783 262 778 272 q 789 235 789 251 q 611 144 789 171 q 575 135 593 142 q 549 117 557 128 q 588 4 568 44 q 625 -68 607 -36 q 617 -72 625 -72 q 590 -64 607 -72 q 563 -37 574 -56 q 543 2 553 -18 q 524 44 533 22 q 462 117 488 97 q 429 139 436 138 q 392 142 432 139 q 292 153 353 144 q 171 175 232 161 q -2 -42 74 42 q -118 -125 -78 -125 m 492 721 q 547 847 531 794 q 563 939 563 900 q 547 1008 563 981 q 507 1054 531 1036 q 497 893 501 978 q 492 721 492 808 m 486 161 q 444 342 463 247 q 414 529 426 436 q 318 386 365 456 q 226 253 271 317 q 356 199 290 226 q 486 161 422 171 m 531 -258 q 471 -242 493 -258 q 449 -194 449 -225 q 449 -186 449 -190 q 450 -176 449 -182 q 478 -112 456 -147 q 529 -50 501 -76 q 575 -24 557 -24 l 586 -25 q 546 -83 567 -47 q 519 -147 525 -118 q 517 -158 518 -153 q 517 -169 517 -164 q 531 -210 517 -194 q 572 -225 546 -225 q 600 -222 588 -225 q 626 -214 613 -218 q 652 -203 640 -208 q 675 -192 664 -197 q 686 -187 683 -187 q 679 -208 697 -187 q 629 -239 661 -228 q 531 -258 571 -258 z "},"Å":{"ha":715,"x_min":-125,"x_max":789,"o":"m -118 -125 q -125 -121 -125 -125 q -121 -114 -125 -118 q -1 24 -64 -53 q 128 186 63 101 q 33 228 71 204 q -4 286 -4 251 q 8 303 -4 301 q 33 306 19 306 q 109 294 69 306 q 189 268 149 283 q 407 579 306 425 q 383 828 390 714 q 376 1004 376 942 q 376 1033 376 1021 q 378 1053 376 1046 q 385 1107 382 1086 q 413 1128 388 1128 q 444 1125 426 1128 q 475 1115 461 1122 q 481 1117 476 1117 q 483 1116 482 1117 q 485 1115 483 1115 q 557 1053 528 1094 q 586 944 586 1013 q 564 821 586 892 q 492 657 542 750 q 500 433 492 543 q 525 231 508 324 q 532 193 528 211 q 539 158 536 175 q 605 168 567 161 q 681 188 643 175 q 744 221 718 201 q 769 265 769 240 q 774 272 769 272 q 783 262 778 272 q 789 235 789 251 q 611 144 789 171 q 575 135 593 142 q 549 117 557 128 q 588 4 568 44 q 625 -68 607 -36 q 617 -72 625 -72 q 590 -64 607 -72 q 563 -37 574 -56 q 543 2 553 -18 q 524 44 533 22 q 462 117 488 97 q 429 139 436 138 q 392 142 432 139 q 292 153 353 144 q 171 175 232 161 q -2 -42 74 42 q -118 -125 -78 -125 m 492 721 q 547 847 531 794 q 563 939 563 900 q 547 1008 563 981 q 507 1054 531 1036 q 497 893 501 978 q 492 721 492 808 m 486 161 q 444 342 463 247 q 414 529 426 436 q 318 386 365 456 q 226 253 271 317 q 356 199 290 226 q 486 161 422 171 m 510 1181 q 444 1201 469 1181 q 418 1249 418 1221 q 436 1299 418 1274 q 485 1342 454 1325 q 553 1360 515 1360 q 623 1338 596 1360 q 650 1288 650 1315 q 610 1215 650 1250 q 510 1181 571 1181 m 528 1211 q 574 1233 558 1211 q 589 1279 589 1256 q 578 1315 589 1299 q 546 1331 568 1331 q 499 1307 517 1331 q 482 1258 482 1283 q 493 1226 482 1240 q 528 1211 504 1211 z "},"Ǻ":{"ha":715,"x_min":-125,"x_max":789,"o":"m -118 -125 q -125 -121 -125 -125 q -121 -114 -125 -118 q -1 24 -64 -53 q 128 186 63 101 q 33 228 71 204 q -4 286 -4 251 q 8 303 -4 301 q 33 306 19 306 q 109 294 69 306 q 189 268 149 283 q 407 579 306 425 q 383 828 390 714 q 376 1004 376 942 q 376 1033 376 1021 q 378 1053 376 1046 q 385 1107 382 1086 q 413 1128 388 1128 q 444 1125 426 1128 q 475 1115 461 1122 q 481 1117 476 1117 q 483 1116 482 1117 q 485 1115 483 1115 q 557 1053 528 1094 q 586 944 586 1013 q 564 821 586 892 q 492 657 542 750 q 500 433 492 543 q 525 231 508 324 q 532 193 528 211 q 539 158 536 175 q 605 168 567 161 q 681 188 643 175 q 744 221 718 201 q 769 265 769 240 q 774 272 769 272 q 783 262 778 272 q 789 235 789 251 q 611 144 789 171 q 575 135 593 142 q 549 117 557 128 q 588 4 568 44 q 625 -68 607 -36 q 617 -72 625 -72 q 590 -64 607 -72 q 563 -37 574 -56 q 543 2 553 -18 q 524 44 533 22 q 462 117 488 97 q 429 139 436 138 q 392 142 432 139 q 292 153 353 144 q 171 175 232 161 q -2 -42 74 42 q -118 -125 -78 -125 m 492 721 q 547 847 531 794 q 563 939 563 900 q 547 1008 563 981 q 507 1054 531 1036 q 497 893 501 978 q 492 721 492 808 m 486 161 q 444 342 463 247 q 414 529 426 436 q 318 386 365 456 q 226 253 271 317 q 356 199 290 226 q 486 161 422 171 m 510 1181 q 444 1201 469 1181 q 418 1249 418 1221 q 436 1299 418 1274 q 485 1342 454 1325 q 553 1360 515 1360 q 623 1338 596 1360 q 650 1288 650 1315 q 610 1215 650 1250 q 510 1181 571 1181 m 528 1211 q 574 1233 558 1211 q 589 1279 589 1256 q 578 1315 589 1299 q 546 1331 568 1331 q 499 1307 517 1331 q 482 1258 482 1283 q 493 1226 482 1240 q 528 1211 504 1211 m 447 1386 q 440 1397 440 1386 q 456 1417 440 1406 q 487 1440 463 1421 q 541 1483 511 1460 q 594 1524 571 1506 q 621 1544 617 1542 q 633 1553 629 1551 q 640 1554 636 1554 q 654 1544 646 1554 q 669 1522 663 1533 q 674 1506 675 1511 q 649 1484 674 1500 q 590 1449 625 1468 q 524 1415 556 1431 q 478 1394 493 1400 q 447 1386 457 1386 z "},"Ã":{"ha":715,"x_min":-125,"x_max":789,"o":"m -118 -125 q -125 -121 -125 -125 q -121 -114 -125 -118 q -1 24 -64 -53 q 128 186 63 101 q 33 228 71 204 q -4 286 -4 251 q 8 303 -4 301 q 33 306 19 306 q 109 294 69 306 q 189 268 149 283 q 407 579 306 425 q 383 828 390 714 q 376 1004 376 942 q 376 1033 376 1021 q 378 1053 376 1046 q 385 1107 382 1086 q 413 1128 388 1128 q 444 1125 426 1128 q 475 1115 461 1122 q 481 1117 476 1117 q 483 1116 482 1117 q 485 1115 483 1115 q 557 1053 528 1094 q 586 944 586 1013 q 564 821 586 892 q 492 657 542 750 q 500 433 492 543 q 525 231 508 324 q 532 193 528 211 q 539 158 536 175 q 605 168 567 161 q 681 188 643 175 q 744 221 718 201 q 769 265 769 240 q 774 272 769 272 q 783 262 778 272 q 789 235 789 251 q 611 144 789 171 q 575 135 593 142 q 549 117 557 128 q 588 4 568 44 q 625 -68 607 -36 q 617 -72 625 -72 q 590 -64 607 -72 q 563 -37 574 -56 q 543 2 553 -18 q 524 44 533 22 q 462 117 488 97 q 429 139 436 138 q 392 142 432 139 q 292 153 353 144 q 171 175 232 161 q -2 -42 74 42 q -118 -125 -78 -125 m 492 721 q 547 847 531 794 q 563 939 563 900 q 547 1008 563 981 q 507 1054 531 1036 q 497 893 501 978 q 492 721 492 808 m 486 161 q 444 342 463 247 q 414 529 426 436 q 318 386 365 456 q 226 253 271 317 q 356 199 290 226 q 486 161 422 171 m 561 1192 q 510 1203 536 1192 q 459 1226 485 1215 q 408 1238 433 1238 q 368 1222 379 1238 q 353 1199 357 1206 q 346 1203 346 1199 q 369 1263 346 1235 q 439 1292 393 1292 q 489 1281 464 1292 q 539 1260 514 1271 q 588 1250 564 1250 q 619 1259 604 1250 q 643 1282 633 1268 q 653 1278 653 1282 q 642 1242 653 1263 q 612 1207 632 1222 q 561 1192 592 1192 z "},"Æ":{"ha":1210,"x_min":-125,"x_max":1382,"o":"m 964 -150 q 847 -142 913 -150 q 713 -117 781 -133 q 589 -75 646 -100 q 497 -16 532 -50 q 463 60 463 18 q 465 82 463 71 q 474 106 468 93 q 444 131 456 124 q 429 139 432 138 q 390 142 431 139 q 290 153 350 144 q 171 175 231 161 q -2 -42 74 42 q -118 -125 -78 -125 q -125 -121 -125 -125 q -121 -114 -125 -118 q -1 24 -64 -53 q 128 186 63 101 q 33 228 71 204 q -4 286 -4 251 q 8 303 -4 301 q 33 306 19 306 q 109 294 69 306 q 189 268 149 283 q 407 579 306 425 q 383 828 390 714 q 376 1004 376 942 q 376 1033 376 1021 q 378 1053 376 1046 q 385 1107 382 1086 q 413 1128 388 1128 q 444 1125 426 1128 q 475 1115 461 1122 q 481 1117 476 1117 q 483 1116 482 1117 q 485 1115 483 1115 q 557 1053 528 1094 q 586 944 586 1013 q 564 821 586 892 q 492 657 542 750 q 500 433 492 543 q 525 231 508 324 l 533 185 q 659 330 594 258 q 814 456 724 401 q 646 590 710 510 q 582 747 582 669 q 623 857 582 807 q 732 945 664 907 q 883 1009 800 983 q 1051 1049 965 1035 q 1208 1063 1136 1063 q 1279 1060 1246 1063 q 1338 1050 1313 1057 q 1360 1026 1350 1047 q 1376 981 1371 1004 q 1382 946 1382 957 l 1382 940 q 1321 899 1365 917 q 1215 867 1276 881 q 1086 844 1154 854 q 953 829 1018 835 q 835 821 888 824 q 753 818 782 818 q 713 822 722 818 q 704 829 704 825 q 749 842 704 838 q 865 851 793 846 q 1021 869 938 857 q 1184 905 1104 881 q 1322 972 1264 929 q 1258 975 1288 975 q 1200 975 1228 975 q 1087 969 1139 975 q 982 951 1035 964 q 864 917 929 939 q 677 821 729 872 q 625 713 625 769 q 654 625 625 669 q 733 542 683 581 q 842 474 782 503 q 897 499 860 483 q 974 530 933 514 q 1045 556 1014 546 q 1083 567 1076 567 q 1120 547 1107 567 q 1133 506 1133 528 q 1110 468 1133 483 q 1050 443 1086 453 q 975 429 1014 433 q 906 425 936 425 q 740 340 819 388 q 612 236 661 292 q 563 118 563 181 q 602 33 563 68 q 708 -22 642 -1 q 853 -53 774 -43 q 1011 -62 932 -62 q 1151 -53 1089 -62 q 1233 -29 1213 -43 q 1246 -37 1246 -31 q 1224 -62 1246 -44 q 1165 -101 1203 -81 q 1075 -135 1126 -121 q 964 -150 1024 -150 m 492 721 q 547 847 531 794 q 563 939 563 900 q 547 1008 563 981 q 507 1054 531 1036 q 497 893 501 978 q 492 721 492 808 m 486 161 q 444 342 463 247 q 414 529 426 436 q 318 386 365 456 q 226 253 271 317 q 356 199 290 226 q 486 161 422 171 z "},"Ǽ":{"ha":1210,"x_min":-125,"x_max":1382,"o":"m 964 -150 q 847 -142 913 -150 q 713 -117 781 -133 q 589 -75 646 -100 q 497 -16 532 -50 q 463 60 463 18 q 465 82 463 71 q 474 106 468 93 q 444 131 456 124 q 429 139 432 138 q 390 142 431 139 q 290 153 350 144 q 171 175 231 161 q -2 -42 74 42 q -118 -125 -78 -125 q -125 -121 -125 -125 q -121 -114 -125 -118 q -1 24 -64 -53 q 128 186 63 101 q 33 228 71 204 q -4 286 -4 251 q 8 303 -4 301 q 33 306 19 306 q 109 294 69 306 q 189 268 149 283 q 407 579 306 425 q 383 828 390 714 q 376 1004 376 942 q 376 1033 376 1021 q 378 1053 376 1046 q 385 1107 382 1086 q 413 1128 388 1128 q 444 1125 426 1128 q 475 1115 461 1122 q 481 1117 476 1117 q 483 1116 482 1117 q 485 1115 483 1115 q 557 1053 528 1094 q 586 944 586 1013 q 564 821 586 892 q 492 657 542 750 q 500 433 492 543 q 525 231 508 324 l 533 185 q 659 330 594 258 q 814 456 724 401 q 646 590 710 510 q 582 747 582 669 q 623 857 582 807 q 732 945 664 907 q 883 1009 800 983 q 1051 1049 965 1035 q 1208 1063 1136 1063 q 1279 1060 1246 1063 q 1338 1050 1313 1057 q 1360 1026 1350 1047 q 1376 981 1371 1004 q 1382 946 1382 957 l 1382 940 q 1321 899 1365 917 q 1215 867 1276 881 q 1086 844 1154 854 q 953 829 1018 835 q 835 821 888 824 q 753 818 782 818 q 713 822 722 818 q 704 829 704 825 q 749 842 704 838 q 865 851 793 846 q 1021 869 938 857 q 1184 905 1104 881 q 1322 972 1264 929 q 1258 975 1288 975 q 1200 975 1228 975 q 1087 969 1139 975 q 982 951 1035 964 q 864 917 929 939 q 677 821 729 872 q 625 713 625 769 q 654 625 625 669 q 733 542 683 581 q 842 474 782 503 q 897 499 860 483 q 974 530 933 514 q 1045 556 1014 546 q 1083 567 1076 567 q 1120 547 1107 567 q 1133 506 1133 528 q 1110 468 1133 483 q 1050 443 1086 453 q 975 429 1014 433 q 906 425 936 425 q 740 340 819 388 q 612 236 661 292 q 563 118 563 181 q 602 33 563 68 q 708 -22 642 -1 q 853 -53 774 -43 q 1011 -62 932 -62 q 1151 -53 1089 -62 q 1233 -29 1213 -43 q 1246 -37 1246 -31 q 1224 -62 1246 -44 q 1165 -101 1203 -81 q 1075 -135 1126 -121 q 964 -150 1024 -150 m 492 721 q 547 847 531 794 q 563 939 563 900 q 547 1008 563 981 q 507 1054 531 1036 q 497 893 501 978 q 492 721 492 808 m 486 161 q 444 342 463 247 q 414 529 426 436 q 318 386 365 456 q 226 253 271 317 q 356 199 290 226 q 486 161 422 171 m 668 1097 q 661 1108 661 1097 q 676 1128 661 1117 q 708 1151 683 1132 q 762 1194 732 1171 q 815 1235 792 1217 q 842 1256 838 1253 q 853 1264 850 1263 q 861 1265 857 1265 q 875 1255 867 1265 q 890 1233 883 1244 q 894 1217 896 1222 q 870 1195 894 1211 q 811 1160 846 1179 q 745 1126 776 1142 q 699 1106 714 1111 q 668 1097 678 1097 z "},"Ḃ":{"ha":867,"x_min":15,"x_max":968,"o":"m 214 -193 q 185 -176 200 -192 q 160 -140 169 -160 q 150 -112 150 -121 q 231 -12 150 -74 q 461 107 313 49 q 628 172 556 143 q 756 224 700 201 q 763 248 760 236 q 765 271 765 260 q 730 356 765 318 q 636 425 694 394 q 505 480 578 456 q 357 522 432 504 q 214 553 282 540 q 206 548 211 551 q 193 542 200 544 q 183 416 186 479 q 179 294 179 353 q 181 211 179 251 q 186 135 183 171 q 199 176 193 154 q 206 197 204 197 q 208 176 208 197 q 207 108 208 153 q 206 31 206 63 q 207 1 206 4 q 203 0 207 0 q 173 6 194 0 q 133 21 151 11 q 113 44 115 31 q 104 169 104 93 q 112 338 104 246 q 129 524 119 431 q 97 519 111 519 q 76 524 96 519 q 39 539 57 529 q 21 563 21 549 q 54 587 21 571 q 139 610 88 603 q 158 744 149 682 q 176 853 168 807 q 156 836 164 836 q 153 842 153 836 q 154 850 153 847 q 169 883 158 861 q 191 928 179 906 q 215 967 203 951 q 236 983 228 983 q 277 966 257 983 q 297 935 297 949 l 297 931 q 240 790 263 872 q 203 615 217 707 q 217 614 210 615 q 233 613 225 613 l 251 613 q 276 612 263 613 q 304 610 290 611 q 408 643 353 624 q 510 689 463 663 q 589 747 558 715 q 619 817 619 779 q 590 864 619 839 q 515 914 561 889 q 416 960 469 939 q 313 998 363 982 q 231 1021 264 1014 q 68 1040 133 1040 q 44 1040 54 1040 q 25 1038 33 1039 q 15 1047 15 1042 q 46 1071 15 1058 q 124 1092 76 1083 q 218 1100 171 1100 q 256 1099 238 1100 q 289 1093 274 1097 q 392 1063 336 1082 q 503 1017 447 1043 q 605 960 558 990 q 679 898 651 931 q 707 833 707 865 q 665 764 707 796 q 542 674 608 721 q 389 597 475 628 q 504 566 442 586 q 628 517 567 546 q 741 451 690 488 q 822 371 792 414 q 853 279 853 328 q 851 264 853 268 q 938 300 913 289 q 965 311 963 311 q 968 310 968 311 q 933 271 968 293 q 843 222 899 249 q 770 104 824 163 q 644 -6 717 46 q 492 -99 571 -58 q 340 -165 413 -140 q 214 -193 267 -190 m 204 -114 q 329 -78 275 -96 q 431 -39 383 -60 q 524 11 478 -18 q 624 79 569 40 q 681 126 657 103 q 724 171 706 149 q 592 119 660 144 q 468 71 525 93 q 387 31 432 57 q 300 -24 342 4 q 231 -77 258 -53 q 204 -114 204 -101 m 535 1097 q 499 1111 519 1097 q 486 1132 486 1118 q 512 1172 486 1147 q 579 1196 538 1196 q 603 1186 603 1196 q 594 1174 603 1179 q 572 1142 579 1160 q 558 1110 565 1124 q 535 1097 551 1097 z "},"Ć":{"ha":1215,"x_min":29,"x_max":1289,"o":"m 371 -169 q 116 -91 203 -169 q 29 128 29 -12 q 66 324 29 222 q 170 524 103 426 q 331 702 238 621 q 540 838 425 783 q 786 907 656 892 q 804 908 794 908 q 824 908 814 908 q 887 904 856 908 q 933 893 918 900 q 951 926 940 901 q 974 980 963 951 q 994 1029 986 1008 q 1001 1050 1001 1050 q 1017 1039 1008 1050 q 1026 1008 1026 1028 q 1016 979 1026 1006 q 991 923 1006 953 q 963 882 976 893 q 974 865 974 876 q 946 814 974 846 q 881 749 918 782 q 809 690 843 715 q 763 656 775 664 q 724 635 732 635 q 721 638 721 635 q 735 656 721 638 q 771 703 749 675 q 817 762 793 732 q 863 815 842 792 q 828 821 851 821 q 652 790 742 821 q 477 706 563 760 q 317 583 392 653 q 185 435 242 514 q 96 276 128 357 q 64 121 64 196 q 138 -28 64 15 q 338 -71 213 -71 q 536 -51 429 -71 q 753 0 643 -32 q 963 70 863 32 q 1144 148 1064 108 q 1269 221 1224 188 q 1283 228 1276 228 q 1289 222 1289 228 q 1283 211 1289 217 q 1135 90 1219 149 q 938 -22 1051 31 q 669 -119 825 -75 q 371 -169 499 -169 m 788 1097 q 781 1108 781 1097 q 796 1128 781 1117 q 827 1151 803 1132 q 881 1194 851 1171 q 934 1235 911 1217 q 961 1256 957 1253 q 973 1264 969 1263 q 981 1265 976 1265 q 994 1255 986 1265 q 1009 1233 1003 1244 q 1014 1217 1015 1222 q 990 1195 1014 1211 q 931 1160 965 1179 q 865 1126 896 1142 q 818 1106 833 1111 q 788 1097 797 1097 z "},"Č":{"ha":1215,"x_min":29,"x_max":1289,"o":"m 1083 1244 q 1089 1233 1089 1244 q 1071 1214 1086 1224 q 1040 1193 1064 1210 q 988 1156 1017 1176 q 938 1120 960 1136 q 910 1100 915 1104 q 899 1094 904 1097 q 889 1090 894 1090 q 879 1094 883 1090 q 872 1100 875 1099 q 848 1120 868 1104 q 803 1156 828 1136 q 758 1193 778 1176 q 731 1214 738 1210 q 718 1233 717 1226 q 726 1244 718 1244 q 756 1236 735 1244 q 796 1220 768 1232 q 852 1194 824 1208 q 897 1168 881 1181 q 947 1194 917 1181 q 1008 1220 978 1208 q 1051 1236 1038 1232 q 1083 1244 1072 1244 m 371 -169 q 116 -91 203 -169 q 29 128 29 -12 q 66 324 29 222 q 170 524 103 426 q 331 702 238 621 q 540 838 425 783 q 786 907 656 892 q 804 908 794 908 q 824 908 814 908 q 887 904 856 908 q 933 893 918 900 q 951 926 940 901 q 974 980 963 951 q 994 1029 986 1008 q 1001 1050 1001 1050 q 1017 1039 1008 1050 q 1026 1008 1026 1028 q 1016 979 1026 1006 q 991 923 1006 953 q 963 882 976 893 q 974 865 974 876 q 946 814 974 846 q 881 749 918 782 q 809 690 843 715 q 763 656 775 664 q 724 635 732 635 q 721 638 721 635 q 735 656 721 638 q 771 703 749 675 q 817 762 793 732 q 863 815 842 792 q 828 821 851 821 q 652 790 742 821 q 477 706 563 760 q 317 583 392 653 q 185 435 242 514 q 96 276 128 357 q 64 121 64 196 q 138 -28 64 15 q 338 -71 213 -71 q 536 -51 429 -71 q 753 0 643 -32 q 963 70 863 32 q 1144 148 1064 108 q 1269 221 1224 188 q 1283 228 1276 228 q 1289 222 1289 228 q 1283 211 1289 217 q 1135 90 1219 149 q 938 -22 1051 31 q 669 -119 825 -75 q 371 -169 499 -169 z "},"Ç":{"ha":1215,"x_min":29,"x_max":1289,"o":"m 371 -169 q 116 -91 203 -169 q 29 128 29 -12 q 66 324 29 222 q 170 524 103 426 q 331 702 238 621 q 540 838 425 783 q 786 907 656 892 q 804 908 794 908 q 824 908 814 908 q 887 904 856 908 q 933 893 918 900 q 951 926 940 901 q 974 980 963 951 q 994 1029 986 1008 q 1001 1050 1001 1050 q 1017 1039 1008 1050 q 1026 1008 1026 1028 q 1016 979 1026 1006 q 991 923 1006 953 q 963 882 976 893 q 974 865 974 876 q 946 814 974 846 q 881 749 918 782 q 809 690 843 715 q 763 656 775 664 q 724 635 732 635 q 721 638 721 635 q 735 656 721 638 q 771 703 749 675 q 817 762 793 732 q 863 815 842 792 q 828 821 851 821 q 652 790 742 821 q 477 706 563 760 q 317 583 392 653 q 185 435 242 514 q 96 276 128 357 q 64 121 64 196 q 138 -28 64 15 q 338 -71 213 -71 q 536 -51 429 -71 q 753 0 643 -32 q 963 70 863 32 q 1144 148 1064 108 q 1269 221 1224 188 q 1283 228 1276 228 q 1289 222 1289 228 q 1283 211 1289 217 q 1135 90 1219 149 q 938 -22 1051 31 q 669 -119 825 -75 q 371 -169 499 -169 m 274 -429 q 236 -425 253 -429 q 229 -407 229 -422 q 236 -396 229 -393 q 258 -399 247 -397 q 281 -401 269 -401 q 348 -387 317 -401 q 379 -340 379 -372 q 369 -307 379 -322 q 349 -278 360 -292 q 327 -246 336 -262 q 322 -211 318 -229 q 355 -155 329 -176 q 426 -133 381 -133 q 438 -134 432 -133 q 446 -142 444 -135 q 397 -161 415 -144 q 375 -190 378 -178 q 383 -226 371 -211 q 408 -256 394 -240 q 435 -286 424 -269 q 442 -326 446 -303 q 407 -383 435 -360 q 343 -417 379 -406 q 274 -429 307 -429 z "},"Ĉ":{"ha":1215,"x_min":29,"x_max":1289,"o":"m 371 -169 q 116 -91 203 -169 q 29 128 29 -12 q 66 324 29 222 q 170 524 103 426 q 331 702 238 621 q 540 838 425 783 q 786 907 656 892 q 804 908 794 908 q 824 908 814 908 q 887 904 856 908 q 933 893 918 900 q 951 926 940 901 q 974 980 963 951 q 994 1029 986 1008 q 1001 1050 1001 1050 q 1017 1039 1008 1050 q 1026 1008 1026 1028 q 1016 979 1026 1006 q 991 923 1006 953 q 963 882 976 893 q 974 865 974 876 q 946 814 974 846 q 881 749 918 782 q 809 690 843 715 q 763 656 775 664 q 724 635 732 635 q 721 638 721 635 q 735 656 721 638 q 771 703 749 675 q 817 762 793 732 q 863 815 842 792 q 828 821 851 821 q 652 790 742 821 q 477 706 563 760 q 317 583 392 653 q 185 435 242 514 q 96 276 128 357 q 64 121 64 196 q 138 -28 64 15 q 338 -71 213 -71 q 536 -51 429 -71 q 753 0 643 -32 q 963 70 863 32 q 1144 148 1064 108 q 1269 221 1224 188 q 1283 228 1276 228 q 1289 222 1289 228 q 1283 211 1289 217 q 1135 90 1219 149 q 938 -22 1051 31 q 669 -119 825 -75 q 371 -169 499 -169 m 706 1090 q 700 1101 700 1090 q 718 1121 703 1111 q 749 1142 725 1125 q 801 1178 772 1158 q 851 1215 829 1199 q 879 1235 874 1231 q 890 1241 885 1238 q 900 1244 894 1244 q 910 1241 906 1244 q 917 1235 915 1238 q 941 1215 921 1231 q 986 1178 961 1199 q 1032 1142 1011 1158 q 1058 1121 1053 1125 q 1071 1101 1072 1108 q 1063 1090 1071 1090 q 1033 1099 1054 1090 q 994 1115 1021 1104 q 938 1140 967 1126 q 892 1167 908 1154 q 842 1140 874 1154 q 781 1115 811 1126 q 738 1099 751 1104 q 706 1090 717 1090 z "},"Ċ":{"ha":1215,"x_min":29,"x_max":1289,"o":"m 371 -169 q 116 -91 203 -169 q 29 128 29 -12 q 66 324 29 222 q 170 524 103 426 q 331 702 238 621 q 540 838 425 783 q 786 907 656 892 q 804 908 794 908 q 824 908 814 908 q 887 904 856 908 q 933 893 918 900 q 951 926 940 901 q 974 980 963 951 q 994 1029 986 1008 q 1001 1050 1001 1050 q 1017 1039 1008 1050 q 1026 1008 1026 1028 q 1016 979 1026 1006 q 991 923 1006 953 q 963 882 976 893 q 974 865 974 876 q 946 814 974 846 q 881 749 918 782 q 809 690 843 715 q 763 656 775 664 q 724 635 732 635 q 721 638 721 635 q 735 656 721 638 q 771 703 749 675 q 817 762 793 732 q 863 815 842 792 q 828 821 851 821 q 652 790 742 821 q 477 706 563 760 q 317 583 392 653 q 185 435 242 514 q 96 276 128 357 q 64 121 64 196 q 138 -28 64 15 q 338 -71 213 -71 q 536 -51 429 -71 q 753 0 643 -32 q 963 70 863 32 q 1144 148 1064 108 q 1269 221 1224 188 q 1283 228 1276 228 q 1289 222 1289 228 q 1283 211 1289 217 q 1135 90 1219 149 q 938 -22 1051 31 q 669 -119 825 -75 q 371 -169 499 -169 m 889 1097 q 853 1111 874 1097 q 840 1132 840 1118 q 866 1172 840 1147 q 933 1196 892 1196 q 957 1186 957 1196 q 949 1174 957 1179 q 926 1142 933 1160 q 913 1110 919 1124 q 889 1097 906 1097 z "},"Ǆ":{"ha":1726,"x_min":-7,"x_max":1865,"o":"m 1782 1150 q 1788 1139 1788 1150 q 1769 1119 1785 1129 q 1739 1099 1763 1115 q 1687 1062 1715 1082 q 1636 1026 1658 1042 q 1608 1006 1614 1010 q 1598 999 1603 1003 q 1588 996 1593 996 q 1578 1000 1582 996 q 1571 1006 1574 1004 q 1547 1026 1567 1010 q 1501 1062 1526 1042 q 1456 1099 1476 1082 q 1429 1119 1436 1115 q 1417 1139 1415 1132 q 1425 1150 1417 1150 q 1454 1142 1433 1150 q 1494 1126 1467 1138 q 1551 1100 1522 1114 q 1596 1074 1579 1086 q 1646 1100 1615 1086 q 1706 1126 1676 1114 q 1750 1142 1736 1138 q 1782 1150 1771 1150 m 214 -193 q 185 -176 200 -192 q 160 -140 169 -160 q 150 -112 150 -121 q 231 -12 150 -74 q 461 107 313 50 l 751 218 q 792 317 779 267 q 806 418 806 368 q 745 640 806 542 q 585 808 685 739 q 365 907 485 876 q 276 707 315 817 q 208 482 236 597 q 165 258 181 367 q 150 61 150 150 q 153 -12 150 18 q 160 -69 156 -42 q 158 -71 160 -71 q 131 -47 142 -71 q 116 13 121 -22 q 111 82 111 49 q 130 304 111 186 q 178 539 149 422 q 240 756 208 656 q 297 922 272 856 q 241 929 269 926 q 185 932 213 932 q 76 924 125 932 q 3 910 26 917 q -7 918 -7 911 q 35 950 -7 931 q 133 983 78 969 q 281 1003 207 1003 q 306 1002 293 1003 q 331 1000 318 1001 q 335 1009 333 1006 q 339 1015 338 1013 q 364 1038 351 1038 q 376 1025 372 1038 q 382 994 381 1013 q 582 929 486 978 q 753 808 678 881 q 872 646 828 736 q 915 456 915 556 q 905 360 915 408 q 871 263 894 311 q 938 287 921 278 q 964 296 954 296 q 968 293 968 296 q 956 281 968 290 q 926 260 943 271 q 897 244 910 250 l 851 225 q 793 138 826 182 q 715 51 760 93 q 594 -44 661 0 q 456 -119 526 -87 q 323 -171 386 -151 q 214 -193 260 -190 m 204 -114 q 330 -77 275 -94 q 431 -39 385 -60 q 524 10 478 -18 q 624 79 569 39 q 719 171 681 121 q 597 122 660 147 q 468 71 533 96 q 387 31 432 57 q 300 -24 342 6 q 231 -77 258 -53 q 204 -114 204 -101 m 1635 -194 q 1568 -179 1610 -194 q 1465 -142 1531 -165 q 1321 -92 1400 -119 q 1162 -35 1242 -64 q 1013 19 1082 -6 q 1010 8 1011 15 q 1001 0 1010 0 q 989 4 997 0 q 947 23 971 13 q 899 43 922 33 q 882 0 883 15 q 863 -31 879 -31 q 851 -22 857 -31 q 844 8 844 -12 q 854 64 844 36 q 832 82 832 75 q 846 116 833 93 q 876 158 858 139 q 907 176 893 176 q 914 175 911 176 q 918 172 917 172 q 1044 306 968 236 q 1203 446 1119 376 q 1363 577 1286 515 q 1494 686 1440 639 q 1564 758 1549 733 l 1543 758 q 1438 767 1479 758 q 1367 788 1397 776 q 1304 809 1336 800 q 1225 818 1272 818 q 1113 795 1154 818 q 1052 740 1072 772 q 1026 680 1032 708 q 1019 639 1019 651 q 1010 613 1019 613 q 998 629 1004 613 q 992 674 992 646 q 996 702 992 683 q 1017 754 1000 721 q 1076 840 1035 788 q 1182 931 1125 903 q 1282 958 1239 958 q 1318 953 1303 958 q 1368 921 1338 944 q 1435 869 1399 897 q 1509 820 1471 840 q 1585 800 1547 800 q 1653 818 1621 800 q 1713 860 1686 836 q 1759 906 1740 885 q 1783 932 1778 926 q 1797 945 1790 939 q 1813 951 1803 951 q 1833 942 1821 951 q 1856 920 1846 932 q 1865 899 1865 908 q 1847 876 1865 888 q 1788 847 1829 864 q 1644 767 1728 824 q 1465 632 1560 710 q 1277 467 1371 554 q 1103 295 1183 379 q 967 142 1022 211 q 1069 88 1010 118 q 1195 28 1128 58 q 1330 -28 1263 -3 q 1456 -68 1397 -53 q 1556 -83 1514 -83 q 1614 -32 1614 -83 q 1591 52 1614 4 q 1533 148 1568 100 q 1457 228 1497 196 q 1439 250 1439 242 q 1449 256 1439 256 q 1471 251 1457 256 q 1497 235 1485 246 q 1553 172 1521 215 q 1617 72 1586 128 q 1669 -37 1649 17 q 1690 -132 1690 -92 q 1678 -177 1690 -160 q 1635 -194 1665 -194 z "},"Ð":{"ha":954,"x_min":-7,"x_max":968,"o":"m 214 -193 q 185 -176 200 -192 q 160 -140 169 -160 q 150 -112 150 -121 q 231 -12 150 -74 q 461 107 313 50 l 751 218 q 792 317 779 267 q 806 418 806 368 q 745 640 806 542 q 585 808 685 739 q 365 907 485 876 q 285 730 322 826 q 222 531 249 633 q 176 331 194 429 q 259 337 221 332 q 313 343 297 342 q 314 340 314 343 q 308 322 314 335 q 299 306 301 308 q 247 290 283 297 q 168 279 210 283 q 154 165 158 219 q 150 61 150 110 q 153 -12 150 18 q 160 -69 156 -42 q 158 -71 160 -71 q 131 -47 142 -71 q 116 13 121 -22 q 111 82 111 49 q 115 176 111 126 q 126 275 119 225 q 77 273 100 274 q 38 272 54 272 q 18 272 26 272 q 6 274 10 272 l 3 274 q -1 282 -1 274 q 5 308 -1 292 q 20 336 11 324 q 38 349 29 349 l 40 349 q 81 335 56 339 q 135 331 106 332 q 183 556 154 444 q 242 763 211 667 q 297 922 274 858 q 241 929 269 926 q 185 932 213 932 q 76 924 125 932 q 3 910 26 917 q -7 918 -7 911 q 35 950 -7 931 q 133 983 78 969 q 281 1003 207 1003 q 306 1002 293 1003 q 331 1000 318 1001 q 335 1009 333 1006 q 339 1015 338 1013 q 364 1038 351 1038 q 376 1025 372 1038 q 382 994 381 1013 q 582 929 486 978 q 753 808 678 881 q 872 646 828 736 q 915 456 915 556 q 905 360 915 408 q 871 263 894 311 q 938 287 921 278 q 964 296 954 296 q 968 293 968 296 q 956 280 968 290 q 926 260 943 269 q 897 244 910 250 l 851 225 q 793 138 826 182 q 715 51 760 93 q 594 -44 661 0 q 456 -119 526 -87 q 323 -171 386 -151 q 214 -193 260 -190 m 204 -114 q 330 -77 275 -94 q 431 -39 385 -60 q 524 10 478 -18 q 624 79 569 39 q 719 171 681 121 q 597 122 660 147 q 468 71 533 96 q 387 31 432 57 q 300 -24 342 6 q 231 -77 258 -53 q 204 -114 204 -101 z "},"Ď":{"ha":954,"x_min":-7,"x_max":968,"o":"m 858 1168 q 864 1157 864 1168 q 846 1138 861 1147 q 815 1117 839 1133 q 763 1080 792 1100 q 713 1044 735 1060 q 685 1024 690 1028 q 674 1017 679 1021 q 664 1014 669 1014 q 654 1018 658 1014 q 647 1024 650 1022 q 623 1044 643 1028 q 578 1080 603 1060 q 533 1117 553 1100 q 506 1138 513 1133 q 493 1157 492 1150 q 501 1168 493 1168 q 531 1160 510 1168 q 571 1144 543 1156 q 627 1118 599 1132 q 672 1092 656 1104 q 722 1118 692 1104 q 783 1144 753 1132 q 826 1160 813 1156 q 858 1168 847 1168 m 214 -193 q 185 -176 200 -192 q 160 -140 169 -160 q 150 -112 150 -121 q 231 -12 150 -74 q 461 107 313 50 l 751 218 q 792 317 779 267 q 806 418 806 368 q 745 640 806 542 q 585 808 685 739 q 365 907 485 876 q 276 707 315 817 q 208 482 236 597 q 165 258 181 367 q 150 61 150 150 q 153 -12 150 18 q 160 -69 156 -42 q 158 -71 160 -71 q 131 -47 142 -71 q 116 13 121 -22 q 111 82 111 49 q 130 304 111 186 q 178 539 149 422 q 240 756 208 656 q 297 922 272 856 q 241 929 269 926 q 185 932 213 932 q 76 924 125 932 q 3 910 26 917 q -7 918 -7 911 q 35 950 -7 931 q 133 983 78 969 q 281 1003 207 1003 q 306 1002 293 1003 q 331 1000 318 1001 q 335 1009 333 1006 q 339 1015 338 1013 q 364 1038 351 1038 q 376 1025 372 1038 q 382 994 381 1013 q 582 929 486 978 q 753 808 678 881 q 872 646 828 736 q 915 456 915 556 q 905 360 915 408 q 871 263 894 311 q 938 287 921 278 q 964 296 954 296 q 968 293 968 296 q 956 281 968 290 q 926 260 943 271 q 897 244 910 250 l 851 225 q 793 138 826 182 q 715 51 760 93 q 594 -44 661 0 q 456 -119 526 -87 q 323 -171 386 -151 q 214 -193 260 -190 m 204 -114 q 330 -77 275 -94 q 431 -39 385 -60 q 524 10 478 -18 q 624 79 569 39 q 719 171 681 121 q 597 122 660 147 q 468 71 533 96 q 387 31 432 57 q 300 -24 342 6 q 231 -77 258 -53 q 204 -114 204 -101 z "},"Đ":{"ha":954,"x_min":-7,"x_max":968,"o":"m 214 -193 q 185 -176 200 -192 q 160 -140 169 -160 q 150 -112 150 -121 q 231 -12 150 -74 q 461 107 313 50 l 751 218 q 792 317 779 267 q 806 418 806 368 q 745 640 806 542 q 585 808 685 739 q 365 907 485 876 q 285 730 322 826 q 222 531 249 633 q 176 331 194 429 q 259 337 221 332 q 313 343 297 342 q 314 340 314 343 q 308 322 314 335 q 299 306 301 308 q 247 290 283 297 q 168 279 210 283 q 154 165 158 219 q 150 61 150 110 q 153 -12 150 18 q 160 -69 156 -42 q 158 -71 160 -71 q 131 -47 142 -71 q 116 13 121 -22 q 111 82 111 49 q 115 176 111 126 q 126 275 119 225 q 77 273 100 274 q 38 272 54 272 q 18 272 26 272 q 6 274 10 272 l 3 274 q -1 282 -1 274 q 5 308 -1 292 q 20 336 11 324 q 38 349 29 349 l 40 349 q 81 335 56 339 q 135 331 106 332 q 183 556 154 444 q 242 763 211 667 q 297 922 274 858 q 241 929 269 926 q 185 932 213 932 q 76 924 125 932 q 3 910 26 917 q -7 918 -7 911 q 35 950 -7 931 q 133 983 78 969 q 281 1003 207 1003 q 306 1002 293 1003 q 331 1000 318 1001 q 335 1009 333 1006 q 339 1015 338 1013 q 364 1038 351 1038 q 376 1025 372 1038 q 382 994 381 1013 q 582 929 486 978 q 753 808 678 881 q 872 646 828 736 q 915 456 915 556 q 905 360 915 408 q 871 263 894 311 q 938 287 921 278 q 964 296 954 296 q 968 293 968 296 q 956 280 968 290 q 926 260 943 269 q 897 244 910 250 l 851 225 q 793 138 826 182 q 715 51 760 93 q 594 -44 661 0 q 456 -119 526 -87 q 323 -171 386 -151 q 214 -193 260 -190 m 204 -114 q 330 -77 275 -94 q 431 -39 385 -60 q 524 10 478 -18 q 624 79 569 39 q 719 171 681 121 q 597 122 660 147 q 468 71 533 96 q 387 31 432 57 q 300 -24 342 6 q 231 -77 258 -53 q 204 -114 204 -101 z "},"Ḋ":{"ha":954,"x_min":-7,"x_max":968,"o":"m 214 -193 q 185 -176 200 -192 q 160 -140 169 -160 q 150 -112 150 -121 q 231 -12 150 -74 q 461 107 313 50 l 751 218 q 792 317 779 267 q 806 418 806 368 q 745 640 806 542 q 585 808 685 739 q 365 907 485 876 q 276 707 315 817 q 208 482 236 597 q 165 258 181 367 q 150 61 150 150 q 153 -12 150 18 q 160 -69 156 -42 q 158 -71 160 -71 q 131 -47 142 -71 q 116 13 121 -22 q 111 82 111 49 q 130 304 111 186 q 178 539 149 422 q 240 756 208 656 q 297 922 272 856 q 241 929 269 926 q 185 932 213 932 q 76 924 125 932 q 3 910 26 917 q -7 918 -7 911 q 35 950 -7 931 q 133 983 78 969 q 281 1003 207 1003 q 306 1002 293 1003 q 331 1000 318 1001 q 335 1009 333 1006 q 339 1015 338 1013 q 364 1038 351 1038 q 376 1025 372 1038 q 382 994 381 1013 q 582 929 486 978 q 753 808 678 881 q 872 646 828 736 q 915 456 915 556 q 905 360 915 408 q 871 263 894 311 q 938 287 921 278 q 964 296 954 296 q 968 293 968 296 q 956 281 968 290 q 926 260 943 271 q 897 244 910 250 l 851 225 q 793 138 826 182 q 715 51 760 93 q 594 -44 661 0 q 456 -119 526 -87 q 323 -171 386 -151 q 214 -193 260 -190 m 204 -114 q 330 -77 275 -94 q 431 -39 385 -60 q 524 10 478 -18 q 624 79 569 39 q 719 171 681 121 q 597 122 660 147 q 468 71 533 96 q 387 31 432 57 q 300 -24 342 6 q 231 -77 258 -53 q 204 -114 204 -101 m 664 1021 q 628 1035 649 1021 q 615 1056 615 1042 q 641 1095 615 1071 q 708 1119 667 1119 q 732 1110 732 1119 q 724 1097 732 1103 q 701 1065 708 1083 q 688 1034 694 1047 q 664 1021 681 1021 z "},"ǅ":{"ha":1308,"x_min":-7,"x_max":1422,"o":"m 1415 775 q 1418 764 1422 775 q 1394 744 1414 756 q 1363 726 1386 740 q 1311 694 1339 711 q 1262 663 1283 676 q 1233 644 1240 649 q 1222 638 1228 642 q 1210 635 1215 635 q 1201 639 1204 635 q 1196 644 1197 643 q 1173 672 1192 650 q 1135 717 1154 694 q 1110 744 1117 739 q 1103 764 1099 756 q 1114 775 1107 775 q 1140 767 1124 775 q 1187 739 1157 760 q 1236 699 1217 718 q 1314 739 1269 718 q 1381 767 1358 760 q 1415 775 1406 775 m 214 -193 q 185 -176 200 -192 q 160 -140 169 -160 q 150 -112 150 -121 q 231 -12 150 -74 q 461 107 313 50 l 751 218 q 792 317 779 267 q 806 418 806 368 q 745 640 806 542 q 585 808 685 739 q 365 907 485 876 q 276 707 315 817 q 208 482 236 597 q 165 258 181 367 q 150 61 150 150 q 153 -12 150 18 q 160 -69 156 -42 q 158 -71 160 -71 q 131 -47 142 -71 q 116 13 121 -22 q 111 82 111 49 q 130 304 111 186 q 178 539 149 422 q 240 756 208 656 q 297 922 272 856 q 241 929 269 926 q 185 932 213 932 q 76 924 125 932 q 3 910 26 917 q -7 918 -7 911 q 35 950 -7 931 q 133 983 78 969 q 281 1003 207 1003 q 306 1002 293 1003 q 331 1000 318 1001 q 335 1009 333 1006 q 339 1015 338 1013 q 364 1038 351 1038 q 376 1025 372 1038 q 382 994 381 1013 q 582 929 486 978 q 753 808 678 881 q 872 646 828 736 q 915 456 915 556 q 905 360 915 408 q 871 263 894 311 q 938 287 921 278 q 964 296 954 296 q 968 293 968 296 q 956 281 968 290 q 926 260 943 271 q 897 244 910 250 l 851 225 q 793 138 826 182 q 715 51 760 93 q 594 -44 661 0 q 456 -119 526 -87 q 323 -171 386 -151 q 214 -193 260 -190 m 204 -114 q 330 -77 275 -94 q 431 -39 385 -60 q 524 10 478 -18 q 624 79 569 39 q 719 171 681 121 q 597 122 660 147 q 468 71 533 96 q 387 31 432 57 q 300 -24 342 6 q 231 -77 258 -53 q 204 -114 204 -101 m 1276 -29 q 1215 -15 1254 -29 q 1138 16 1176 -1 q 1076 43 1099 33 q 1023 65 1056 53 q 963 86 990 76 l 958 74 q 942 51 950 51 q 931 72 931 51 q 935 96 931 82 l 908 106 q 897 119 897 110 q 925 153 897 139 q 982 168 953 168 q 1049 249 1010 203 q 1129 345 1088 296 q 1208 439 1171 394 q 1155 455 1188 446 q 1094 472 1122 464 q 1058 479 1067 479 q 1010 462 1029 479 q 981 426 992 444 q 961 408 969 408 q 954 418 954 408 q 955 424 954 421 q 957 431 956 426 q 987 489 964 454 q 1038 551 1010 524 q 1089 578 1065 578 q 1113 563 1103 578 q 1165 489 1139 517 q 1228 461 1192 461 q 1283 526 1253 489 q 1340 613 1313 564 q 1350 617 1343 617 q 1377 603 1361 617 q 1393 571 1393 590 q 1392 563 1393 567 q 1390 556 1392 560 q 1347 489 1372 510 q 1297 461 1321 468 q 1257 449 1274 454 q 1183 363 1226 413 q 1093 260 1139 313 q 1013 161 1047 207 q 1025 156 1021 158 q 1063 129 1032 150 q 1134 83 1093 108 q 1215 40 1175 58 q 1278 22 1254 22 q 1301 43 1301 22 q 1290 98 1301 50 q 1235 206 1279 146 q 1231 213 1233 208 q 1228 219 1228 218 q 1232 224 1228 224 q 1267 199 1247 224 q 1306 140 1288 175 q 1338 74 1325 106 q 1350 29 1350 43 q 1331 -8 1350 14 q 1276 -29 1313 -29 z "},"É":{"ha":733,"x_min":-14,"x_max":906,"o":"m 488 -150 q 370 -142 436 -150 q 237 -117 304 -133 q 113 -75 169 -100 q 21 -16 56 -50 q -14 60 -14 18 q 26 149 -14 103 q 119 258 74 203 q 217 365 164 314 q 338 456 269 415 q 169 590 233 510 q 106 747 106 669 q 147 857 106 807 q 256 945 188 907 q 406 1009 324 983 q 574 1049 489 1035 q 732 1063 660 1063 q 803 1060 769 1063 q 861 1050 836 1057 q 884 1026 874 1047 q 900 981 894 1004 q 906 946 906 957 l 906 940 q 844 899 889 917 q 739 867 800 881 q 610 844 678 854 q 476 829 542 835 q 358 821 411 824 q 276 818 306 818 q 237 822 246 818 q 228 829 228 825 q 272 842 228 838 q 389 851 317 846 q 544 869 461 857 q 708 905 628 881 q 846 972 788 929 q 781 975 811 975 q 724 975 751 975 q 611 969 663 975 q 506 951 560 964 q 388 917 453 939 q 201 821 253 872 q 149 713 149 769 q 178 625 149 669 q 256 542 207 581 q 365 474 306 503 q 420 499 383 483 q 497 530 457 514 q 569 556 538 546 q 607 567 600 567 q 644 547 631 567 q 657 506 657 528 q 633 468 657 483 q 574 443 610 453 q 499 429 538 433 q 429 425 460 425 q 263 340 342 388 q 135 236 185 292 q 86 118 86 181 q 126 33 86 68 q 231 -22 165 -1 q 376 -53 297 -43 q 535 -62 456 -62 q 674 -53 613 -62 q 757 -29 736 -43 q 769 -37 769 -31 q 748 -62 769 -44 q 688 -101 726 -81 q 599 -135 650 -121 q 488 -150 547 -150 m 528 1125 q 521 1136 521 1125 q 536 1156 521 1144 q 567 1179 543 1160 q 622 1222 592 1199 q 674 1263 651 1244 q 701 1283 697 1281 q 713 1292 710 1290 q 721 1293 717 1293 q 735 1283 726 1293 q 749 1261 743 1272 q 754 1244 756 1250 q 730 1223 754 1239 q 671 1188 706 1207 q 605 1154 636 1169 q 558 1133 574 1139 q 528 1125 538 1125 z "},"Ĕ":{"ha":733,"x_min":-14,"x_max":906,"o":"m 488 -150 q 370 -142 436 -150 q 237 -117 304 -133 q 113 -75 169 -100 q 21 -16 56 -50 q -14 60 -14 18 q 26 149 -14 103 q 119 258 74 203 q 217 365 164 314 q 338 456 269 415 q 169 590 233 510 q 106 747 106 669 q 147 857 106 807 q 256 945 188 907 q 406 1009 324 983 q 574 1049 489 1035 q 732 1063 660 1063 q 803 1060 769 1063 q 861 1050 836 1057 q 884 1026 874 1047 q 900 981 894 1004 q 906 946 906 957 l 906 940 q 844 899 889 917 q 739 867 800 881 q 610 844 678 854 q 476 829 542 835 q 358 821 411 824 q 276 818 306 818 q 237 822 246 818 q 228 829 228 825 q 272 842 228 838 q 389 851 317 846 q 544 869 461 857 q 708 905 628 881 q 846 972 788 929 q 781 975 811 975 q 724 975 751 975 q 611 969 663 975 q 506 951 560 964 q 388 917 453 939 q 201 821 253 872 q 149 713 149 769 q 178 625 149 669 q 256 542 207 581 q 365 474 306 503 q 420 499 383 483 q 497 530 457 514 q 569 556 538 546 q 607 567 600 567 q 644 547 631 567 q 657 506 657 528 q 633 468 657 483 q 574 443 610 453 q 499 429 538 433 q 429 425 460 425 q 263 340 342 388 q 135 236 185 292 q 86 118 86 181 q 126 33 86 68 q 231 -22 165 -1 q 376 -53 297 -43 q 535 -62 456 -62 q 674 -53 613 -62 q 757 -29 736 -43 q 769 -37 769 -31 q 748 -62 769 -44 q 688 -101 726 -81 q 599 -135 650 -121 q 488 -150 547 -150 m 629 1121 q 558 1143 590 1121 q 506 1197 525 1165 q 486 1260 486 1229 q 493 1286 486 1286 q 508 1271 497 1286 q 535 1236 518 1256 q 578 1201 553 1217 q 636 1186 603 1186 q 713 1208 678 1186 q 771 1255 747 1231 q 803 1286 794 1279 q 807 1288 804 1288 q 810 1283 810 1288 q 807 1268 810 1279 q 784 1210 806 1246 q 723 1148 763 1175 q 629 1121 683 1121 z "},"Ě":{"ha":733,"x_min":-14,"x_max":906,"o":"m 824 1272 q 829 1261 829 1272 q 811 1242 826 1251 q 781 1221 804 1238 q 728 1184 757 1204 q 678 1148 700 1164 q 650 1128 656 1132 q 640 1122 644 1125 q 629 1118 635 1118 q 619 1122 624 1118 q 613 1128 615 1126 q 588 1148 608 1132 q 543 1184 568 1164 q 498 1221 518 1204 q 471 1242 478 1238 q 458 1261 457 1254 q 467 1272 458 1272 q 496 1264 475 1272 q 536 1248 508 1260 q 592 1222 564 1236 q 638 1196 621 1208 q 688 1222 657 1208 q 748 1248 718 1236 q 792 1264 778 1260 q 824 1272 813 1272 m 488 -150 q 370 -142 436 -150 q 237 -117 304 -133 q 113 -75 169 -100 q 21 -16 56 -50 q -14 60 -14 18 q 26 149 -14 103 q 119 258 74 203 q 217 365 164 314 q 338 456 269 415 q 169 590 233 510 q 106 747 106 669 q 147 857 106 807 q 256 945 188 907 q 406 1009 324 983 q 574 1049 489 1035 q 732 1063 660 1063 q 803 1060 769 1063 q 861 1050 836 1057 q 884 1026 874 1047 q 900 981 894 1004 q 906 946 906 957 l 906 940 q 844 899 889 917 q 739 867 800 881 q 610 844 678 854 q 476 829 542 835 q 358 821 411 824 q 276 818 306 818 q 237 822 246 818 q 228 829 228 825 q 272 842 228 838 q 389 851 317 846 q 544 869 461 857 q 708 905 628 881 q 846 972 788 929 q 781 975 811 975 q 724 975 751 975 q 611 969 663 975 q 506 951 560 964 q 388 917 453 939 q 201 821 253 872 q 149 713 149 769 q 178 625 149 669 q 256 542 207 581 q 365 474 306 503 q 420 499 383 483 q 497 530 457 514 q 569 556 538 546 q 607 567 600 567 q 644 547 631 567 q 657 506 657 528 q 633 468 657 483 q 574 443 610 453 q 499 429 538 433 q 429 425 460 425 q 263 340 342 388 q 135 236 185 292 q 86 118 86 181 q 126 33 86 68 q 231 -22 165 -1 q 376 -53 297 -43 q 535 -62 456 -62 q 674 -53 613 -62 q 757 -29 736 -43 q 769 -37 769 -31 q 748 -62 769 -44 q 688 -101 726 -81 q 599 -135 650 -121 q 488 -150 547 -150 z "},"Ê":{"ha":733,"x_min":-14,"x_max":906,"o":"m 488 -150 q 370 -142 436 -150 q 237 -117 304 -133 q 113 -75 169 -100 q 21 -16 56 -50 q -14 60 -14 18 q 26 149 -14 103 q 119 258 74 203 q 217 365 164 314 q 338 456 269 415 q 169 590 233 510 q 106 747 106 669 q 147 857 106 807 q 256 945 188 907 q 406 1009 324 983 q 574 1049 489 1035 q 732 1063 660 1063 q 803 1060 769 1063 q 861 1050 836 1057 q 884 1026 874 1047 q 900 981 894 1004 q 906 946 906 957 l 906 940 q 844 899 889 917 q 739 867 800 881 q 610 844 678 854 q 476 829 542 835 q 358 821 411 824 q 276 818 306 818 q 237 822 246 818 q 228 829 228 825 q 272 842 228 838 q 389 851 317 846 q 544 869 461 857 q 708 905 628 881 q 846 972 788 929 q 781 975 811 975 q 724 975 751 975 q 611 969 663 975 q 506 951 560 964 q 388 917 453 939 q 201 821 253 872 q 149 713 149 769 q 178 625 149 669 q 256 542 207 581 q 365 474 306 503 q 420 499 383 483 q 497 530 457 514 q 569 556 538 546 q 607 567 600 567 q 644 547 631 567 q 657 506 657 528 q 633 468 657 483 q 574 443 610 453 q 499 429 538 433 q 429 425 460 425 q 263 340 342 388 q 135 236 185 292 q 86 118 86 181 q 126 33 86 68 q 231 -22 165 -1 q 376 -53 297 -43 q 535 -62 456 -62 q 674 -53 613 -62 q 757 -29 736 -43 q 769 -37 769 -31 q 748 -62 769 -44 q 688 -101 726 -81 q 599 -135 650 -121 q 488 -150 547 -150 m 446 1118 q 440 1129 440 1118 q 458 1149 443 1139 q 489 1169 465 1153 q 541 1206 513 1186 q 592 1242 569 1226 q 619 1263 614 1258 q 630 1269 625 1265 q 640 1272 635 1272 q 651 1269 646 1272 q 657 1263 656 1265 q 681 1242 661 1258 q 726 1206 701 1226 q 772 1169 751 1186 q 799 1149 793 1153 q 811 1129 813 1136 q 803 1118 811 1118 q 774 1126 794 1118 q 734 1143 761 1132 q 678 1168 707 1154 q 632 1194 649 1182 q 583 1168 614 1182 q 522 1143 551 1154 q 478 1126 492 1132 q 446 1118 457 1118 z "},"Ế":{"ha":733,"x_min":-14,"x_max":906,"o":"m 488 -150 q 370 -142 436 -150 q 237 -117 304 -133 q 113 -75 169 -100 q 21 -16 56 -50 q -14 60 -14 18 q 26 149 -14 103 q 119 258 74 203 q 217 365 164 314 q 338 456 269 415 q 169 590 233 510 q 106 747 106 669 q 147 857 106 807 q 256 945 188 907 q 406 1009 324 983 q 574 1049 489 1035 q 732 1063 660 1063 q 803 1060 769 1063 q 861 1050 836 1057 q 884 1026 874 1047 q 900 981 894 1004 q 906 946 906 957 l 906 940 q 844 899 889 917 q 739 867 800 881 q 610 844 678 854 q 476 829 542 835 q 358 821 411 824 q 276 818 306 818 q 237 822 246 818 q 228 829 228 825 q 272 842 228 838 q 389 851 317 846 q 544 869 461 857 q 708 905 628 881 q 846 972 788 929 q 781 975 811 975 q 724 975 751 975 q 611 969 663 975 q 506 951 560 964 q 388 917 453 939 q 201 821 253 872 q 149 713 149 769 q 178 625 149 669 q 256 542 207 581 q 365 474 306 503 q 420 499 383 483 q 497 530 457 514 q 569 556 538 546 q 607 567 600 567 q 644 547 631 567 q 657 506 657 528 q 633 468 657 483 q 574 443 610 453 q 499 429 538 433 q 429 425 460 425 q 263 340 342 388 q 135 236 185 292 q 86 118 86 181 q 126 33 86 68 q 231 -22 165 -1 q 376 -53 297 -43 q 535 -62 456 -62 q 674 -53 613 -62 q 757 -29 736 -43 q 769 -37 769 -31 q 748 -62 769 -44 q 688 -101 726 -81 q 599 -135 650 -121 q 488 -150 547 -150 m 446 1118 q 440 1129 440 1118 q 458 1149 443 1139 q 489 1169 465 1153 q 541 1206 513 1186 q 592 1242 569 1226 q 619 1263 614 1258 q 630 1269 625 1265 q 640 1272 635 1272 q 651 1269 646 1272 q 657 1263 656 1265 q 681 1242 661 1258 q 726 1206 701 1226 q 772 1169 751 1186 q 799 1149 793 1153 q 811 1129 813 1136 q 803 1118 811 1118 q 774 1126 794 1118 q 734 1143 761 1132 q 678 1168 707 1154 q 632 1194 649 1182 q 583 1168 614 1182 q 522 1143 551 1154 q 478 1126 492 1132 q 446 1118 457 1118 m 528 1296 q 521 1307 521 1296 q 536 1326 521 1315 q 567 1350 543 1331 q 622 1392 592 1369 q 674 1433 651 1415 q 701 1454 697 1451 q 713 1463 710 1461 q 721 1464 717 1464 q 735 1453 726 1464 q 749 1432 743 1443 q 754 1415 756 1421 q 730 1394 754 1410 q 671 1359 706 1378 q 605 1325 636 1340 q 558 1304 574 1310 q 528 1296 538 1296 z "},"Ệ":{"ha":733,"x_min":-14,"x_max":906,"o":"m 488 -150 q 370 -142 436 -150 q 237 -117 304 -133 q 113 -75 169 -100 q 21 -16 56 -50 q -14 60 -14 18 q 26 149 -14 103 q 119 258 74 203 q 217 365 164 314 q 338 456 269 415 q 169 590 233 510 q 106 747 106 669 q 147 857 106 807 q 256 945 188 907 q 406 1009 324 983 q 574 1049 489 1035 q 732 1063 660 1063 q 803 1060 769 1063 q 861 1050 836 1057 q 884 1026 874 1047 q 900 981 894 1004 q 906 946 906 957 l 906 940 q 844 899 889 917 q 739 867 800 881 q 610 844 678 854 q 476 829 542 835 q 358 821 411 824 q 276 818 306 818 q 237 822 246 818 q 228 829 228 825 q 272 842 228 838 q 389 851 317 846 q 544 869 461 857 q 708 905 628 881 q 846 972 788 929 q 781 975 811 975 q 724 975 751 975 q 611 969 663 975 q 506 951 560 964 q 388 917 453 939 q 201 821 253 872 q 149 713 149 769 q 178 625 149 669 q 256 542 207 581 q 365 474 306 503 q 420 499 383 483 q 497 530 457 514 q 569 556 538 546 q 607 567 600 567 q 644 547 631 567 q 657 506 657 528 q 633 468 657 483 q 574 443 610 453 q 499 429 538 433 q 429 425 460 425 q 263 340 342 388 q 135 236 185 292 q 86 118 86 181 q 126 33 86 68 q 231 -22 165 -1 q 376 -53 297 -43 q 535 -62 456 -62 q 674 -53 613 -62 q 757 -29 736 -43 q 769 -37 769 -31 q 748 -62 769 -44 q 688 -101 726 -81 q 599 -135 650 -121 q 488 -150 547 -150 m 336 -312 q 304 -301 322 -312 q 293 -282 293 -294 q 315 -247 293 -268 q 374 -226 338 -226 q 394 -236 394 -226 q 388 -246 394 -242 q 368 -273 374 -257 q 356 -301 363 -289 q 336 -312 350 -312 m 446 1118 q 440 1129 440 1118 q 458 1149 443 1139 q 489 1169 465 1153 q 541 1206 513 1186 q 592 1242 569 1226 q 619 1263 614 1258 q 630 1269 625 1265 q 640 1272 635 1272 q 651 1269 646 1272 q 657 1263 656 1265 q 681 1242 661 1258 q 726 1206 701 1226 q 772 1169 751 1186 q 799 1149 793 1153 q 811 1129 813 1136 q 803 1118 811 1118 q 774 1126 794 1118 q 734 1143 761 1132 q 678 1168 707 1154 q 632 1194 649 1182 q 583 1168 614 1182 q 522 1143 551 1154 q 478 1126 492 1132 q 446 1118 457 1118 z "},"Ề":{"ha":733,"x_min":-14,"x_max":906,"o":"m 488 -150 q 370 -142 436 -150 q 237 -117 304 -133 q 113 -75 169 -100 q 21 -16 56 -50 q -14 60 -14 18 q 26 149 -14 103 q 119 258 74 203 q 217 365 164 314 q 338 456 269 415 q 169 590 233 510 q 106 747 106 669 q 147 857 106 807 q 256 945 188 907 q 406 1009 324 983 q 574 1049 489 1035 q 732 1063 660 1063 q 803 1060 769 1063 q 861 1050 836 1057 q 884 1026 874 1047 q 900 981 894 1004 q 906 946 906 957 l 906 940 q 844 899 889 917 q 739 867 800 881 q 610 844 678 854 q 476 829 542 835 q 358 821 411 824 q 276 818 306 818 q 237 822 246 818 q 228 829 228 825 q 272 842 228 838 q 389 851 317 846 q 544 869 461 857 q 708 905 628 881 q 846 972 788 929 q 781 975 811 975 q 724 975 751 975 q 611 969 663 975 q 506 951 560 964 q 388 917 453 939 q 201 821 253 872 q 149 713 149 769 q 178 625 149 669 q 256 542 207 581 q 365 474 306 503 q 420 499 383 483 q 497 530 457 514 q 569 556 538 546 q 607 567 600 567 q 644 547 631 567 q 657 506 657 528 q 633 468 657 483 q 574 443 610 453 q 499 429 538 433 q 429 425 460 425 q 263 340 342 388 q 135 236 185 292 q 86 118 86 181 q 126 33 86 68 q 231 -22 165 -1 q 376 -53 297 -43 q 535 -62 456 -62 q 674 -53 613 -62 q 757 -29 736 -43 q 769 -37 769 -31 q 748 -62 769 -44 q 688 -101 726 -81 q 599 -135 650 -121 q 488 -150 547 -150 m 446 1118 q 440 1129 440 1118 q 458 1149 443 1139 q 489 1169 465 1153 q 541 1206 513 1186 q 592 1242 569 1226 q 619 1263 614 1258 q 630 1269 625 1265 q 640 1272 635 1272 q 651 1269 646 1272 q 657 1263 656 1265 q 681 1242 661 1258 q 726 1206 701 1226 q 772 1169 751 1186 q 799 1149 793 1153 q 811 1129 813 1136 q 803 1118 811 1118 q 774 1126 794 1118 q 734 1143 761 1132 q 678 1168 707 1154 q 632 1194 649 1182 q 583 1168 614 1182 q 522 1143 551 1154 q 478 1126 492 1132 q 446 1118 457 1118 m 781 1271 q 750 1279 771 1271 q 704 1300 736 1285 q 638 1334 672 1315 q 578 1369 603 1353 q 554 1390 554 1385 q 559 1407 553 1396 q 574 1428 565 1418 q 588 1439 583 1439 q 595 1438 592 1439 q 607 1429 599 1436 q 634 1408 611 1426 q 687 1367 657 1390 q 741 1325 717 1344 q 772 1301 765 1306 q 788 1282 788 1290 q 781 1271 788 1271 z "},"Ể":{"ha":733,"x_min":-14,"x_max":915,"o":"m 488 -150 q 370 -142 436 -150 q 237 -117 304 -133 q 113 -75 169 -100 q 21 -16 56 -50 q -14 60 -14 18 q 26 149 -14 103 q 119 258 74 203 q 217 365 164 314 q 338 456 269 415 q 169 590 233 510 q 106 747 106 669 q 147 857 106 807 q 256 945 188 907 q 406 1009 324 983 q 574 1049 489 1035 q 732 1063 660 1063 q 803 1060 769 1063 q 861 1050 836 1057 q 884 1026 874 1047 q 900 981 894 1004 q 906 946 906 957 l 906 940 q 844 899 889 917 q 739 867 800 881 q 610 844 678 854 q 476 829 542 835 q 358 821 411 824 q 276 818 306 818 q 237 822 246 818 q 228 829 228 825 q 272 842 228 838 q 389 851 317 846 q 544 869 461 857 q 708 905 628 881 q 846 972 788 929 q 781 975 811 975 q 724 975 751 975 q 611 969 663 975 q 506 951 560 964 q 388 917 453 939 q 201 821 253 872 q 149 713 149 769 q 178 625 149 669 q 256 542 207 581 q 365 474 306 503 q 420 499 383 483 q 497 530 457 514 q 569 556 538 546 q 607 567 600 567 q 644 547 631 567 q 657 506 657 528 q 633 468 657 483 q 574 443 610 453 q 499 429 538 433 q 429 425 460 425 q 263 340 342 388 q 135 236 185 292 q 86 118 86 181 q 126 33 86 68 q 231 -22 165 -1 q 376 -53 297 -43 q 535 -62 456 -62 q 674 -53 613 -62 q 757 -29 736 -43 q 769 -37 769 -31 q 748 -62 769 -44 q 688 -101 726 -81 q 599 -135 650 -121 q 488 -150 547 -150 m 446 1118 q 440 1129 440 1118 q 458 1149 443 1139 q 489 1169 465 1153 q 541 1206 513 1186 q 592 1242 569 1226 q 619 1263 614 1258 q 630 1269 625 1265 q 640 1272 635 1272 q 651 1269 646 1272 q 657 1263 656 1265 q 681 1242 661 1258 q 726 1206 701 1226 q 772 1169 751 1186 q 799 1149 793 1153 q 811 1129 813 1136 q 803 1118 811 1118 q 774 1126 794 1118 q 734 1143 761 1132 q 678 1168 707 1154 q 632 1194 649 1182 q 583 1168 614 1182 q 522 1143 551 1154 q 478 1126 492 1132 q 446 1118 457 1118 m 801 1232 q 793 1237 796 1232 q 796 1247 790 1242 q 827 1288 811 1263 q 843 1338 843 1314 q 831 1368 843 1357 q 799 1379 818 1379 q 759 1374 774 1379 q 742 1369 744 1369 q 736 1374 739 1369 q 739 1385 733 1379 q 783 1415 756 1401 q 828 1428 811 1428 q 895 1407 875 1428 q 915 1358 915 1386 q 895 1302 915 1326 q 851 1261 875 1278 q 811 1235 826 1244 q 801 1232 806 1232 z "},"Ễ":{"ha":733,"x_min":-14,"x_max":906,"o":"m 488 -150 q 370 -142 436 -150 q 237 -117 304 -133 q 113 -75 169 -100 q 21 -16 56 -50 q -14 60 -14 18 q 26 149 -14 103 q 119 258 74 203 q 217 365 164 314 q 338 456 269 415 q 169 590 233 510 q 106 747 106 669 q 147 857 106 807 q 256 945 188 907 q 406 1009 324 983 q 574 1049 489 1035 q 732 1063 660 1063 q 803 1060 769 1063 q 861 1050 836 1057 q 884 1026 874 1047 q 900 981 894 1004 q 906 946 906 957 l 906 940 q 844 899 889 917 q 739 867 800 881 q 610 844 678 854 q 476 829 542 835 q 358 821 411 824 q 276 818 306 818 q 237 822 246 818 q 228 829 228 825 q 272 842 228 838 q 389 851 317 846 q 544 869 461 857 q 708 905 628 881 q 846 972 788 929 q 781 975 811 975 q 724 975 751 975 q 611 969 663 975 q 506 951 560 964 q 388 917 453 939 q 201 821 253 872 q 149 713 149 769 q 178 625 149 669 q 256 542 207 581 q 365 474 306 503 q 420 499 383 483 q 497 530 457 514 q 569 556 538 546 q 607 567 600 567 q 644 547 631 567 q 657 506 657 528 q 633 468 657 483 q 574 443 610 453 q 499 429 538 433 q 429 425 460 425 q 263 340 342 388 q 135 236 185 292 q 86 118 86 181 q 126 33 86 68 q 231 -22 165 -1 q 376 -53 297 -43 q 535 -62 456 -62 q 674 -53 613 -62 q 757 -29 736 -43 q 769 -37 769 -31 q 748 -62 769 -44 q 688 -101 726 -81 q 599 -135 650 -121 q 488 -150 547 -150 m 446 1118 q 440 1129 440 1118 q 458 1149 443 1139 q 489 1169 465 1153 q 541 1206 513 1186 q 592 1242 569 1226 q 619 1263 614 1258 q 630 1269 625 1265 q 640 1272 635 1272 q 651 1269 646 1272 q 657 1263 656 1265 q 681 1242 661 1258 q 726 1206 701 1226 q 772 1169 751 1186 q 799 1149 793 1153 q 811 1129 813 1136 q 803 1118 811 1118 q 774 1126 794 1118 q 734 1143 761 1132 q 678 1168 707 1154 q 632 1194 649 1182 q 583 1168 614 1182 q 522 1143 551 1154 q 478 1126 492 1132 q 446 1118 457 1118 m 718 1304 q 667 1316 693 1304 q 616 1339 642 1328 q 565 1350 590 1350 q 525 1334 536 1350 q 510 1311 514 1318 q 503 1315 503 1311 q 526 1376 503 1347 q 596 1404 550 1404 q 646 1394 621 1404 q 696 1373 671 1383 q 744 1363 721 1363 q 776 1372 761 1363 q 800 1394 790 1381 q 810 1390 810 1394 q 799 1355 810 1375 q 769 1319 789 1335 q 718 1304 749 1304 z "},"Ȅ":{"ha":733,"x_min":-14,"x_max":906,"o":"m 488 -150 q 370 -142 436 -150 q 237 -117 304 -133 q 113 -75 169 -100 q 21 -16 56 -50 q -14 60 -14 18 q 26 149 -14 103 q 119 258 74 203 q 217 365 164 314 q 338 456 269 415 q 169 590 233 510 q 106 747 106 669 q 147 857 106 807 q 256 945 188 907 q 406 1009 324 983 q 574 1049 489 1035 q 732 1063 660 1063 q 803 1060 769 1063 q 861 1050 836 1057 q 884 1026 874 1047 q 900 981 894 1004 q 906 946 906 957 l 906 940 q 844 899 889 917 q 739 867 800 881 q 610 844 678 854 q 476 829 542 835 q 358 821 411 824 q 276 818 306 818 q 237 822 246 818 q 228 829 228 825 q 272 842 228 838 q 389 851 317 846 q 544 869 461 857 q 708 905 628 881 q 846 972 788 929 q 781 975 811 975 q 724 975 751 975 q 611 969 663 975 q 506 951 560 964 q 388 917 453 939 q 201 821 253 872 q 149 713 149 769 q 178 625 149 669 q 256 542 207 581 q 365 474 306 503 q 420 499 383 483 q 497 530 457 514 q 569 556 538 546 q 607 567 600 567 q 644 547 631 567 q 657 506 657 528 q 633 468 657 483 q 574 443 610 453 q 499 429 538 433 q 429 425 460 425 q 263 340 342 388 q 135 236 185 292 q 86 118 86 181 q 126 33 86 68 q 231 -22 165 -1 q 376 -53 297 -43 q 535 -62 456 -62 q 674 -53 613 -62 q 757 -29 736 -43 q 769 -37 769 -31 q 748 -62 769 -44 q 688 -101 726 -81 q 599 -135 650 -121 q 488 -150 547 -150 m 669 1136 q 640 1150 657 1139 q 608 1176 628 1158 q 567 1215 588 1194 q 533 1251 546 1235 q 521 1272 519 1267 q 535 1290 519 1281 q 558 1297 551 1300 q 574 1286 565 1297 q 590 1265 576 1282 q 619 1227 603 1249 q 650 1188 636 1206 q 669 1165 664 1171 q 679 1144 685 1150 q 669 1136 679 1133 m 568 1132 q 538 1143 560 1132 q 500 1165 524 1150 q 453 1198 476 1179 q 415 1232 431 1217 q 399 1253 399 1247 q 410 1273 397 1260 q 429 1285 422 1286 q 447 1274 436 1285 q 467 1256 451 1271 q 501 1220 482 1240 q 538 1184 521 1200 q 563 1163 556 1168 q 575 1142 578 1150 q 568 1132 575 1132 z "},"Ë":{"ha":733,"x_min":-14,"x_max":906,"o":"m 488 -150 q 370 -142 436 -150 q 237 -117 304 -133 q 113 -75 169 -100 q 21 -16 56 -50 q -14 60 -14 18 q 26 149 -14 103 q 119 258 74 203 q 217 365 164 314 q 338 456 269 415 q 169 590 233 510 q 106 747 106 669 q 147 857 106 807 q 256 945 188 907 q 406 1009 324 983 q 574 1049 489 1035 q 732 1063 660 1063 q 803 1060 769 1063 q 861 1050 836 1057 q 884 1026 874 1047 q 900 981 894 1004 q 906 946 906 957 l 906 940 q 844 899 889 917 q 739 867 800 881 q 610 844 678 854 q 476 829 542 835 q 358 821 411 824 q 276 818 306 818 q 237 822 246 818 q 228 829 228 825 q 272 842 228 838 q 389 851 317 846 q 544 869 461 857 q 708 905 628 881 q 846 972 788 929 q 781 975 811 975 q 724 975 751 975 q 611 969 663 975 q 506 951 560 964 q 388 917 453 939 q 201 821 253 872 q 149 713 149 769 q 178 625 149 669 q 256 542 207 581 q 365 474 306 503 q 420 499 383 483 q 497 530 457 514 q 569 556 538 546 q 607 567 600 567 q 644 547 631 567 q 657 506 657 528 q 633 468 657 483 q 574 443 610 453 q 499 429 538 433 q 429 425 460 425 q 263 340 342 388 q 135 236 185 292 q 86 118 86 181 q 126 33 86 68 q 231 -22 165 -1 q 376 -53 297 -43 q 535 -62 456 -62 q 674 -53 613 -62 q 757 -29 736 -43 q 769 -37 769 -31 q 748 -62 769 -44 q 688 -101 726 -81 q 599 -135 650 -121 q 488 -150 547 -150 m 729 1117 q 693 1131 714 1117 q 681 1151 681 1138 q 706 1191 681 1167 q 774 1215 731 1215 q 797 1206 797 1215 q 789 1193 797 1199 q 767 1161 774 1179 q 753 1130 760 1143 q 729 1117 746 1117 m 542 1117 q 506 1131 526 1117 q 493 1151 493 1138 q 519 1191 493 1167 q 586 1215 544 1215 q 610 1206 610 1215 q 601 1193 610 1199 q 579 1161 586 1179 q 565 1130 572 1143 q 542 1117 558 1117 z "},"Ė":{"ha":733,"x_min":-14,"x_max":906,"o":"m 488 -150 q 370 -142 436 -150 q 237 -117 304 -133 q 113 -75 169 -100 q 21 -16 56 -50 q -14 60 -14 18 q 26 149 -14 103 q 119 258 74 203 q 217 365 164 314 q 338 456 269 415 q 169 590 233 510 q 106 747 106 669 q 147 857 106 807 q 256 945 188 907 q 406 1009 324 983 q 574 1049 489 1035 q 732 1063 660 1063 q 803 1060 769 1063 q 861 1050 836 1057 q 884 1026 874 1047 q 900 981 894 1004 q 906 946 906 957 l 906 940 q 844 899 889 917 q 739 867 800 881 q 610 844 678 854 q 476 829 542 835 q 358 821 411 824 q 276 818 306 818 q 237 822 246 818 q 228 829 228 825 q 272 842 228 838 q 389 851 317 846 q 544 869 461 857 q 708 905 628 881 q 846 972 788 929 q 781 975 811 975 q 724 975 751 975 q 611 969 663 975 q 506 951 560 964 q 388 917 453 939 q 201 821 253 872 q 149 713 149 769 q 178 625 149 669 q 256 542 207 581 q 365 474 306 503 q 420 499 383 483 q 497 530 457 514 q 569 556 538 546 q 607 567 600 567 q 644 547 631 567 q 657 506 657 528 q 633 468 657 483 q 574 443 610 453 q 499 429 538 433 q 429 425 460 425 q 263 340 342 388 q 135 236 185 292 q 86 118 86 181 q 126 33 86 68 q 231 -22 165 -1 q 376 -53 297 -43 q 535 -62 456 -62 q 674 -53 613 -62 q 757 -29 736 -43 q 769 -37 769 -31 q 748 -62 769 -44 q 688 -101 726 -81 q 599 -135 650 -121 q 488 -150 547 -150 m 629 1125 q 593 1139 614 1125 q 581 1160 581 1146 q 606 1199 581 1175 q 674 1224 632 1224 q 697 1214 697 1224 q 689 1201 697 1207 q 667 1169 674 1188 q 653 1138 660 1151 q 629 1125 646 1125 z "},"Ẹ":{"ha":733,"x_min":-14,"x_max":906,"o":"m 488 -150 q 370 -142 436 -150 q 237 -117 304 -133 q 113 -75 169 -100 q 21 -16 56 -50 q -14 60 -14 18 q 26 149 -14 103 q 119 258 74 203 q 217 365 164 314 q 338 456 269 415 q 169 590 233 510 q 106 747 106 669 q 147 857 106 807 q 256 945 188 907 q 406 1009 324 983 q 574 1049 489 1035 q 732 1063 660 1063 q 803 1060 769 1063 q 861 1050 836 1057 q 884 1026 874 1047 q 900 981 894 1004 q 906 946 906 957 l 906 940 q 844 899 889 917 q 739 867 800 881 q 610 844 678 854 q 476 829 542 835 q 358 821 411 824 q 276 818 306 818 q 237 822 246 818 q 228 829 228 825 q 272 842 228 838 q 389 851 317 846 q 544 869 461 857 q 708 905 628 881 q 846 972 788 929 q 781 975 811 975 q 724 975 751 975 q 611 969 663 975 q 506 951 560 964 q 388 917 453 939 q 201 821 253 872 q 149 713 149 769 q 178 625 149 669 q 256 542 207 581 q 365 474 306 503 q 420 499 383 483 q 497 530 457 514 q 569 556 538 546 q 607 567 600 567 q 644 547 631 567 q 657 506 657 528 q 633 468 657 483 q 574 443 610 453 q 499 429 538 433 q 429 425 460 425 q 263 340 342 388 q 135 236 185 292 q 86 118 86 181 q 126 33 86 68 q 231 -22 165 -1 q 376 -53 297 -43 q 535 -62 456 -62 q 674 -53 613 -62 q 757 -29 736 -43 q 769 -37 769 -31 q 748 -62 769 -44 q 688 -101 726 -81 q 599 -135 650 -121 q 488 -150 547 -150 m 336 -312 q 304 -301 322 -312 q 293 -282 293 -294 q 315 -247 293 -268 q 374 -226 338 -226 q 394 -236 394 -226 q 388 -246 394 -242 q 368 -273 374 -257 q 356 -301 363 -289 q 336 -312 350 -312 z "},"È":{"ha":733,"x_min":-14,"x_max":906,"o":"m 488 -150 q 370 -142 436 -150 q 237 -117 304 -133 q 113 -75 169 -100 q 21 -16 56 -50 q -14 60 -14 18 q 26 149 -14 103 q 119 258 74 203 q 217 365 164 314 q 338 456 269 415 q 169 590 233 510 q 106 747 106 669 q 147 857 106 807 q 256 945 188 907 q 406 1009 324 983 q 574 1049 489 1035 q 732 1063 660 1063 q 803 1060 769 1063 q 861 1050 836 1057 q 884 1026 874 1047 q 900 981 894 1004 q 906 946 906 957 l 906 940 q 844 899 889 917 q 739 867 800 881 q 610 844 678 854 q 476 829 542 835 q 358 821 411 824 q 276 818 306 818 q 237 822 246 818 q 228 829 228 825 q 272 842 228 838 q 389 851 317 846 q 544 869 461 857 q 708 905 628 881 q 846 972 788 929 q 781 975 811 975 q 724 975 751 975 q 611 969 663 975 q 506 951 560 964 q 388 917 453 939 q 201 821 253 872 q 149 713 149 769 q 178 625 149 669 q 256 542 207 581 q 365 474 306 503 q 420 499 383 483 q 497 530 457 514 q 569 556 538 546 q 607 567 600 567 q 644 547 631 567 q 657 506 657 528 q 633 468 657 483 q 574 443 610 453 q 499 429 538 433 q 429 425 460 425 q 263 340 342 388 q 135 236 185 292 q 86 118 86 181 q 126 33 86 68 q 231 -22 165 -1 q 376 -53 297 -43 q 535 -62 456 -62 q 674 -53 613 -62 q 757 -29 736 -43 q 769 -37 769 -31 q 748 -62 769 -44 q 688 -101 726 -81 q 599 -135 650 -121 q 488 -150 547 -150 m 685 1125 q 654 1133 675 1125 q 608 1154 640 1139 q 542 1188 576 1169 q 483 1223 507 1207 q 458 1244 458 1239 q 463 1261 457 1250 q 478 1283 469 1272 q 492 1293 488 1293 q 499 1292 496 1293 q 511 1283 503 1290 q 538 1263 515 1281 q 591 1222 561 1244 q 645 1179 621 1199 q 676 1156 669 1160 q 692 1136 692 1144 q 685 1125 692 1125 z "},"Ẻ":{"ha":733,"x_min":-14,"x_max":906,"o":"m 488 -150 q 370 -142 436 -150 q 237 -117 304 -133 q 113 -75 169 -100 q 21 -16 56 -50 q -14 60 -14 18 q 26 149 -14 103 q 119 258 74 203 q 217 365 164 314 q 338 456 269 415 q 169 590 233 510 q 106 747 106 669 q 147 857 106 807 q 256 945 188 907 q 406 1009 324 983 q 574 1049 489 1035 q 732 1063 660 1063 q 803 1060 769 1063 q 861 1050 836 1057 q 884 1026 874 1047 q 900 981 894 1004 q 906 946 906 957 l 906 940 q 844 899 889 917 q 739 867 800 881 q 610 844 678 854 q 476 829 542 835 q 358 821 411 824 q 276 818 306 818 q 237 822 246 818 q 228 829 228 825 q 272 842 228 838 q 389 851 317 846 q 544 869 461 857 q 708 905 628 881 q 846 972 788 929 q 781 975 811 975 q 724 975 751 975 q 611 969 663 975 q 506 951 560 964 q 388 917 453 939 q 201 821 253 872 q 149 713 149 769 q 178 625 149 669 q 256 542 207 581 q 365 474 306 503 q 420 499 383 483 q 497 530 457 514 q 569 556 538 546 q 607 567 600 567 q 644 547 631 567 q 657 506 657 528 q 633 468 657 483 q 574 443 610 453 q 499 429 538 433 q 429 425 460 425 q 263 340 342 388 q 135 236 185 292 q 86 118 86 181 q 126 33 86 68 q 231 -22 165 -1 q 376 -53 297 -43 q 535 -62 456 -62 q 674 -53 613 -62 q 757 -29 736 -43 q 769 -37 769 -31 q 748 -62 769 -44 q 688 -101 726 -81 q 599 -135 650 -121 q 488 -150 547 -150 m 639 1131 q 631 1135 633 1131 q 633 1146 628 1140 q 665 1187 649 1161 q 681 1236 681 1213 q 668 1267 681 1256 q 636 1278 656 1278 q 597 1273 611 1278 q 579 1268 582 1268 q 574 1273 576 1268 q 576 1283 571 1278 q 621 1313 593 1300 q 665 1326 649 1326 q 733 1306 713 1326 q 753 1257 753 1285 q 733 1201 753 1225 q 688 1160 713 1176 q 649 1133 664 1143 q 639 1131 643 1131 z "},"Ȇ":{"ha":733,"x_min":-14,"x_max":906,"o":"m 661 1279 q 733 1257 701 1279 q 785 1203 765 1235 q 804 1140 804 1171 q 797 1114 804 1114 q 783 1129 793 1114 q 755 1164 772 1144 q 713 1199 738 1183 q 654 1214 688 1214 q 578 1192 613 1214 q 519 1145 543 1169 q 488 1114 496 1121 q 483 1113 486 1113 q 481 1117 481 1113 q 483 1132 481 1121 q 506 1190 485 1156 q 567 1252 528 1225 q 661 1279 607 1279 m 488 -150 q 370 -142 436 -150 q 237 -117 304 -133 q 113 -75 169 -100 q 21 -16 56 -50 q -14 60 -14 18 q 26 149 -14 103 q 119 258 74 203 q 217 365 164 314 q 338 456 269 415 q 169 590 233 510 q 106 747 106 669 q 147 857 106 807 q 256 945 188 907 q 406 1009 324 983 q 574 1049 489 1035 q 732 1063 660 1063 q 803 1060 769 1063 q 861 1050 836 1057 q 884 1026 874 1047 q 900 981 894 1004 q 906 946 906 957 l 906 940 q 844 899 889 917 q 739 867 800 881 q 610 844 678 854 q 476 829 542 835 q 358 821 411 824 q 276 818 306 818 q 237 822 246 818 q 228 829 228 825 q 272 842 228 838 q 389 851 317 846 q 544 869 461 857 q 708 905 628 881 q 846 972 788 929 q 781 975 811 975 q 724 975 751 975 q 611 969 663 975 q 506 951 560 964 q 388 917 453 939 q 201 821 253 872 q 149 713 149 769 q 178 625 149 669 q 256 542 207 581 q 365 474 306 503 q 420 499 383 483 q 497 530 457 514 q 569 556 538 546 q 607 567 600 567 q 644 547 631 567 q 657 506 657 528 q 633 468 657 483 q 574 443 610 453 q 499 429 538 433 q 429 425 460 425 q 263 340 342 388 q 135 236 185 292 q 86 118 86 181 q 126 33 86 68 q 231 -22 165 -1 q 376 -53 297 -43 q 535 -62 456 -62 q 674 -53 613 -62 q 757 -29 736 -43 q 769 -37 769 -31 q 748 -62 769 -44 q 688 -101 726 -81 q 599 -135 650 -121 q 488 -150 547 -150 z "},"Ē":{"ha":733,"x_min":-14,"x_max":906,"o":"m 488 -150 q 370 -142 436 -150 q 237 -117 304 -133 q 113 -75 169 -100 q 21 -16 56 -50 q -14 60 -14 18 q 26 149 -14 103 q 119 258 74 203 q 217 365 164 314 q 338 456 269 415 q 169 590 233 510 q 106 747 106 669 q 147 857 106 807 q 256 945 188 907 q 406 1009 324 983 q 574 1049 489 1035 q 732 1063 660 1063 q 803 1060 769 1063 q 861 1050 836 1057 q 884 1026 874 1047 q 900 981 894 1004 q 906 946 906 957 l 906 940 q 844 899 889 917 q 739 867 800 881 q 610 844 678 854 q 476 829 542 835 q 358 821 411 824 q 276 818 306 818 q 237 822 246 818 q 228 829 228 825 q 272 842 228 838 q 389 851 317 846 q 544 869 461 857 q 708 905 628 881 q 846 972 788 929 q 781 975 811 975 q 724 975 751 975 q 611 969 663 975 q 506 951 560 964 q 388 917 453 939 q 201 821 253 872 q 149 713 149 769 q 178 625 149 669 q 256 542 207 581 q 365 474 306 503 q 420 499 383 483 q 497 530 457 514 q 569 556 538 546 q 607 567 600 567 q 644 547 631 567 q 657 506 657 528 q 633 468 657 483 q 574 443 610 453 q 499 429 538 433 q 429 425 460 425 q 263 340 342 388 q 135 236 185 292 q 86 118 86 181 q 126 33 86 68 q 231 -22 165 -1 q 376 -53 297 -43 q 535 -62 456 -62 q 674 -53 613 -62 q 757 -29 736 -43 q 769 -37 769 -31 q 748 -62 769 -44 q 688 -101 726 -81 q 599 -135 650 -121 q 488 -150 547 -150 m 499 1142 q 484 1143 497 1142 q 471 1151 471 1144 q 487 1183 471 1174 q 524 1196 503 1193 q 561 1199 546 1199 q 615 1198 579 1199 q 687 1196 651 1197 q 736 1193 722 1194 q 770 1183 760 1192 q 781 1169 781 1175 q 753 1151 781 1156 q 678 1146 725 1149 q 581 1142 631 1143 q 499 1142 532 1142 z "},"Ę":{"ha":733,"x_min":-14,"x_max":906,"o":"m 488 -150 q 370 -142 436 -150 q 237 -117 304 -133 q 113 -75 169 -100 q 21 -16 56 -50 q -14 60 -14 18 q 26 149 -14 103 q 119 258 74 203 q 217 365 164 314 q 338 456 269 415 q 169 590 233 510 q 106 747 106 669 q 147 857 106 807 q 256 945 188 907 q 406 1009 324 983 q 574 1049 489 1035 q 732 1063 660 1063 q 803 1060 769 1063 q 861 1050 836 1057 q 884 1026 874 1047 q 900 981 894 1004 q 906 946 906 957 l 906 940 q 844 899 889 917 q 739 867 800 881 q 610 844 678 854 q 476 829 542 835 q 358 821 411 824 q 276 818 306 818 q 237 822 246 818 q 228 829 228 825 q 272 842 228 838 q 389 851 317 846 q 544 869 461 857 q 708 905 628 881 q 846 972 788 929 q 781 975 811 975 q 724 975 751 975 q 611 969 663 975 q 506 951 560 964 q 388 917 453 939 q 201 821 253 872 q 149 713 149 769 q 178 625 149 669 q 256 542 207 581 q 365 474 306 503 q 420 499 383 483 q 497 530 457 514 q 569 556 538 546 q 607 567 600 567 q 644 547 631 567 q 657 506 657 528 q 633 468 657 483 q 574 443 610 453 q 499 429 538 433 q 429 425 460 425 q 263 340 342 388 q 135 236 185 292 q 86 118 86 181 q 126 33 86 68 q 231 -22 165 -1 q 376 -53 297 -43 q 535 -62 456 -62 q 674 -53 613 -62 q 757 -29 736 -43 q 769 -37 769 -31 q 748 -62 769 -44 q 688 -101 726 -81 q 599 -135 650 -121 q 488 -150 547 -150 m 563 -353 q 503 -336 525 -353 q 481 -289 481 -319 q 481 -281 481 -285 q 482 -271 481 -276 q 510 -206 488 -242 q 561 -144 533 -171 q 607 -118 589 -118 l 618 -119 q 578 -177 599 -142 q 551 -242 557 -212 q 549 -253 550 -247 q 549 -264 549 -258 q 563 -304 549 -289 q 604 -319 578 -319 q 632 -316 619 -319 q 658 -308 644 -312 q 684 -297 672 -303 q 707 -286 696 -292 q 718 -282 715 -282 q 711 -302 729 -282 q 661 -333 693 -322 q 563 -353 603 -353 z "},"Ẽ":{"ha":733,"x_min":-14,"x_max":906,"o":"m 488 -150 q 370 -142 436 -150 q 237 -117 304 -133 q 113 -75 169 -100 q 21 -16 56 -50 q -14 60 -14 18 q 26 149 -14 103 q 119 258 74 203 q 217 365 164 314 q 338 456 269 415 q 169 590 233 510 q 106 747 106 669 q 147 857 106 807 q 256 945 188 907 q 406 1009 324 983 q 574 1049 489 1035 q 732 1063 660 1063 q 803 1060 769 1063 q 861 1050 836 1057 q 884 1026 874 1047 q 900 981 894 1004 q 906 946 906 957 l 906 940 q 844 899 889 917 q 739 867 800 881 q 610 844 678 854 q 476 829 542 835 q 358 821 411 824 q 276 818 306 818 q 237 822 246 818 q 228 829 228 825 q 272 842 228 838 q 389 851 317 846 q 544 869 461 857 q 708 905 628 881 q 846 972 788 929 q 781 975 811 975 q 724 975 751 975 q 611 969 663 975 q 506 951 560 964 q 388 917 453 939 q 201 821 253 872 q 149 713 149 769 q 178 625 149 669 q 256 542 207 581 q 365 474 306 503 q 420 499 383 483 q 497 530 457 514 q 569 556 538 546 q 607 567 600 567 q 644 547 631 567 q 657 506 657 528 q 633 468 657 483 q 574 443 610 453 q 499 429 538 433 q 429 425 460 425 q 263 340 342 388 q 135 236 185 292 q 86 118 86 181 q 126 33 86 68 q 231 -22 165 -1 q 376 -53 297 -43 q 535 -62 456 -62 q 674 -53 613 -62 q 757 -29 736 -43 q 769 -37 769 -31 q 748 -62 769 -44 q 688 -101 726 -81 q 599 -135 650 -121 q 488 -150 547 -150 m 689 1138 q 638 1149 664 1138 q 587 1172 613 1161 q 536 1183 561 1183 q 496 1167 507 1183 q 481 1144 485 1151 q 474 1149 474 1144 q 497 1209 474 1181 q 567 1238 521 1238 q 617 1227 592 1238 q 667 1206 642 1217 q 715 1196 692 1196 q 747 1205 732 1196 q 771 1228 761 1214 q 781 1224 781 1228 q 770 1188 781 1208 q 740 1153 760 1168 q 689 1138 719 1138 z "},"Ḟ":{"ha":833,"x_min":6,"x_max":1075,"o":"m 344 -83 q 336 4 344 -51 q 308 123 328 60 q 256 242 289 186 q 199 293 236 274 q 119 322 163 313 q 33 331 75 331 l 10 331 q 6 336 6 331 q 15 371 6 349 q 38 413 25 393 q 58 433 50 432 q 212 452 133 444 q 368 465 290 460 q 380 660 371 556 q 399 854 389 765 q 242 804 321 832 q 83 743 163 776 l 82 743 q 76 757 76 743 q 83 797 76 772 q 98 841 89 821 q 115 863 107 861 q 256 899 182 882 q 407 931 331 917 l 421 1021 q 402 986 411 1004 q 390 968 393 968 q 389 972 389 968 q 390 988 389 976 q 396 1017 392 999 q 408 1060 399 1032 q 428 1117 417 1088 q 451 1166 439 1146 q 474 1186 464 1186 q 520 1165 497 1186 q 543 1125 543 1143 l 543 1121 q 519 1044 531 1090 q 499 946 508 999 q 665 964 583 957 q 824 971 747 971 q 903 969 860 971 q 985 962 946 967 q 1050 950 1025 957 q 1075 932 1075 943 q 1058 925 1075 925 q 983 931 1019 925 q 907 936 946 936 q 488 879 719 936 q 467 731 476 807 q 451 588 458 656 q 440 469 444 519 q 535 474 489 472 q 625 475 582 475 q 746 472 686 475 q 846 463 806 469 q 886 446 886 457 q 881 438 886 442 q 871 435 876 435 q 810 439 842 435 q 744 443 778 443 q 599 435 676 443 q 436 414 522 428 q 420 215 428 317 q 410 39 413 113 q 395 -36 408 -4 q 344 -83 382 -68 m 364 50 q 362 106 363 76 q 361 169 361 136 q 363 281 361 222 q 367 403 364 340 q 269 385 319 394 q 167 364 219 375 q 249 309 213 344 q 313 213 285 274 q 364 50 342 151 m 738 1097 q 701 1111 722 1097 q 689 1132 689 1118 q 715 1172 689 1147 q 782 1196 740 1196 q 806 1186 806 1196 q 797 1174 806 1179 q 775 1142 782 1160 q 761 1110 768 1124 q 738 1097 754 1097 z "},"Ğ":{"ha":765,"x_min":-22,"x_max":906,"o":"m 410 -510 q 354 -486 379 -510 q 329 -444 329 -462 q 330 -439 329 -442 q 332 -433 331 -436 q 333 -431 332 -431 l 332 -431 q 314 -425 321 -431 q 240 -340 263 -389 q 218 -232 218 -292 q 254 -55 218 -150 q 349 138 290 40 q 478 326 408 236 q 618 490 549 417 q 619 508 619 500 q 619 526 619 517 q 614 635 619 588 q 600 718 608 683 q 531 625 558 668 q 477 537 503 582 q 415 432 451 492 q 369 362 397 403 q 306 281 340 321 q 232 215 271 242 q 151 189 193 189 q 63 215 103 189 q 1 283 24 240 q -22 378 -22 326 q 38 603 -22 493 q 194 803 99 713 l 153 803 q 118 807 128 803 q 108 815 108 811 q 119 825 108 821 q 144 829 131 829 q 176 830 156 829 q 226 832 197 831 q 400 956 307 903 q 587 1038 493 1008 q 763 1067 681 1067 q 815 1062 790 1067 q 861 1050 839 1057 q 884 1025 874 1046 q 900 981 894 1004 q 906 946 906 958 l 906 940 q 845 900 890 918 q 735 867 800 882 q 597 842 671 853 q 449 823 524 831 q 311 810 375 815 q 183 672 239 747 q 97 519 128 597 q 65 368 65 442 q 85 297 65 325 q 147 269 104 269 q 222 285 185 269 q 285 332 258 301 q 370 440 326 378 q 454 571 414 503 q 525 703 494 639 q 569 817 556 767 q 576 819 569 819 q 609 813 588 819 q 649 794 631 807 q 669 763 667 782 q 678 690 675 728 q 681 608 681 651 q 680 581 681 594 q 679 553 679 568 q 822 668 767 638 q 849 675 839 675 q 861 667 861 675 q 857 658 861 663 q 767 588 813 626 q 676 504 721 549 q 647 264 668 388 q 599 23 626 140 q 543 -192 571 -94 q 493 -356 515 -290 q 460 -443 471 -422 q 437 -490 444 -469 q 410 -510 429 -510 m 350 842 q 503 860 424 849 q 656 888 583 872 q 779 925 728 904 q 846 972 831 946 q 743 993 803 993 q 539 951 640 993 q 350 842 438 910 m 350 -393 q 435 -194 393 -300 q 515 20 478 -89 q 578 236 553 129 q 614 439 604 343 q 481 277 543 363 q 372 106 419 192 q 297 -62 324 19 q 269 -214 269 -143 q 288 -315 269 -269 q 350 -393 307 -361 m 576 1129 q 505 1151 538 1129 q 453 1206 472 1174 q 433 1268 433 1238 q 440 1294 433 1294 q 455 1279 444 1294 q 483 1244 465 1264 q 525 1210 500 1225 q 583 1194 550 1194 q 660 1217 625 1194 q 718 1263 694 1239 q 750 1294 742 1288 q 754 1296 751 1296 q 757 1292 757 1296 q 754 1276 757 1288 q 731 1219 753 1254 q 670 1156 710 1183 q 576 1129 631 1129 z "}}}
